<svg width="1352" height="694" xmlns="http://www.w3.org/2000/svg" xmlns:xlink="http://www.w3.org/1999/xlink" xml:space="preserve" overflow="hidden"><g transform="translate(-1530 -890)"><path d="M1550.21 1021.48C1546.37 965.311 1600.5 904.575 1659.65 914.634 1783.61 931.779 1897.25 906.137 2024.48 914.634 2151.7 923.133 2204.22 921.571 2378.34 914.634 2552.45 907.698 2676.61 910.066 2754.1 914.634 2816.79 913.451 2865.61 961.76 2863.55 1021.48 2862.13 1067.9 2871.31 1152.94 2863.55 1243.7 2855.79 1334.47 2860.84 1398.94 2863.55 1448.85 2863.46 1505.47 2812.37 1554.14 2754.1 1555.68 2600.89 1572.82 2518.9 1543.98 2400.23 1555.68 2281.57 1567.39 2106.49 1546.71 2013.53 1555.68 1920.57 1564.66 1835.17 1546 1659.65 1555.68 1607.15 1561.01 1537.53 1503.93 1550.21 1448.85 1559.5 1371.59 1538.87 1301.5 1550.21 1226.62 1561.54 1151.72 1551.78 1114.03 1550.21 1021.48Z" stroke="#8FAADC" stroke-width="0.847014" stroke-miterlimit="8" fill="#B4C7E7" fill-rule="evenodd"/><path d="M1548.79 1021.44C1551.43 953.372 1603.92 916.584 1658.3 914.93 1774.97 905.114 1906.52 905.671 2034.28 914.93 2162.04 924.188 2260.67 917.355 2388.36 914.93 2516.06 912.504 2618.62 900.837 2753.39 914.93 2810.79 914.307 2874.16 964.465 2862.89 1021.44 2853.85 1117.38 2863.74 1166.3 2862.89 1238.72 2862.05 1311.15 2860.16 1371.45 2862.89 1447.49 2865.24 1501.95 2816.78 1552.66 2753.39 1553.99 2664.01 1538.48 2474.96 1535.3 2366.45 1553.99 2257.95 1572.7 2105.74 1569.29 2023.33 1553.99 1940.92 1538.71 1775.85 1571.06 1658.3 1553.99 1605.55 1554.8 1549.15 1504.51 1548.79 1447.49 1555.71 1378.94 1544.75 1339.21 1548.79 1242.99 1552.84 1146.76 1543.71 1114.81 1548.79 1021.44Z" stroke="#8FAADC" stroke-width="33.8762" stroke-miterlimit="8" fill="#8FAADC" fill-rule="evenodd"/><path d="M2476.58 1359.28C2470.8 1359.28 2466.05 1363.08 2462.34 1370.69 2461.39 1372.71 2460.45 1375.42 2459.51 1378.82 2459.44 1379.2 2459.42 1379.44 2459.42 1379.56L2494.31 1379.56 2494.31 1379.48C2494.31 1377.71 2493.43 1374.44 2491.67 1369.66 2488.4 1362.74 2483.37 1359.28 2476.58 1359.28ZM2038.63 1356.25C2033.16 1356.25 2029.32 1362.32 2027.12 1374.47 2026.62 1378.25 2026.36 1382.02 2026.36 1385.8L2026.36 1387.02C2026.36 1398.29 2028.38 1407.35 2032.41 1414.21 2034.48 1416.92 2036.68 1418.27 2039.01 1418.27 2043.85 1418.27 2047.44 1412.35 2049.76 1400.52 2050.26 1395.99 2050.51 1391.59 2050.51 1387.31L2050.51 1386.93C2050.51 1376.42 2048.97 1367.93 2045.89 1361.45 2043.69 1357.98 2041.27 1356.25 2038.63 1356.25ZM2244.64 1344.46 2267.18 1344.46 2267.27 1433.65 2244.73 1433.65ZM2277.65 1342.85 2300.19 1342.85 2300.19 1348.61 2300.29 1348.61C2304.75 1345.53 2309.75 1343.98 2315.29 1343.98 2323.09 1343.98 2330.35 1346.41 2337.07 1351.25 2340.16 1353.71 2341.98 1355.5 2342.54 1356.63 2344.05 1358.64 2345.31 1361.04 2346.32 1363.81 2346.7 1365.63 2346.88 1368.18 2346.88 1371.45L2346.88 1431.58 2326.23 1431.58 2326.23 1376.46C2326.23 1374.51 2326.29 1371.92 2326.41 1368.72 2326.41 1361.48 2324.5 1357.13 2320.66 1355.69 2318.59 1354.87 2316.11 1354.46 2313.21 1354.46L2312.36 1354.46C2308.33 1354.46 2304.28 1356.19 2300.19 1359.65L2300.19 1431.58 2285.1 1431.58C2280.13 1431.58 2277.65 1428.96 2277.65 1423.74 2277.58 1421.6 2277.56 1418.87 2277.56 1415.53L2277.56 1382.02C2277.56 1372.08 2277.58 1359.02 2277.65 1342.85ZM2084.48 1342.85 2107.02 1342.85 2107.02 1348.61 2107.11 1348.61C2111.57 1345.53 2116.58 1343.98 2122.11 1343.98 2129.91 1343.98 2137.17 1346.41 2143.9 1351.25 2146.98 1353.71 2148.8 1355.5 2149.37 1356.63 2150.88 1358.64 2152.13 1361.04 2153.14 1363.81 2153.52 1365.63 2153.7 1368.18 2153.7 1371.45L2153.7 1431.58 2133.05 1431.58 2133.05 1376.46C2133.05 1374.51 2133.11 1371.92 2133.24 1368.72 2133.24 1361.48 2131.32 1357.13 2127.48 1355.69 2125.41 1354.87 2122.93 1354.46 2120.03 1354.46L2119.19 1354.46C2115.16 1354.46 2111.1 1356.19 2107.02 1359.65L2107.02 1431.58 2091.92 1431.58C2086.96 1431.58 2084.48 1428.96 2084.48 1423.74 2084.41 1421.6 2084.38 1418.87 2084.38 1415.53L2084.38 1382.02C2084.38 1372.08 2084.41 1359.02 2084.48 1342.85ZM2038.25 1342.85 2039.19 1342.85C2048.44 1342.85 2056.36 1346.57 2062.96 1353.99 2064.98 1356.63 2066.68 1359.34 2068.05 1362.1 2071.83 1369.72 2073.72 1377.99 2073.72 1386.93L2073.72 1387.69C2073.72 1398.89 2070.86 1408.86 2065.13 1417.6 2058.41 1426.92 2049.73 1431.58 2039.1 1431.58L2038.44 1431.58C2026.43 1431.58 2016.91 1425.91 2009.86 1414.58 2005.21 1406.22 2002.88 1397.16 2002.88 1387.4L2002.88 1386.46C2002.88 1374.95 2006.03 1364.78 2012.31 1355.97 2019.1 1347.23 2027.75 1342.85 2038.25 1342.85ZM2472.15 1342.75 2472.33 1342.75C2485.79 1342.75 2495.82 1347.73 2502.43 1357.67 2506.32 1364.09 2508.27 1371.51 2508.27 1379.94 2508.27 1384.1 2507.74 1388.44 2506.67 1392.97 2501.39 1392.97 2497.27 1392.97 2494.31 1392.97L2458.75 1392.97 2458.75 1393.06C2458.75 1396.59 2459.72 1400.9 2461.67 1406 2465.2 1412.98 2470.3 1416.47 2476.96 1416.47L2478 1416.47C2485.42 1416.47 2490.91 1413.71 2494.51 1408.17 2495.07 1406.72 2496.08 1404.18 2497.52 1400.52 2497.65 1400.52 2499.19 1400.96 2502.15 1401.85 2500.51 1406.13 2499.69 1408.42 2499.69 1408.73L2506.39 1412.23C2505.39 1414.56 2504 1416.98 2502.23 1419.49 2498.09 1424.46 2493.22 1427.84 2487.61 1429.59 2483.91 1430.92 2480.26 1431.58 2476.67 1431.58L2474.79 1431.58C2468.81 1431.58 2462.9 1430.19 2457.06 1427.42 2448.63 1423.33 2442.37 1416.29 2438.28 1406.28 2435.77 1400.18 2434.51 1393.76 2434.51 1387.02L2434.51 1386.08C2434.51 1375.07 2437.75 1365.19 2444.23 1356.45 2451.58 1347.32 2460.89 1342.75 2472.15 1342.75ZM2356.03 1342.75 2378.58 1342.75C2378.64 1345.97 2378.67 1348.52 2378.67 1350.4L2378.67 1375.7C2378.67 1382.5 2378.7 1391.43 2378.77 1402.51 2378.77 1406.15 2379.3 1409.61 2380.37 1412.89 2381.43 1415.09 2382.82 1416.51 2384.52 1417.14 2385.71 1417.7 2387.35 1417.98 2389.43 1417.98 2391.69 1417.98 2394.11 1417.76 2396.69 1417.32L2396.69 1342.75 2419.23 1342.75 2419.23 1417.52 2424.89 1417.52 2424.89 1419.87C2424.89 1419.93 2424.83 1419.97 2424.7 1419.97L2421.97 1419.97 2421.97 1431.3C2421.97 1431.42 2421.91 1431.48 2421.77 1431.48L2404.14 1431.48C2401.44 1431.48 2399.45 1430.82 2398.2 1429.5 2393.8 1430.89 2389.39 1431.58 2384.99 1431.58L2384.24 1431.58C2373.8 1431.58 2365.91 1427.86 2360.56 1420.44 2359.31 1418.04 2358.17 1415.44 2357.16 1412.61 2356.79 1410.46 2356.51 1408.14 2356.31 1405.62 2356.19 1394.99 2356.13 1386.4 2356.13 1379.85L2356.13 1353.99C2356.13 1351.28 2356.09 1347.54 2356.03 1342.75ZM2180.4 1316.42 2202.38 1316.42C2202.51 1316.42 2202.57 1316.55 2202.57 1316.8L2202.57 1346.72 2230.11 1346.72 2230.11 1359.93C2230.11 1360.13 2230.04 1360.22 2229.92 1360.22L2202.57 1360.22 2202.57 1405.05C2202.69 1412.35 2204.92 1417.17 2209.26 1419.49 2210.59 1420.06 2211.81 1420.35 2212.94 1420.35 2216.34 1420.35 2219.26 1418.46 2221.71 1414.68 2222.66 1412.17 2223.13 1410.06 2223.13 1408.36L2223.04 1408.26 2220.3 1408.26 2220.3 1404.11 2237.84 1404.11C2237.9 1404.68 2237.94 1405.37 2237.94 1406.19L2237.94 1407.32C2237.94 1412.29 2236.33 1417.36 2233.13 1422.51 2227.59 1429.44 2220.24 1432.9 2211.06 1432.9 2202.31 1432.9 2194.61 1429.85 2187.95 1423.74 2182.92 1418.52 2180.4 1412.29 2180.4 1405.05L2180.4 1360.22 2160.97 1360.22 2160.97 1346.72 2180.4 1346.72ZM1956.28 1299.52 1956.85 1299.52C1962.25 1299.52 1968.02 1300.95 1974.11 1303.77 1981.03 1307.61 1986.12 1313.37 1989.4 1321.05 1991.28 1325.95 1992.22 1330.33 1992.22 1334.16 1983.1 1334.67 1978.2 1334.92 1977.51 1334.92 1976.81 1330.52 1976.09 1327.3 1975.34 1325.29 1974.52 1322.9 1973.29 1320.8 1971.66 1318.97 1969.46 1316.7 1967.29 1315.19 1965.15 1314.44 1962.25 1313.37 1959.59 1312.84 1957.14 1312.84 1948.14 1312.84 1940.75 1317.71 1934.96 1327.46 1929.87 1337.34 1927.32 1349.46 1927.32 1363.81 1927.32 1379.54 1930.28 1393.42 1936.19 1405.43 1940.35 1412.98 1945.22 1417.74 1950.81 1419.69 1952.76 1420.19 1954.4 1420.44 1955.72 1420.44 1960.75 1420.44 1965.37 1419.03 1969.59 1416.19 1972.48 1413.61 1974.14 1411.72 1974.58 1410.53 1975.84 1408.58 1976.85 1406.22 1977.6 1403.45L1978.54 1399.96 1992.88 1404.02C1991.63 1408.55 1990.27 1412.04 1988.83 1414.5 1983.93 1422.93 1976.57 1428.65 1966.75 1431.68 1962.1 1433.05 1957.73 1433.75 1953.64 1433.75 1939.56 1433.75 1927.64 1427.71 1917.89 1415.63 1915.31 1411.97 1913.34 1408.73 1911.95 1405.91 1906.16 1394.07 1903.27 1381.49 1903.27 1368.15L1903.27 1366.73C1903.27 1350.25 1907.39 1335.46 1915.63 1322.37 1917.52 1319.41 1920.32 1316.04 1924.02 1312.27 1928.74 1308.18 1932.95 1305.32 1936.67 1303.68 1943.21 1300.91 1949.74 1299.52 1956.28 1299.52ZM2244.36 1298.68 2267.75 1298.68 2267.75 1321.81 2244.36 1321.81ZM2270.01 1175.22C2264.03 1184.09 2255.04 1190.92 2243.03 1195.7 2234.16 1199.1 2225.01 1200.8 2215.58 1200.8 2214.07 1200.73 2213.01 1200.7 2212.38 1200.7 2212.18 1199.95 2211.5 1193.97 2210.3 1182.77L2210.39 1182.77C2210.65 1182.77 2230.52 1180.25 2270.01 1175.22ZM2085.61 1170.69 2085.61 1170.78C2080.38 1182.23 2071.49 1190.57 2058.91 1195.79 2055.76 1197.24 2050.92 1198.66 2044.38 1200.04 2040.24 1200.67 2037.78 1200.99 2037.02 1200.99L2031.84 1183.52C2033.6 1183.21 2051.52 1178.93 2085.61 1170.69ZM2085.98 1081.58C2083.03 1091.27 2079.69 1099.93 2075.98 1107.54 2072.9 1114.02 2068.69 1121.1 2063.34 1128.78 2060.57 1132.74 2057.71 1136.33 2054.76 1139.54L2054.95 1139.54 2086.07 1135.48 2086.07 1081.58ZM2054.01 1037.22C2065.58 1040.55 2072.21 1042.44 2073.9 1042.88 2072.59 1049.81 2071.14 1054.97 2069.57 1058.36 2067.12 1064.78 2064.31 1070.48 2061.17 1075.45 2058.78 1079.41 2055.36 1083.69 2050.89 1088.28 2050.83 1088.28 2050.45 1088.69 2049.76 1089.51L2049.85 1089.51 2060.89 1088.76 2067.87 1069.78C2068.19 1069.85 2074.25 1072.08 2086.07 1076.49L2086.07 1042.98C2086.07 1042.85 2086.11 1042.79 2086.17 1042.79L2109.66 1042.79C2109.84 1042.79 2109.94 1042.85 2109.94 1042.98L2109.94 1169.18C2110 1168.73 2115.19 1153.35 2125.5 1123.02L2111.07 1123.02 2111.07 1110.94 2133.33 1110.94 2133.33 1106.5C2123.02 1107.38 2117.61 1107.82 2117.1 1107.82 2117.1 1107.38 2115.79 1090.08 2113.14 1055.91 2114.4 1056.85 2116.32 1058.55 2118.9 1061.01 2123.68 1066.92 2126.57 1071.39 2127.58 1074.41 2128.96 1076.86 2130.35 1080.42 2131.73 1085.07 2132.36 1086.84 2132.83 1088.72 2133.15 1090.74L2133.33 1090.74 2133.33 1042.22C2133.33 1042.03 2133.39 1041.94 2133.52 1041.94L2153.24 1041.94 2153.24 1091.68 2153.33 1091.68C2157.36 1068.08 2159.46 1055.97 2159.65 1055.34 2161.04 1055.53 2166.97 1056.6 2177.47 1058.55 2177.47 1060 2176.5 1064.59 2174.55 1072.33 2172.54 1078.5 2170.25 1083.82 2167.67 1088.28 2165.59 1091.93 2162.89 1095.62 2159.55 1099.33 2158.17 1100.84 2156.07 1102.79 2153.24 1105.18L2153.24 1110.94 2175.59 1110.94 2175.59 1123.02 2153.24 1123.02 2153.24 1123.87 2178.98 1153.22 2178.98 1153.32C2178.67 1153.44 2173.83 1156.65 2164.46 1162.95 2162.07 1160.62 2159.46 1157.5 2156.63 1153.6L2153.24 1148.88 2153.24 1192.02 2133.52 1192.02C2133.39 1192.02 2133.33 1191.96 2133.33 1191.83L2133.33 1150.39 2133.15 1150.39C2131.13 1154.1 2128.52 1157.94 2125.31 1161.91 2123.55 1164.17 2120.82 1167.04 2117.1 1170.5 2114.02 1172.89 2111.63 1174.56 2109.94 1175.5L2109.94 1196.55 2178.14 1196.55 2178.14 1210.33 2086.07 1210.33 2086.07 1135.95 2085.98 1135.95C2081.39 1144.76 2072.37 1151.68 2058.91 1156.72 2050.48 1159.67 2042.25 1161.15 2034.2 1161.15L2032.21 1142.27C2038.19 1141.58 2041.18 1141.17 2041.18 1141.05 2041.74 1139.22 2045.95 1127.86 2053.81 1106.97L2053.72 1106.97C2046.61 1108.55 2040.7 1109.33 2035.99 1109.33L2035.99 1109.24C2034.73 1097.09 2034.1 1090.8 2034.1 1090.36L2034.2 1090.36C2034.89 1090.36 2036.62 1090.3 2039.39 1090.17 2049.01 1055.18 2053.88 1037.53 2054.01 1037.22ZM2298.12 1036.75 2320.85 1036.75 2320.85 1044.96C2320.85 1047.98 2320.85 1052.13 2320.85 1057.42L2345.37 1057.42 2345.37 1071.2 2320.85 1071.2 2320.85 1078.47C2320.85 1080.67 2320.88 1084.04 2320.94 1088.57L2334.05 1088.57C2334.37 1088.57 2334.65 1087.09 2334.91 1084.13L2335 1084.13C2335.38 1084.26 2342.48 1085.17 2356.31 1086.87L2356.31 1086.96C2356.31 1089.48 2355.25 1093.79 2353.11 1099.89 2351.35 1103.67 2349.15 1107.35 2346.5 1110.94 2341.23 1117.42 2335.47 1121.76 2329.24 1123.96L2329.24 1123.87C2330.51 1114.62 2331.54 1107.44 2332.36 1102.35L2264.82 1102.35 2264.82 1089.7 2264.73 1089.7C2262.65 1095.24 2260.39 1100.15 2257.93 1104.43 2256.74 1107.07 2254.23 1111.5 2250.39 1117.73 2247.25 1122.58 2243.63 1127.52 2239.54 1132.55 2236.71 1136.01 2233.22 1139.7 2229.07 1143.6L2266.99 1138.97C2263.85 1135.26 2262.28 1133.34 2262.28 1133.21 2265.11 1132.9 2267.52 1132.74 2269.54 1132.74 2281.92 1132.74 2292.52 1137.62 2301.33 1147.37 2301.01 1147.75 2297.17 1150.55 2289.82 1155.77 2289.38 1156.28 2289.1 1156.53 2288.97 1156.53L2288.97 1156.62 2302.27 1156.62 2302.27 1125 2288.59 1135.01 2266.33 1108.58C2268.72 1108.14 2271.14 1107.92 2273.6 1107.92 2284.34 1107.92 2293.91 1111.66 2302.27 1119.15L2302.27 1107.63C2302.27 1107.57 2302.3 1107.54 2302.36 1107.54L2325.76 1107.54 2326.04 1107.54C2326.04 1109.24 2326.04 1110.25 2326.04 1110.56 2326.04 1114.96 2325.91 1129.82 2325.66 1155.11 2325.6 1155.74 2325.57 1156.24 2325.57 1156.62L2356.79 1156.62 2356.79 1170.5 2323.02 1170.5C2322.39 1172.76 2321.38 1175.25 2320 1177.95 2343.33 1192.74 2355.03 1200.23 2355.09 1200.42 2347.92 1211.31 2344.21 1216.94 2343.96 1217.31L2343.77 1217.31C2340.19 1215.49 2336.38 1213.07 2332.36 1210.05 2328.64 1206.9 2326.1 1204.38 2324.72 1202.5 2320.57 1197.4 2317.52 1191.52 2315.57 1184.84L2315.38 1184.84C2314.18 1186.92 2311.39 1190.13 2306.98 1194.47 2301.07 1199.38 2296.23 1202.84 2292.46 1204.86 2286.93 1208 2280.89 1210.67 2274.35 1212.88 2270.82 1214.13 2266.7 1215.3 2261.99 1216.37 2256.9 1217.31 2253.13 1217.79 2250.67 1217.79 2250.67 1217.85 2250.61 1217.88 2250.49 1217.88L2250.49 1217.69C2252.44 1216.81 2256.71 1213.73 2263.31 1208.44 2271.49 1201.58 2277.84 1195.76 2282.37 1190.98 2290.17 1182.36 2295.26 1175.53 2297.65 1170.5L2264.82 1170.5 2264.82 1156.62 2281.8 1156.62C2272.49 1145.48 2267.75 1139.88 2267.56 1139.82L2267.46 1139.82C2262.68 1148.32 2253 1155.08 2238.41 1160.11 2229.17 1163.07 2220.43 1164.55 2212.18 1164.55 2210.87 1152.6 2210.21 1146.36 2210.21 1145.86L2218.03 1144.82C2227.59 1122.17 2232.94 1109.49 2234.07 1106.78L2233.98 1106.78C2229.2 1108.04 2222.6 1108.92 2214.17 1109.43L2212 1090.55C2215.58 1090.36 2217.37 1090.17 2217.37 1089.98L2231.91 1037.22 2251.9 1042.88C2251.08 1047.29 2250.01 1051.47 2248.69 1055.44 2244.98 1066.13 2239.79 1075.6 2233.13 1083.85 2231.37 1085.92 2229.51 1087.84 2227.56 1089.61 2236.43 1089.04 2241.14 1088.76 2241.71 1088.76 2244.66 1081.52 2247.34 1075.23 2249.73 1069.88 2251.18 1070.26 2257.62 1072.58 2269.07 1076.86 2268.37 1079.82 2267.27 1083.28 2265.76 1087.25 2265.83 1087.44 2265.86 1087.56 2265.86 1087.62 2265.67 1087.62 2265.45 1087.94 2265.2 1088.57L2298.31 1088.57 2298.31 1088.47C2298.31 1085.26 2298.27 1079.51 2298.21 1071.2L2273.6 1071.2 2273.6 1057.42 2298.21 1057.42C2298.15 1045.71 2298.12 1038.82 2298.12 1036.75Z" fill-rule="evenodd"/></g></svg>