<svg width="803" height="423" xmlns="http://www.w3.org/2000/svg" xmlns:xlink="http://www.w3.org/1999/xlink" xml:space="preserve" overflow="hidden"><g transform="translate(-1060 -1093)"><path d="M1071.5 1173.33C1069.22 1139.25 1101.37 1102.39 1136.5 1108.5 1210.12 1118.91 1277.61 1103.34 1353.17 1108.5 1428.73 1113.66 1459.92 1112.71 1563.33 1108.5 1666.74 1104.29 1740.48 1105.73 1786.5 1108.5 1823.73 1107.78 1852.72 1137.09 1851.5 1173.33 1850.66 1201.5 1856.11 1253.11 1851.5 1308.19 1846.89 1363.26 1849.89 1402.39 1851.5 1432.67 1851.45 1467.03 1821.1 1496.56 1786.5 1497.5 1695.51 1507.91 1646.81 1490.4 1576.33 1497.5 1505.86 1504.6 1401.88 1492.05 1346.67 1497.5 1291.46 1502.95 1240.74 1491.63 1136.5 1497.5 1105.32 1500.73 1063.97 1466.09 1071.5 1432.67 1077.02 1385.79 1064.77 1343.26 1071.5 1297.81 1078.23 1252.37 1072.44 1229.5 1071.5 1173.33Z" fill="#B4C7E7" fill-rule="evenodd"/><path d="M1071.5 1173.33C1073.06 1131.9 1104.22 1109.51 1136.5 1108.5 1205.75 1102.52 1283.83 1102.86 1359.67 1108.5 1435.51 1114.14 1494.04 1109.98 1569.83 1108.5 1645.63 1107.02 1706.51 1099.93 1786.5 1108.5 1820.58 1108.12 1858.19 1138.65 1851.5 1173.33 1846.13 1231.74 1852 1261.51 1851.5 1305.59 1851 1349.68 1849.88 1386.39 1851.5 1432.67 1852.89 1465.82 1824.13 1496.68 1786.5 1497.5 1733.45 1488.05 1621.24 1486.12 1556.83 1497.5 1492.43 1508.88 1402.08 1506.81 1353.17 1497.5 1304.25 1488.19 1206.27 1507.89 1136.5 1497.5 1105.19 1497.99 1071.71 1467.38 1071.5 1432.67 1075.6 1390.94 1069.1 1366.76 1071.5 1308.19 1073.9 1249.61 1068.48 1230.16 1071.5 1173.33Z" stroke="#8FAADC" stroke-width="20.625" stroke-miterlimit="8" fill="none" fill-rule="evenodd"/><path d="M1698.29 1383.07C1694.15 1383.07 1690.74 1385.57 1688.09 1390.57 1687.41 1391.89 1686.73 1393.67 1686.06 1395.9 1686.01 1396.15 1685.99 1396.32 1685.99 1396.4L1711 1396.4 1711 1396.34C1711 1395.18 1710.37 1393.03 1709.11 1389.89 1706.76 1385.34 1703.16 1383.07 1698.29 1383.07ZM1564 1381.08C1560.08 1381.08 1557.33 1385.07 1555.75 1393.05 1555.39 1395.53 1555.21 1398.01 1555.21 1400.49L1555.21 1401.3C1555.21 1408.7 1556.66 1414.65 1559.54 1419.16 1561.03 1420.94 1562.6 1421.83 1564.27 1421.83 1567.74 1421.83 1570.31 1417.94 1571.98 1410.17 1572.34 1407.19 1572.52 1404.3 1572.52 1401.49L1572.52 1401.24C1572.52 1394.33 1571.41 1388.75 1569.2 1384.49 1567.63 1382.22 1565.89 1381.08 1564 1381.08ZM1295.82 1381.08C1291.9 1381.08 1289.15 1385.07 1287.58 1393.05 1287.22 1395.53 1287.04 1398.01 1287.04 1400.49L1287.04 1401.3C1287.04 1408.7 1288.48 1414.65 1291.36 1419.16 1292.85 1420.94 1294.43 1421.83 1296.09 1421.83 1299.56 1421.83 1302.13 1417.94 1303.8 1410.17 1304.16 1407.19 1304.34 1404.3 1304.34 1401.49L1304.34 1401.24C1304.34 1394.33 1303.23 1388.75 1301.03 1384.49 1299.45 1382.22 1297.71 1381.08 1295.82 1381.08ZM1638.01 1380.71C1630.57 1380.71 1624.6 1383.46 1620.1 1388.96 1617.3 1392.89 1615.91 1397.06 1615.91 1401.49 1615.91 1407.48 1618.38 1412.51 1623.34 1416.56 1623.43 1416.56 1623.84 1416.85 1624.56 1417.43 1628.61 1419.78 1633 1420.96 1637.73 1420.96L1638.01 1420.96C1639.18 1420.96 1640.37 1420.88 1641.59 1420.71L1641.59 1380.89C1640.73 1380.77 1639.54 1380.71 1638.01 1380.71ZM1365.5 1380.71C1358.07 1380.71 1352.1 1383.46 1347.59 1388.96 1344.8 1392.89 1343.4 1397.06 1343.4 1401.49 1343.4 1407.48 1345.88 1412.51 1350.84 1416.56 1350.93 1416.56 1351.33 1416.85 1352.05 1417.43 1356.11 1419.78 1360.5 1420.96 1365.23 1420.96L1365.5 1420.96C1366.67 1420.96 1367.87 1420.88 1369.08 1420.71L1369.08 1380.89C1368.23 1380.77 1367.03 1380.71 1365.5 1380.71ZM1563.73 1372.27 1564.41 1372.27C1571.03 1372.27 1576.71 1374.71 1581.44 1379.59 1582.88 1381.33 1584.1 1383.11 1585.09 1384.93 1587.79 1389.93 1589.14 1395.37 1589.14 1401.24L1589.14 1401.73C1589.14 1409.09 1587.09 1415.65 1582.99 1421.39 1578.17 1427.51 1571.95 1430.57 1564.34 1430.57L1563.86 1430.57C1555.26 1430.57 1548.43 1426.85 1543.39 1419.41 1540.05 1413.91 1538.39 1407.96 1538.39 1401.55L1538.39 1400.93C1538.39 1393.36 1540.64 1386.68 1545.14 1380.89 1550.01 1375.15 1556.2 1372.27 1563.73 1372.27ZM1295.55 1372.27 1296.23 1372.27C1302.85 1372.27 1308.53 1374.71 1313.26 1379.59 1314.7 1381.33 1315.92 1383.11 1316.91 1384.93 1319.61 1389.93 1320.96 1395.37 1320.96 1401.24L1320.96 1401.73C1320.96 1409.09 1318.91 1415.65 1314.81 1421.39 1309.99 1427.51 1303.77 1430.57 1296.16 1430.57L1295.69 1430.57C1287.08 1430.57 1280.26 1426.85 1275.21 1419.41 1271.87 1413.91 1270.21 1407.96 1270.21 1401.55L1270.21 1400.93C1270.21 1393.36 1272.46 1386.68 1276.97 1380.89 1281.83 1375.15 1288.03 1372.27 1295.55 1372.27ZM1695.11 1372.21 1695.25 1372.21C1704.89 1372.21 1712.08 1375.48 1716.81 1382.01 1719.6 1386.23 1721 1391.11 1721 1396.65 1721 1399.38 1720.62 1402.23 1719.85 1405.21 1716.07 1405.21 1713.11 1405.21 1711 1405.21L1685.52 1405.21 1685.52 1405.27C1685.52 1407.58 1686.22 1410.42 1687.61 1413.77 1690.14 1418.36 1693.79 1420.65 1698.56 1420.65L1699.31 1420.65C1704.62 1420.65 1708.56 1418.83 1711.13 1415.19 1711.54 1414.24 1712.26 1412.57 1713.3 1410.17 1713.39 1410.17 1714.49 1410.46 1716.61 1411.04 1715.44 1413.85 1714.85 1415.36 1714.85 1415.56L1719.65 1417.86C1718.93 1419.39 1717.94 1420.98 1716.67 1422.63 1713.7 1425.9 1710.21 1428.11 1706.2 1429.27 1703.54 1430.14 1700.93 1430.57 1698.36 1430.57L1697.01 1430.57C1692.73 1430.57 1688.49 1429.66 1684.3 1427.84 1678.26 1425.16 1673.78 1420.53 1670.85 1413.95 1669.05 1409.94 1668.15 1405.72 1668.15 1401.3L1668.15 1400.68C1668.15 1393.44 1670.47 1386.95 1675.11 1381.2 1680.38 1375.21 1687.05 1372.21 1695.11 1372.21ZM1641.59 1343.74 1657.74 1343.74 1657.74 1420.96 1663.15 1420.96 1663.15 1423.75 1660.38 1423.75 1660.38 1432 1650.51 1432C1645.87 1432 1643.07 1430.68 1642.13 1428.03 1641.99 1427.12 1641.86 1426.67 1641.72 1426.67 1638.79 1427.87 1635.08 1428.46 1630.57 1428.46L1629.9 1428.46C1620.97 1428.46 1613.54 1425.9 1607.59 1420.77 1604.35 1417.67 1602.12 1414.47 1600.9 1411.16 1599.59 1407.98 1598.94 1404.75 1598.94 1401.49L1598.94 1400.8C1598.94 1394.44 1601.24 1388.54 1605.84 1383.13 1611.92 1376.8 1619.94 1373.64 1629.9 1373.64 1633.68 1373.64 1637.58 1374.09 1641.59 1375ZM1369.08 1343.74 1385.24 1343.74 1385.24 1420.96 1390.64 1420.96 1390.64 1423.75 1387.87 1423.75 1387.87 1432 1378.01 1432C1373.36 1432 1370.57 1430.68 1369.62 1428.03 1369.49 1427.12 1369.35 1426.67 1369.22 1426.67 1366.29 1427.87 1362.57 1428.46 1358.07 1428.46L1357.39 1428.46C1348.47 1428.46 1341.04 1425.9 1335.09 1420.77 1331.84 1417.67 1329.61 1414.47 1328.4 1411.16 1327.09 1407.98 1326.44 1404.75 1326.44 1401.49L1326.44 1400.8C1326.44 1394.44 1328.74 1388.54 1333.33 1383.13 1339.41 1376.8 1347.43 1373.64 1357.39 1373.64 1361.18 1373.64 1365.07 1374.09 1369.08 1375ZM1239.05 1343.62C1242.2 1343.83 1244.8 1344.24 1246.82 1344.86 1252.68 1346.64 1257.1 1349.39 1260.07 1353.11 1263.04 1356.83 1264.53 1361.13 1264.53 1366.01L1264.53 1366.51 1253.92 1366.94C1253.29 1363.14 1252.59 1360.43 1251.82 1358.82 1250.52 1356.25 1248.62 1354.52 1246.15 1353.61 1244.07 1352.82 1241.66 1352.43 1238.92 1352.43 1230.76 1352.43 1224.52 1357.12 1220.19 1366.51 1217.67 1372.54 1216.41 1379.16 1216.41 1386.35 1216.41 1396.15 1218.62 1404.79 1223.03 1412.28 1227.72 1419.47 1233.71 1423.07 1241.01 1423.07 1244.25 1423.07 1246.67 1421.97 1248.24 1419.78 1248.47 1419.37 1248.58 1419.04 1248.58 1418.79L1248.58 1401.98C1247.86 1402.02 1247.25 1402.04 1246.76 1402.04L1237.83 1402.04 1237.83 1405.77 1234.66 1405.77 1234.45 1405.7C1234.54 1404.88 1234.59 1404.3 1234.59 1403.97L1234.59 1393.24 1260.61 1393.24C1262.46 1393.24 1263.79 1394.19 1264.6 1396.09 1264.64 1396.46 1264.67 1396.85 1264.67 1397.27L1264.67 1418.91C1262.95 1422.8 1259.71 1425.98 1254.93 1428.46 1253.18 1429.42 1251.24 1430.16 1249.12 1430.7 1245.88 1431.57 1242.97 1432 1240.4 1432 1229.09 1432 1219.61 1427.7 1211.95 1419.1 1209.7 1416.29 1207.87 1413.5 1206.47 1410.73 1202.82 1403.2 1201 1395.22 1201 1386.79 1201 1376.28 1203.77 1366.9 1209.31 1358.63 1210.71 1356.69 1212.58 1354.6 1214.92 1352.36 1217.9 1350.05 1220.04 1348.6 1221.34 1348.02 1226.89 1345.09 1232.79 1343.62 1239.05 1343.62ZM1490.4 1343.56C1495.76 1378.7 1498.56 1397.23 1498.78 1399.13L1498.85 1399.13C1504.84 1364.85 1508.08 1346.33 1508.58 1343.56L1528.59 1343.56C1528.59 1343.56 1528.59 1343.64 1528.59 1343.81 1528.59 1344.18 1529.6 1365 1531.63 1406.26 1532.21 1418.05 1532.53 1424.72 1532.57 1426.29 1532.57 1429.11 1531.36 1430.93 1528.92 1431.75 1528.16 1431.92 1527.32 1432 1526.42 1432L1517.64 1432 1514.8 1368.37 1514.73 1368.37C1514.69 1368.86 1510.95 1390.07 1503.51 1432L1492.49 1432C1489.75 1432 1487.85 1430.66 1486.82 1427.97 1485.83 1425.07 1485.33 1423.03 1485.33 1421.83 1482.9 1405.21 1480.51 1388.67 1478.17 1372.21L1478.1 1372.21C1478.1 1372.96 1477.2 1392.89 1475.4 1432L1464.85 1432C1464.85 1431.59 1465.78 1410.21 1467.62 1367.87L1468.77 1343.68 1468.84 1343.68C1471.05 1343.68 1478.23 1343.64 1490.4 1343.56ZM1380.51 1264.42 1380.51 1280.23 1418.56 1280.23C1418.47 1279.61 1418.42 1279.18 1418.42 1278.93L1418.42 1264.42ZM1380.51 1239.55 1380.51 1255.3 1418.42 1255.3 1418.42 1245.13C1422.34 1243.06 1424.46 1241.93 1424.77 1241.72L1424.77 1239.55ZM1527.44 1230.87 1527.44 1239.98 1552.92 1239.98 1552.92 1230.87ZM1606.92 1216.54 1653.62 1216.54 1653.62 1225.66 1639.42 1225.66 1639.42 1260.14 1639.49 1260.14 1657.2 1255.3C1650.67 1266.55 1640.19 1274.51 1625.77 1279.18 1622.44 1280.26 1618.63 1281.12 1614.35 1281.79 1611.15 1282.24 1609.24 1282.47 1608.61 1282.47L1608.61 1282.41C1605.77 1274.14 1604.35 1269.96 1604.35 1269.88L1621.31 1265.23C1622.03 1265.06 1622.39 1264.92 1622.39 1264.79L1622.39 1225.66 1606.98 1225.66C1606.94 1225.66 1606.92 1225.61 1606.92 1225.53ZM1527.44 1212.63 1527.44 1221.75 1552.92 1221.75 1552.92 1217.41C1553.05 1217.28 1555.01 1216.27 1558.8 1214.37 1559.34 1214.08 1559.61 1213.89 1559.61 1213.81L1559.61 1212.63ZM1680.31 1174.49C1681.98 1174.61 1684.48 1175.42 1687.82 1176.91 1693.31 1179.84 1697.23 1184.06 1699.58 1189.56 1700.07 1190.55 1700.5 1191.73 1700.86 1193.09 1700.5 1193.09 1695.43 1194.05 1685.65 1195.95ZM1379.7 1173.31 1396.66 1173.31 1396.66 1186.21 1416.87 1186.21 1416.87 1195.33 1396.66 1195.33 1396.66 1208.72 1400.38 1208.72C1402.36 1207.32 1414.46 1198.28 1436.67 1181.62L1436.74 1181.62C1437.01 1181.83 1438.7 1183.32 1441.81 1186.09 1444.91 1188.82 1446.6 1190.37 1446.87 1190.74 1445.84 1192.43 1442.59 1195.64 1437.14 1200.35 1433.13 1203.53 1429.42 1206.33 1425.99 1208.72L1450.05 1208.72 1450.05 1217.84 1412.2 1217.84C1404.9 1222.35 1397.79 1226.54 1390.85 1230.43L1418.42 1230.43 1418.42 1228.26C1418.42 1228.18 1418.49 1228.14 1418.62 1228.14L1435.39 1228.14C1435.43 1229.05 1435.45 1229.58 1435.45 1229.75 1435.45 1239.88 1435.43 1255.82 1435.39 1277.57 1435.43 1279.47 1435.45 1280.63 1435.45 1281.04 1435.45 1285.13 1433.85 1287.62 1430.65 1288.48 1429.03 1289.06 1424.62 1289.35 1417.41 1289.35L1363.47 1289.35 1363.47 1243.83 1363.41 1243.83C1358.27 1245.98 1353.63 1247.67 1349.48 1248.91 1348.18 1249.33 1346.87 1249.66 1345.56 1249.91L1388.28 1217.84 1345.5 1217.84 1345.5 1208.72 1379.7 1208.72 1379.7 1195.33 1353.88 1195.33 1353.88 1186.21 1379.63 1186.21C1379.67 1186.21 1379.7 1186.19 1379.7 1186.15ZM1517.16 1173.06 1534.67 1173.06C1534.71 1173.06 1534.74 1173.08 1534.74 1173.12L1534.74 1180.69 1545.68 1180.69 1545.68 1173.12C1545.68 1173.08 1545.73 1173.06 1545.82 1173.06L1563.26 1173.06C1563.35 1173.06 1563.39 1173.08 1563.39 1173.12L1563.39 1180.69 1574.54 1180.69C1574.72 1180.69 1574.81 1180.73 1574.81 1180.81L1574.81 1189.81 1563.39 1189.81 1563.39 1196.38C1563.39 1196.46 1563.35 1196.51 1563.26 1196.51L1545.82 1196.51C1545.73 1196.51 1545.68 1196.46 1545.68 1196.38L1545.68 1189.81 1534.74 1189.81 1534.74 1196.38C1534.74 1196.46 1534.71 1196.51 1534.67 1196.51L1517.16 1196.51C1517.07 1196.51 1517.03 1196.46 1517.03 1196.38L1517.03 1189.81 1505.61 1189.81 1505.61 1180.81C1505.61 1180.73 1505.67 1180.69 1505.81 1180.69L1517.03 1180.69 1517.03 1173.12C1517.03 1173.08 1517.07 1173.06 1517.16 1173.06ZM1482.22 1173.06 1499.19 1173.06 1499.19 1195.14 1508.72 1195.14 1508.72 1204.26 1499.19 1204.26 1499.19 1210.52 1509.73 1222.18 1509.8 1222.18 1509.8 1201.03 1527.44 1201.03 1527.44 1203.51 1552.92 1203.51 1552.92 1201.16 1570.62 1201.16 1570.62 1240.79C1570.62 1244.55 1569.11 1246.97 1566.1 1248.05 1564.07 1248.75 1561.32 1249.1 1557.85 1249.1L1550.48 1249.1 1550.48 1250.84C1550.48 1251.62 1550.46 1252.92 1550.42 1254.74L1574.68 1254.74 1574.68 1263.86 1551.9 1263.86C1552.4 1264.32 1559.2 1269.51 1572.31 1279.43L1577.65 1283.52 1568.06 1293.13C1565.31 1291.94 1562.47 1290.28 1559.54 1288.17 1557.02 1286.35 1555.03 1284.72 1553.59 1283.27 1551.02 1280.63 1548.77 1277.82 1546.83 1274.84 1546.2 1273.64 1545.84 1273.02 1545.75 1272.98 1541.79 1279.26 1534.4 1284.04 1523.58 1287.3 1518.36 1288.92 1511.6 1290.34 1503.31 1291.58 1503.13 1291.58 1502.9 1291.63 1502.63 1291.71 1505.47 1289.97 1508.33 1288.19 1511.22 1286.37 1513.74 1284.72 1516.71 1282.49 1520.14 1279.68 1520.14 1279.59 1520.88 1278.89 1522.37 1277.57 1525.93 1274.01 1528.29 1271.1 1529.46 1268.82 1530.46 1267.33 1531.22 1265.68 1531.76 1263.86L1505.81 1263.86C1505.67 1263.86 1505.61 1263.84 1505.61 1263.8L1505.61 1254.93C1505.61 1254.81 1505.67 1254.74 1505.81 1254.74L1532.84 1254.74 1532.84 1249.1 1509.8 1249.1 1509.8 1231.49 1502.7 1236.2 1502.63 1236.2 1499.19 1231.73 1499.19 1291.4 1482.29 1291.4C1482.24 1291.4 1482.22 1291.34 1482.22 1291.21L1482.22 1253.19 1482.09 1253.19C1479.11 1262.04 1475.98 1268.97 1472.69 1273.97 1471.57 1275.79 1470.24 1277.46 1468.7 1278.99L1468.7 1278.93C1474.34 1233.24 1477.2 1210.11 1477.29 1209.53 1477.33 1209.32 1477.58 1207.57 1478.03 1204.26L1470.33 1204.26C1470.19 1204.26 1470.12 1204.2 1470.12 1204.07L1470.12 1195.14 1482.22 1195.14ZM1238.24 1173.06 1255.2 1173.06C1255.2 1173.72 1255.2 1174.2 1255.2 1174.49 1255.2 1183.67 1255.23 1196.07 1255.27 1211.7 1256.31 1211 1267.17 1202.56 1287.85 1186.4 1294.61 1181.15 1298.28 1178.29 1298.86 1177.84 1299.13 1178 1303.23 1181.25 1311.16 1187.57 1310.04 1188.98 1307.22 1191.56 1302.72 1195.33 1296.81 1199.75 1291.25 1203.29 1286.02 1205.93 1280.07 1208.87 1274.24 1211.23 1268.52 1213 1264.96 1214.2 1261.42 1215.11 1257.91 1215.73 1256.1 1215.98 1255.2 1216.17 1255.2 1216.29L1255.2 1220.57 1320.36 1220.57 1320.36 1229.81 1266.9 1229.81 1310.22 1273.6C1315.67 1279.06 1318.51 1281.95 1318.73 1282.28 1310.98 1287.95 1307.02 1290.8 1306.84 1290.84 1304.72 1289.43 1301.86 1287.08 1298.26 1283.77 1291.45 1276.99 1286.34 1271.39 1282.91 1266.96 1276.88 1259.35 1272.05 1252.01 1268.45 1244.94 1266.47 1241.31 1264.58 1236.74 1262.77 1231.24 1262.55 1230.29 1262.39 1229.81 1262.3 1229.81L1255.2 1229.81 1255.2 1263.92C1255.2 1267.81 1255.2 1273.7 1255.2 1281.6L1263.31 1281.6 1263.31 1284.95C1263.31 1285.03 1263.29 1285.07 1263.25 1285.07L1259.33 1285.07 1259.33 1291.46 1247.03 1291.46C1243.78 1291.46 1241.19 1290.08 1239.25 1287.3 1238.58 1286.06 1238.24 1284.82 1238.24 1283.58L1238.24 1229.81 1215.73 1229.81 1215.73 1220.57 1238.24 1220.57ZM1658.96 1173 1673.69 1173 1673.69 1196.51 1703.9 1196.51 1703.9 1205.44C1703.9 1205.56 1703.86 1205.62 1703.77 1205.62L1673.69 1205.62 1673.69 1212.01C1673.69 1226.15 1676.24 1240.85 1681.33 1256.11 1684.03 1263.14 1686.82 1268.64 1689.71 1272.61 1690.79 1274.18 1692.37 1275.89 1694.44 1277.75 1696.02 1278.91 1697.28 1279.72 1698.22 1280.17L1698.36 1280.17C1698.54 1279.92 1700.03 1278.19 1702.82 1274.96L1703.23 1274.4C1705.48 1275.69 1706.6 1276.35 1706.6 1276.39 1706.6 1276.39 1702.57 1281.41 1694.51 1291.46 1687.48 1289.48 1681.49 1285.24 1676.53 1278.75 1673.6 1274.78 1670.94 1269.92 1668.55 1264.17 1666.75 1260.16 1664.93 1254.17 1663.08 1246.18 1660.47 1233.37 1659.16 1221.77 1659.16 1211.39L1659.16 1205.62 1599.28 1205.62 1599.28 1196.51 1658.96 1196.51Z" fill-rule="evenodd"/></g></svg>