<svg width="4398" height="2263" xmlns="http://www.w3.org/2000/svg" xmlns:xlink="http://www.w3.org/1999/xlink" xml:space="preserve" overflow="hidden"><g transform="translate(-1 -106)"><path d="M62.2031 534.195C49.6944 351.651 226.079 154.212 418.813 186.939 822.713 242.7 1192.98 159.301 1607.52 186.939 2022.06 214.58 2193.19 209.49 2760.52 186.939 3327.87 164.392 3732.42 172.102 3984.91 186.939 4189.17 183.085 4348.21 340.08 4341.51 534.195 4336.9 685.085 4366.81 961.531 4341.51 1256.56 4316.21 1551.53 4332.68 1761.14 4341.51 1923.33 4341.24 2107.37 4174.74 2265.53 3984.91 2270.58 3485.7 2326.34 3218.53 2232.54 2831.86 2270.58 2445.24 2308.6 1874.77 2241.4 1571.88 2270.58 1268.96 2299.77 990.702 2239.13 418.813 2270.58 247.75 2287.88 20.8924 2102.32 62.2031 1923.33 92.4892 1672.23 25.2816 1444.4 62.2031 1200.97 99.1269 957.567 67.3592 835.065 62.2031 534.195Z" fill="#B4C7E7" fill-rule="evenodd"/><path d="M61.965 532.953C70.5223 310.689 241.403 190.572 418.428 185.156 798.199 153.075 1226.4 154.898 1642.3 185.156 2058.2 215.414 2379.2 193.094 2794.82 185.156 3210.53 177.216 3544.39 139.178 3983.04 185.156 4169.95 183.117 4376.21 346.901 4339.52 532.953 4310.06 846.308 4342.25 1006.02 4339.52 1242.51 4336.76 1479.04 4330.64 1675.97 4339.52 1924.25 4347.14 2102.1 4189.42 2267.66 3983.04 2272.05 3692.11 2221.34 3076.76 2210.99 2723.54 2272.05 2370.37 2333.1 1874.89 2321.99 1606.66 2272.05 1338.38 2222.11 801.049 2327.78 418.428 2272.05 246.722 2274.67 63.1152 2110.45 61.965 1924.25 84.4509 1700.39 48.8033 1570.66 61.965 1256.44 75.1267 942.175 45.4043 837.833 61.965 532.953Z" stroke="#8FAADC" stroke-width="110.335" stroke-miterlimit="8" fill="none" fill-rule="evenodd"/><path d="M2787.4 1722.45C2764.66 1722.45 2745.99 1737.4 2731.41 1767.31 2727.7 1775.22 2723.99 1785.85 2720.28 1799.2 2720.04 1800.68 2719.91 1801.67 2719.91 1802.17L2857.12 1802.17 2857.12 1801.8C2857.12 1794.87 2853.66 1782.02 2846.73 1763.23 2833.88 1736.04 2814.1 1722.45 2787.4 1722.45ZM2020.29 1710.58C1998.79 1710.58 1983.71 1734.44 1975.05 1782.14 1973.07 1796.98 1972.09 1811.81 1972.09 1826.64L1972.09 1831.46C1972.09 1875.71 1980 1911.3 1995.82 1938.25 2003.98 1948.88 2012.63 1954.19 2021.78 1954.19 2040.81 1954.19 2054.9 1930.95 2064.05 1884.48 2066.03 1866.68 2067.02 1849.38 2067.02 1832.57L2067.02 1831.09C2067.02 1789.81 2060.96 1756.44 2048.85 1730.97 2040.19 1717.38 2030.68 1710.58 2020.29 1710.58ZM2196.27 1657.93 2284.9 1657.93 2284.9 1674.24 2285.27 1674.24C2295.65 1666.58 2308.76 1662.75 2324.58 1662.75L2326.8 1662.75C2352.26 1662.75 2376.24 1670.41 2398.74 1685.74 2407.39 1692.91 2413.7 1699.09 2417.65 1704.28 2417.65 1699.33 2419.63 1693.52 2423.59 1686.85 2433.72 1670.78 2450.53 1662.75 2474.02 1662.75L2476.24 1662.75C2503.19 1662.75 2528.16 1671.28 2551.15 1688.33 2572.66 1706.63 2583.41 1728.5 2583.41 1753.96L2583.41 2006.47 2502.2 2006.47 2502.2 1784.74C2502.2 1744.2 2495.77 1719.73 2482.92 1711.32 2476.74 1706.13 2469.07 1703.54 2459.93 1703.54L2456.96 1703.54C2443.61 1703.54 2434.22 1710.33 2428.78 1723.93 2432.73 1734.06 2434.71 1744.45 2434.71 1755.08L2434.71 2006.47 2353.13 2006.47 2353.13 1785.48C2353.13 1750.87 2348.8 1728.13 2340.15 1717.26 2332.49 1708.11 2322.72 1703.54 2310.86 1703.54L2307.89 1703.54C2299.24 1703.54 2291.94 1706.5 2286.01 1712.43 2285.27 1713.18 2284.9 1714.17 2284.9 1715.4L2284.9 2006.47 2225.57 2006.47C2212.46 2006.47 2203.69 2001.78 2199.24 1992.38 2197.75 1989.66 2196.77 1985.58 2196.27 1980.15 2196.02 1947.52 2195.9 1924.4 2195.9 1910.81 2195.9 1852.96 2196.02 1768.67 2196.27 1657.93ZM2018.81 1657.93 2022.52 1657.93C2058.86 1657.93 2090.01 1672.51 2115.97 1701.68 2123.88 1712.06 2130.55 1722.69 2135.99 1733.57 2150.82 1763.48 2158.24 1795.99 2158.24 1831.09L2158.24 1834.05C2158.24 1878.05 2146.99 1917.23 2124.49 1951.59 2098.04 1988.18 2063.93 2006.47 2022.15 2006.47L2019.55 2006.47C1972.33 2006.47 1934.88 1984.22 1907.19 1939.73 1888.9 1906.85 1879.75 1871.26 1879.75 1832.94L1879.75 1829.23C1879.75 1784 1892.11 1744.08 1916.83 1709.47 1943.53 1675.11 1977.52 1657.93 2018.81 1657.93ZM2769.97 1657.56 2770.72 1657.56C2823.62 1657.56 2863.05 1677.09 2889.01 1716.14 2904.34 1741.36 2912 1770.53 2912 1803.65 2912 1819.96 2909.9 1837.02 2905.7 1854.82 2884.93 1854.82 2868.74 1854.82 2857.12 1854.82L2717.32 1854.82 2717.32 1855.19C2717.32 1869.03 2721.15 1885.97 2728.81 1905.99 2742.66 1933.43 2762.68 1947.15 2788.89 1947.15L2792.97 1947.15C2822.14 1947.15 2843.77 1936.27 2857.86 1914.52 2860.08 1908.83 2864.04 1898.82 2869.73 1884.48 2870.22 1884.48 2876.28 1886.21 2887.9 1889.67 2881.47 1906.48 2878.25 1915.5 2878.25 1916.74L2904.58 1930.46C2900.63 1939.61 2895.19 1949.12 2888.27 1959.01 2871.95 1978.54 2852.79 1991.76 2830.79 1998.69 2816.2 2003.88 2801.87 2006.47 2787.77 2006.47L2780.36 2006.47C2756.87 2006.47 2733.63 2001.03 2710.64 1990.16 2677.52 1974.09 2652.92 1946.4 2636.85 1907.1 2626.96 1883.12 2622.02 1857.91 2622.02 1831.46L2622.02 1827.75C2622.02 1784.49 2634.75 1745.68 2660.21 1711.32 2689.14 1675.48 2725.72 1657.56 2769.97 1657.56ZM1488 1486.25 1576.26 1486.25C1576.5 1486.25 1576.63 1486.5 1576.63 1486.99L1576.63 1709.47 1753.51 1709.47 1753.51 1486.62 1842.14 1486.62 1842.14 2015 1753.51 2015 1753.51 1788.08C1753.76 1787.33 1763.4 1784 1782.43 1778.06 1783.18 1777.82 1784.04 1777.69 1785.03 1777.69L1785.03 1762.86C1785.03 1762.62 1784.66 1762.49 1783.92 1762.49L1576.63 1762.49 1576.63 2015 1488 2015ZM2472.02 711.767 2565.09 711.767C2564.6 829.678 2563.61 888.633 2562.13 888.633 2562.13 896.296 2559.04 914.094 2552.86 942.027 2696.74 1052.77 2769.54 1109.13 2771.27 1111.11 2756.93 1127.18 2741.23 1144.85 2724.18 1164.13L2723.81 1164.13C2707.49 1154.98 2684 1137.31 2653.35 1111.11 2626.16 1085.65 2608.48 1067.48 2600.32 1056.6 2572.88 1023.48 2554.59 993.567 2545.44 966.87L2545.07 966.87C2545.07 970.825 2538.89 985.41 2526.53 1010.62 2518.86 1024.96 2508.23 1040.29 2494.64 1056.6 2478.32 1074.65 2462 1089.23 2445.69 1100.35 2426.41 1113.46 2408.98 1123.22 2393.4 1129.65 2376.1 1138.05 2353.11 1145.84 2324.43 1153.01 2287.84 1161.16 2257.31 1165.24 2232.84 1165.24L2232.46 1165.24 2232.46 1164.87C2254.71 1157.7 2285.25 1140.4 2324.06 1112.96 2335.68 1104.31 2352.12 1090.34 2373.38 1071.06 2373.38 1070.57 2375.85 1067.97 2380.79 1063.28 2399.58 1043.01 2413.55 1025.7 2422.7 1011.37 2432.59 996.533 2441.36 980.713 2449.03 963.904 2464.35 928.555 2472.02 889.128 2472.02 845.622ZM2226.16 484.101 2799.82 484.101 2799.82 538.607 2569.91 538.607C2569.42 538.607 2567.81 543.304 2565.09 552.697 2559.16 568.765 2552.24 582.114 2544.33 592.743 2539.38 598.428 2534.19 604.114 2528.75 609.799L2650.75 609.799 2650.75 596.822 2743.46 596.822C2744.2 596.822 2744.57 597.069 2744.57 597.563L2744.57 941.286C2744.57 958.095 2741.98 968.971 2736.78 973.915 2733.32 980.59 2726.15 985.904 2715.28 989.859 2711.57 990.848 2708.11 991.342 2704.89 991.342L2650.75 991.342 2650.75 663.935 2375.23 663.935 2375.23 991.342 2281.78 991.342 2281.78 597.193C2281.78 596.698 2282.03 596.451 2282.53 596.451L2375.23 596.451 2375.23 609.799 2476.1 609.799C2477.33 609.799 2478.82 603.249 2480.55 590.148 2481.53 588.17 2485.49 570.99 2492.41 538.607L2226.16 538.607ZM1732.42 460C1782.11 460 1826.37 473.349 1865.18 500.046 1870.37 503.753 1877.66 510.057 1887.06 518.956 1895.96 528.596 1902.01 536.136 1905.23 541.574 1883.97 555.911 1862.95 570.496 1842.19 585.327L2056.52 585.327 2056.52 639.833 1858.5 639.833 1858.5 640.204C1858.5 662.204 1858.75 727.216 1859.24 835.24L2023.15 835.24 2023.15 890.117 1859.62 890.117 1861.1 1085.15 2098.8 1085.15 2098.8 1139.66C2098.8 1139.91 2098.43 1140.03 2097.68 1140.03L1525.87 1140.03C1525.38 1140.03 1525.13 1139.91 1525.13 1139.66L1525.13 1085.15 1766.91 1085.15 1765.43 890.117 1602.26 890.117 1602.26 835.611C1602.26 835.363 1602.39 835.24 1602.63 835.24L1765.06 835.24C1764.81 731.666 1764.68 670.609 1764.68 652.069L1764.31 639.833 1569.26 639.833C1568.52 639.833 1568.15 639.586 1568.15 639.092L1568.15 585.327 1809.18 585.327 1809.18 584.956C1736.75 503.63 1700.53 462.843 1700.53 462.595 1711.16 460.865 1721.79 460 1732.42 460Z" fill-rule="evenodd"/></g></svg>