<svg width="1352" height="694" xmlns="http://www.w3.org/2000/svg" xmlns:xlink="http://www.w3.org/1999/xlink" xml:space="preserve" overflow="hidden"><g transform="translate(-1530 -890)"><path d="M1549.71 1020.98C1545.86 964.811 1600 904.075 1659.15 914.134 1783.11 931.279 1896.75 905.636 2023.98 914.134 2151.2 922.633 2203.72 921.071 2377.84 914.134 2551.95 907.198 2676.11 909.565 2753.6 914.134 2816.29 912.951 2865.11 961.26 2863.05 1020.98 2861.63 1067.4 2870.81 1152.44 2863.05 1243.2 2855.29 1333.97 2860.34 1398.44 2863.05 1448.35 2862.96 1504.97 2811.87 1553.64 2753.6 1555.18 2600.39 1572.32 2518.4 1543.48 2399.73 1555.18 2281.07 1566.89 2105.99 1546.21 2013.03 1555.18 1920.07 1564.16 1834.67 1545.5 1659.15 1555.18 1606.65 1560.51 1537.03 1503.43 1549.71 1448.35 1559 1371.09 1538.37 1301 1549.71 1226.12 1561.04 1151.22 1551.28 1113.53 1549.71 1020.98Z" fill="#C5E0B4" fill-rule="evenodd"/><path d="M1548.79 1021.44C1551.43 953.372 1603.92 916.584 1658.3 914.93 1774.97 905.114 1906.52 905.671 2034.28 914.93 2162.04 924.188 2260.67 917.355 2388.36 914.93 2516.06 912.504 2618.62 900.837 2753.39 914.93 2810.79 914.307 2874.16 964.465 2862.89 1021.44 2853.85 1117.38 2863.74 1166.3 2862.89 1238.72 2862.05 1311.15 2860.16 1371.45 2862.89 1447.49 2865.24 1501.95 2816.78 1552.66 2753.39 1553.99 2664.01 1538.48 2474.96 1535.3 2366.45 1553.99 2257.95 1572.7 2105.74 1569.29 2023.33 1553.99 1940.92 1538.71 1775.85 1571.06 1658.3 1553.99 1605.55 1554.8 1549.15 1504.51 1548.79 1447.49 1555.71 1378.94 1544.75 1339.21 1548.79 1242.99 1552.84 1146.76 1543.71 1114.81 1548.79 1021.44Z" stroke="#A9D18E" stroke-width="33.8762" stroke-miterlimit="8" fill="none" fill-rule="evenodd"/><path d="M2250.24 1345.44 2273.11 1345.44 2273.2 1435.61 2250.34 1435.61ZM2170.36 1343.73 2193.23 1343.73C2193.29 1346.97 2193.32 1349.55 2193.32 1351.45L2193.32 1377.02C2193.32 1383.9 2193.36 1392.92 2193.42 1404.12 2193.42 1407.81 2193.96 1411.31 2195.05 1414.62 2196.13 1416.84 2197.53 1418.27 2199.25 1418.91 2200.47 1419.48 2202.12 1419.77 2204.23 1419.77 2206.53 1419.77 2208.98 1419.54 2211.6 1419.1L2211.6 1343.73 2234.46 1343.73 2234.46 1419.29 2240.2 1419.29 2240.2 1421.68C2240.2 1421.74 2240.13 1421.77 2240.01 1421.77L2237.23 1421.77 2237.23 1433.22C2237.23 1433.35 2237.17 1433.41 2237.04 1433.41L2219.15 1433.41C2216.41 1433.41 2214.4 1432.75 2213.13 1431.4 2208.66 1432.81 2204.2 1433.5 2199.73 1433.5L2198.97 1433.5C2188.38 1433.5 2180.38 1429.75 2174.96 1422.25 2173.68 1419.83 2172.53 1417.2 2171.51 1414.33 2171.13 1412.16 2170.84 1409.82 2170.65 1407.27 2170.52 1396.52 2170.46 1387.84 2170.46 1381.22L2170.46 1355.08C2170.46 1352.34 2170.43 1348.56 2170.36 1343.73ZM2301.42 1317.11 2323.71 1317.11C2323.84 1317.11 2323.9 1317.24 2323.9 1317.49L2323.9 1347.74 2351.83 1347.74 2351.83 1361.09C2351.83 1361.29 2351.77 1361.38 2351.65 1361.38L2323.9 1361.38 2323.9 1406.7C2324.03 1414.07 2326.3 1418.94 2330.7 1421.29 2332.03 1421.86 2333.28 1422.16 2334.43 1422.16 2337.87 1422.16 2340.84 1420.25 2343.32 1416.43 2344.28 1413.89 2344.75 1411.75 2344.75 1410.04L2344.66 1409.94 2341.89 1409.94 2341.89 1405.74 2359.68 1405.74C2359.74 1406.31 2359.78 1407.02 2359.78 1407.84L2359.78 1408.99C2359.78 1414.01 2358.15 1419.13 2354.89 1424.34 2349.29 1431.34 2341.83 1434.84 2332.51 1434.84 2323.65 1434.84 2315.84 1431.76 2309.08 1425.59 2303.97 1420.31 2301.42 1414.01 2301.42 1406.7L2301.42 1361.38 2281.72 1361.38 2281.72 1347.74 2301.42 1347.74ZM2110.48 1311.29C2103.46 1311.29 2097.66 1317.81 2093.07 1330.85 2089.94 1341.66 2088.38 1353.33 2088.38 1365.87 2088.38 1380.94 2090.58 1393.82 2094.98 1404.5 2099.19 1413.85 2104.39 1418.53 2110.58 1418.53L2112.87 1418.53C2115.1 1418.53 2117.43 1417.86 2119.85 1416.52 2115.45 1411.69 2111.82 1407.52 2108.95 1404.03 2107.16 1401.04 2105.6 1397.79 2104.26 1394.29L2122.82 1383.6 2123.01 1383.6C2124.86 1387.68 2127.12 1391.81 2129.8 1396.01 2130.7 1397.35 2131.14 1398.02 2131.14 1398.02 2133.95 1388.54 2135.35 1378.42 2135.35 1367.67L2135.35 1365.95C2135.35 1350.31 2132.9 1336.67 2127.99 1325.03 2123.78 1315.87 2117.94 1311.29 2110.48 1311.29ZM2249.96 1299.17 2273.68 1299.17 2273.68 1322.55 2249.96 1322.55ZM2109.62 1297.84 2113.25 1297.84C2122.82 1297.84 2131.43 1301.68 2139.08 1309.38 2142.91 1313.64 2145.56 1317.36 2147.02 1320.55 2149.25 1324.1 2151.33 1329.06 2153.24 1335.43 2155.98 1344.84 2157.35 1354.67 2157.35 1364.91 2157.35 1382.97 2153.37 1398.75 2145.4 1412.23 2149.67 1414.9 2154.07 1417.1 2158.6 1418.81L2162.81 1420.34C2162.36 1421.36 2159.43 1426.48 2154.01 1435.7 2154.01 1435.76 2153.97 1435.8 2153.91 1435.8 2145.81 1433.25 2139.34 1430.65 2134.49 1427.97L2131.91 1426.35C2125.91 1430.11 2118.8 1431.98 2110.58 1431.98 2096.99 1431.98 2085.96 1425.14 2077.48 1411.47 2075.18 1407.58 2072.98 1402.53 2070.88 1396.3 2067.81 1386.18 2066.28 1375.98 2066.28 1365.67L2066.28 1364.14C2066.28 1348.12 2069.63 1333.62 2076.33 1320.64 2078.37 1316.82 2081.05 1313.01 2084.36 1309.19 2092.08 1301.62 2100.5 1297.84 2109.62 1297.84ZM2123.68 1120.28 2150.56 1141.94 2150.66 1141.94 2158.41 1124.86 2158.5 1124.86C2159.65 1125.18 2166.35 1127.79 2178.59 1132.69 2177.19 1135.67 2175.28 1138.66 2172.85 1141.65 2169.34 1145.47 2166.51 1147.95 2164.34 1149.09 2164.34 1149.16 2163.41 1149.73 2161.56 1150.81L2183.09 1168.18C2176.97 1174.98 2172.31 1180.1 2169.12 1183.54 2166.76 1182.26 2161.91 1178.42 2154.58 1171.99 2146.1 1163.41 2140.42 1156.92 2137.55 1152.53 2134.36 1148.27 2131.49 1143.62 2128.94 1138.6 2127.54 1135.48 2126.2 1131.83 2124.93 1127.63 2124.1 1123.69 2123.68 1121.24 2123.68 1120.28ZM2117.56 1087.46 2117.56 1105.21 2149.51 1105.21 2149.51 1087.46ZM2039.12 1079.64 2079.68 1079.64 2079.68 1151.48C2079.68 1152.88 2079.8 1158.1 2080.06 1167.13L2080.06 1169.13C2080.06 1179.75 2078.34 1189.42 2074.89 1198.14L2185.57 1198.14 2185.57 1212.06 2074.7 1212.06 2074.7 1198.71 2074.61 1198.71C2072.95 1202.97 2070.56 1207.17 2067.43 1211.3 2065.77 1213.59 2063.92 1215.66 2061.88 1217.5 2051.42 1210.63 2044.73 1206.31 2041.79 1204.53L2041.79 1204.43C2045.88 1200.55 2048.52 1196.89 2049.73 1193.46 2051.58 1189.33 2052.99 1182.65 2053.94 1173.42 2054.45 1167.45 2054.71 1159.69 2054.71 1150.14L2054.71 1104.16C2059.68 1100.72 2062.33 1098.97 2062.65 1098.91L2062.65 1093.66 2038.92 1093.66 2038.92 1079.83C2038.92 1079.7 2038.99 1079.64 2039.12 1079.64ZM2117.56 1055.98 2117.56 1073.53 2149.51 1073.53 2149.51 1063.9C2153.85 1060.91 2156.14 1059.41 2156.4 1059.41L2156.4 1055.98ZM2093.17 1038.52 2100.72 1038.52C2104.61 1038.52 2110.1 1038.52 2117.18 1038.52L2117.37 1038.61 2117.37 1041.95 2149.51 1041.95 2149.51 1038.61C2149.51 1038.55 2149.61 1038.52 2149.8 1038.52L2173.52 1038.52C2173.65 1038.52 2173.71 1038.55 2173.71 1038.61L2173.71 1104.73C2173.71 1110.77 2172.25 1114.72 2169.31 1116.56 2166.76 1118.34 2162.52 1119.23 2156.59 1119.23L2117.56 1119.23C2117.43 1121.59 2117.37 1123.24 2117.37 1124.19L2117.37 1176.29 2130.67 1176.29 2130.67 1181.53 2123.01 1181.53 2123.01 1191.27C2123.01 1191.52 2122.95 1191.65 2122.82 1191.65L2107.32 1191.65C2100.88 1191.65 2096.55 1189.14 2094.31 1184.11 2093.55 1182.71 2093.17 1180.77 2093.17 1178.29ZM2038.92 1034.89C2042.24 1034.89 2046.86 1036.23 2052.79 1038.9 2055.98 1040.43 2059.27 1042.56 2062.65 1045.29 2066.35 1048.66 2068.68 1051.14 2069.63 1052.73 2072.18 1056.23 2074.1 1059.57 2075.37 1062.75 2076.84 1066.31 2077.57 1068.41 2077.57 1069.05 2064.31 1073.25 2057.51 1075.34 2057.2 1075.34 2057 1074.58 2053.98 1067.87 2048.11 1055.21 2042.37 1042.62 2039.31 1035.85 2038.92 1034.89ZM2284.01 1034.8 2309.17 1034.8 2309.17 1112.55 2330.41 1112.55 2330.41 1050.44 2354.51 1050.44 2354.51 1115.7C2354.51 1120.73 2352.09 1124.16 2347.24 1126.01 2345.84 1126.45 2344.47 1126.67 2343.13 1126.67L2309.17 1126.67 2309.17 1195.65 2337.01 1195.65 2337.01 1133.54 2360.92 1133.54 2360.92 1198.71C2360.92 1203.86 2358.59 1207.33 2353.94 1209.11 2352.73 1209.55 2351.55 1209.77 2350.4 1209.77L2232.26 1209.77 2232.26 1133.54 2257.51 1133.54 2257.51 1195.65 2284.01 1195.65 2284.01 1126.67 2242.59 1126.67 2242.59 1126.01 2237.81 1126.01 2237.81 1050.44 2262.97 1050.44 2262.97 1112.36C2262.97 1112.49 2263 1112.55 2263.06 1112.55L2284.01 1112.55Z" fill-rule="evenodd"/></g></svg>