<svg width="1595" height="820" xmlns="http://www.w3.org/2000/svg" xmlns:xlink="http://www.w3.org/1999/xlink" xml:space="preserve" overflow="hidden"><g transform="translate(-2202 -623)"><path d="M2224.26 777.733C2219.72 711.473 2283.66 639.822 2353.52 651.689 2499.92 671.915 2634.13 641.664 2784.4 651.689 2934.66 661.715 2996.68 659.873 3202.33 651.689 3407.97 643.506 3554.61 646.299 3646.13 651.689 3720.17 650.293 3777.82 707.284 3775.39 777.733 3773.72 832.494 3784.56 932.824 3775.39 1039.9 3766.23 1146.98 3772.19 1223.03 3775.39 1281.91 3775.29 1348.71 3714.94 1406.13 3646.13 1407.95 3465.17 1428.17 3368.34 1394.14 3228.18 1407.95 3088.04 1421.76 2881.26 1397.36 2771.47 1407.95 2661.68 1418.54 2560.81 1396.53 2353.52 1407.95 2291.51 1414.23 2209.28 1346.89 2224.26 1281.91 2235.23 1190.77 2210.87 1108.08 2224.26 1019.74 2237.64 931.389 2226.12 886.925 2224.26 777.733Z" stroke="#385723" stroke-width="1.93907" stroke-miterlimit="8" fill="#A9D18E" fill-rule="evenodd"/><path d="M2223.99 777.911C2227.1 697.447 2289.04 653.96 2353.21 652.004 2490.87 640.401 2646.09 641.06 2796.85 652.004 2947.6 662.948 3063.97 654.871 3214.64 652.004 3365.32 649.137 3486.34 635.345 3645.36 652.004 3713.09 651.268 3787.87 710.56 3774.57 777.911 3763.9 891.324 3775.57 949.144 3774.57 1034.76 3773.58 1120.38 3771.35 1191.66 3774.57 1281.54 3777.34 1345.92 3720.16 1405.86 3645.36 1407.44 3539.9 1389.1 3316.83 1385.34 3188.79 1407.44 3060.77 1429.55 2881.16 1425.52 2783.93 1407.44 2686.68 1389.37 2491.91 1427.61 2353.21 1407.44 2290.97 1408.39 2224.41 1348.95 2223.99 1281.54 2232.15 1200.51 2219.22 1153.54 2223.99 1039.8 2228.77 926.055 2217.99 888.282 2223.99 777.911Z" stroke="#A9D18E" stroke-width="39.9963" stroke-miterlimit="8" fill="none" fill-rule="evenodd"/><path d="M3038.83 1213.65C3034.19 1215.1 3030.37 1216.52 3027.33 1217.88 3024.41 1219.25 3020.87 1221.5 3016.69 1224.64 3016.79 1224.72 3015.86 1225.77 3013.87 1227.78 3010.17 1232.53 3008.72 1236.91 3009.48 1240.94L3009.61 1241.43C3010.47 1245.77 3013.59 1249.07 3018.98 1251.33 3023.31 1252.85 3028.43 1253.29 3034.29 1252.65 3036.76 1252.42 3039.2 1252.05 3041.67 1251.57 3041.29 1250.29 3040.91 1248.68 3040.54 1246.74L3040.54 1246.62C3039.68 1242.03 3039.1 1231.04 3038.83 1213.65ZM3107.9 1164.14 3141.81 1164.14 3141.81 1181.65C3153.62 1172.4 3169.61 1167.77 3189.75 1167.77 3195.7 1167.77 3203.17 1168.33 3212.16 1169.45 3211.96 1171.06 3210.59 1177.48 3208.04 1188.66 3205.1 1188.26 3203.17 1188.02 3202.22 1187.93 3202.52 1187.05 3202.65 1186.16 3202.65 1185.27 3195.38 1184.15 3189.03 1183.58 3183.65 1183.58L3181.1 1183.58C3165.77 1183.58 3154.57 1187.62 3147.47 1195.66 3143.7 1200.49 3141.81 1206.65 3141.81 1214.14L3141.81 1277.77 3130.17 1277.77C3120.25 1277.77 3113.49 1274.91 3109.89 1269.21 3108.56 1266.45 3107.9 1263.45 3107.9 1260.14ZM3002.95 1162.09C3026.58 1161.12 3044.35 1164.43 3056.28 1171.99 3064.97 1176.82 3069.94 1183.14 3071.18 1190.95 3071.55 1199.33 3072.01 1212.33 3072.59 1229.95 3072.69 1234.14 3073.01 1238 3073.58 1241.55 3075.09 1251.3 3079.07 1257.52 3085.49 1260.27 3086.15 1259.79 3088.76 1258.22 3093.29 1255.56L3097.68 1259.79C3075.85 1273.55 3064.79 1280.43 3064.5 1280.43 3058.25 1277.29 3053.96 1274.71 3051.59 1272.7L3050.04 1271.24C3040.95 1274.56 3032.2 1276.69 3023.79 1277.66 3007.15 1279.58 2994.06 1276.55 2984.5 1268.59 2979.77 1264.32 2976.98 1259.5 2976.13 1254.11L2975.99 1253.51C2974.2 1242.15 2979.83 1230.81 2992.87 1219.45 2998.54 1215.26 3003.55 1212 3007.9 1209.68 3012.26 1207.33 3018.4 1204.71 3026.34 1201.83 3032.68 1199.89 3036.42 1198.88 3037.55 1198.8 3036.7 1196.15 3035.09 1193.76 3032.72 1191.67 3027.15 1187.66 3018.92 1185.04 3008.04 1183.84L3006.91 1184.07C3001.14 1183.91 2994.2 1185 2986.07 1187.33L2987.07 1195.18C2987.15 1195.43 2987.07 1195.55 2986.77 1195.55L2979.97 1196.38C2979.77 1196.38 2979.69 1196.26 2979.69 1196.03L2973.72 1166.08C2983.57 1164.47 2992.83 1163.17 3001.52 1162.22ZM3252.29 1130.45 3285.33 1130.45C3285.53 1130.45 3285.63 1130.63 3285.63 1130.94L3285.63 1169.22 3327.05 1169.22 3327.05 1186.12C3327.05 1186.36 3326.95 1186.49 3326.75 1186.49L3285.63 1186.49 3285.63 1243.83C3285.81 1253.18 3289.17 1259.34 3295.69 1262.31 3297.68 1263.04 3299.53 1263.41 3301.22 1263.41 3306.33 1263.41 3310.73 1260.99 3314.43 1256.16 3315.84 1252.94 3316.55 1250.25 3316.55 1248.06L3316.41 1247.94 3312.3 1247.94 3312.3 1242.63 3338.67 1242.63C3338.76 1243.35 3338.82 1244.24 3338.82 1245.29L3338.82 1246.74C3338.82 1253.1 3336.4 1259.57 3331.59 1266.18 3323.25 1275.04 3312.2 1279.46 3298.4 1279.46 3285.25 1279.46 3273.66 1275.57 3263.64 1267.75 3256.08 1261.07 3252.29 1253.1 3252.29 1243.83L3252.29 1186.49 3223.08 1186.49 3223.08 1169.22 3252.29 1169.22ZM2871.04 1130.45 2904.09 1130.45C2904.27 1130.45 2904.37 1130.63 2904.37 1130.94L2904.37 1169.22 2945.78 1169.22 2945.78 1186.12C2945.78 1186.36 2945.69 1186.49 2945.51 1186.49L2904.37 1186.49 2904.37 1243.83C2904.56 1253.18 2907.9 1259.34 2914.45 1262.31 2916.42 1263.04 2918.26 1263.41 2919.97 1263.41 2925.07 1263.41 2929.48 1260.99 2933.16 1256.16 2934.57 1252.94 2935.29 1250.25 2935.29 1248.06L2935.15 1247.94 2931.03 1247.94 2931.03 1242.63 2957.42 1242.63C2957.52 1243.35 2957.56 1244.24 2957.56 1245.29L2957.56 1246.74C2957.56 1253.1 2955.15 1259.57 2950.32 1266.18 2942.01 1275.04 2930.93 1279.46 2917.13 1279.46 2903.99 1279.46 2892.4 1275.57 2882.37 1267.75 2874.82 1261.07 2871.04 1253.1 2871.04 1243.83L2871.04 1186.49 2841.81 1186.49 2841.81 1169.22 2871.04 1169.22ZM2764.79 1108.49C2782.19 1108.49 2797.33 1112.46 2810.19 1120.43 2815.76 1124.38 2819.26 1127.35 2820.69 1129.37 2826.08 1135.72 2829.28 1142.04 2830.34 1148.32 2830.71 1148.5 2830.95 1149.45 2831.03 1151.23 2831.03 1151.31 2823.89 1152.4 2809.61 1154.49L2809.61 1154.37C2808.2 1150.67 2806.49 1147.36 2804.5 1144.47 2795.72 1133.44 2784.66 1127.93 2771.32 1127.93L2770.32 1127.93C2759.92 1127.93 2751.51 1130.67 2745.09 1136.13 2740.54 1140.24 2738.27 1145.22 2738.27 1151.1 2738.27 1157.07 2740.16 1161.7 2743.96 1165 2748.01 1169.26 2754.4 1174.16 2763.1 1179.73 2770.18 1184.3 2777.04 1188.59 2783.67 1192.52 2796.23 1200 2807.77 1207.54 2818.27 1215.1 2824.61 1220.26 2828.05 1223.75 2828.62 1225.61 2829.96 1227.37 2831.13 1229.68 2832.16 1232.49 2833.12 1235.63 2833.6 1238.56 2833.6 1241.31 2833.6 1250.64 2829.42 1259.17 2821.11 1266.9 2816.85 1270.29 2813.11 1272.54 2809.89 1273.67 2797.9 1278.26 2784.14 1280.55 2768.63 1280.55 2736.2 1280.55 2714.63 1269.32 2703.95 1246.86 2702.06 1242.82 2700.55 1238.44 2699.41 1233.69L2699.41 1233.46 2705.08 1233.46C2710.57 1233.46 2715.24 1233.46 2719.12 1233.46 2721.11 1233.46 2724.89 1233.46 2730.47 1233.46L2730.47 1238.66 2723.24 1238.66C2726.36 1247.34 2731.95 1254.07 2739.98 1258.82 2747.83 1263 2755.87 1265.1 2764.08 1265.1L2766.37 1265.1C2773.27 1265.1 2780.03 1263.72 2786.65 1260.99 2794.78 1256.57 2798.84 1250.44 2798.84 1242.63 2798.84 1235.48 2795.44 1229.35 2788.64 1224.27 2770.18 1213.09 2756.52 1204.6 2747.63 1198.8 2719.56 1179.88 2705.5 1163.06 2705.5 1148.32 2705.5 1138.26 2709.58 1129.7 2717.71 1122.6 2729.82 1113.2 2745.51 1108.49 2764.79 1108.49ZM2889.47 913.596 2889.47 984.951 2937.83 984.951 2937.83 923.017C2938.59 922.455 2943.42 920.245 2952.31 916.368L2952.31 913.596ZM3056.84 877.25 3056.98 877.25C3062.57 892.389 3065.35 910.533 3065.35 931.701 3065.35 954.168 3062.47 976.499 3056.7 998.714 3055.57 1002.51 3054.61 1005.29 3053.86 1007.05L3018.13 1000.17C3019.36 995.903 3031.89 956.107 3055.71 880.759 3056.46 878.587 3056.84 877.405 3056.84 877.25ZM2797.7 838.248C2791.08 862.149 2784.14 880.797 2776.85 894.153 2773.54 900.356 2769.43 906.307 2764.52 912.026L2762.25 914.081C2768.02 914.158 2776.53 915.729 2787.78 918.791L2788.64 918.791 2819.12 838.248ZM3018.4 831.366 3018.68 831.366C3027.29 832.336 3036.14 835.515 3045.21 840.904 3051.27 844.761 3056.12 848.599 3059.82 852.38 3066.15 858.97 3069.89 864.805 3071.02 869.884 3054.38 876.009 3045.86 879.053 3045.49 879.053 3027.43 847.514 3018.4 831.599 3018.4 831.366ZM2577.56 800.584 2577.28 880.274 2623.1 880.274 2623.1 800.584ZM3363.92 786.452C3364.2 786.452 3374.7 788.294 3395.42 791.996 3395.5 791.996 3395.56 792.074 3395.56 792.248 3395.56 795.776 3393.71 804.713 3390.03 819.057 3382.93 841.35 3374.32 863.68 3364.2 886.07 3360.8 893.552 3357.44 900.88 3354.14 908.033 3380.15 943.623 3393.15 961.495 3393.15 961.65L3365.91 975.53 3365.77 975.53C3357.36 966.438 3349.84 957.018 3343.22 947.286L3338.11 939.668 3337.83 939.668C3319.85 973.398 3305.2 995.147 3293.85 1004.88 3291.96 1006.25 3290.82 1006.93 3290.45 1006.93L3290.45 1006.82 3322.22 911.173C3314.74 895.723 3309.28 878.413 3305.78 859.261 3304.92 851.449 3304.4 845.091 3304.21 840.186L3304.48 840.186C3304.48 840.264 3310.35 848.348 3322.08 864.456 3329.18 874.032 3332.82 878.897 3333 879.053L3353.42 817.603 3297.68 817.603 3297.68 799.847 3359.52 799.847ZM2506.08 784.998 2695.72 784.998 2695.72 800.584 2658.55 800.584 2658.55 880.022C2658.55 880.196 2658.65 880.274 2658.85 880.274L2708.78 880.274 2708.78 895.84 2658.55 895.84 2658.55 1006.82 2623.24 1006.82C2623.16 1006.82 2623.1 1006.74 2623.1 1006.56L2623.1 895.84 2576.73 895.84 2576.73 895.975C2576.73 908.285 2574.36 922.048 2569.63 937.265 2566.33 946.511 2562.59 954.168 2558.43 960.197 2554.63 966.07 2549.31 972.002 2542.39 977.953 2536.92 982.702 2532.46 986.075 2529.06 988.091 2516.02 996.155 2500.03 1002.3 2481.12 1006.56 2491.52 996.834 2500.27 987.296 2507.37 977.953 2515.02 968.377 2521.65 958.277 2527.21 947.655 2530.61 941.045 2533.93 932.748 2537.16 922.765 2540.18 911.348 2541.69 902.372 2541.69 895.84L2489.35 895.84 2489.35 880.274 2541.69 880.274C2541.87 857.09 2541.97 838.888 2541.97 825.687L2541.97 800.584 2506.08 800.584ZM3457.12 782.459 3457.4 782.459C3464.4 783.506 3471.3 786.161 3478.1 790.426 3484.16 794.788 3487.5 797.521 3488.18 798.645 3491.58 802.096 3494.12 805.527 3495.83 808.899 3497.15 810.838 3498.58 814.056 3500.09 818.573 3479.19 822.352 3468.59 824.233 3468.31 824.233L3468.31 824.117C3462.37 802.231 3458.63 788.332 3457.12 782.459ZM3412.99 776.663 3446.62 776.663C3447.55 811.517 3448.03 830.436 3448.03 833.421L3448.31 833.421 3510.01 824.601 3510.01 842.241 3448.89 851.042C3449.36 877.851 3450.06 893.261 3451.01 897.294L3451.15 897.294C3451.35 896.654 3461.37 884.461 3481.22 860.715 3498.99 868.507 3508.16 872.617 3508.74 873.024 3506.37 878.49 3502.83 884.577 3498.1 891.265 3493.09 898.418 3486.61 906.385 3478.67 915.166 3472.99 921.195 3467.42 926.875 3461.93 932.186 3460.24 933.64 3459.38 934.435 3459.38 934.609 3463.16 944.825 3467.28 953.276 3471.71 959.964 3478.91 970.742 3487.66 978.36 3497.96 982.78 3504.38 975.065 3507.78 971.033 3508.16 970.703L3515.12 974.58C3497.72 994.857 3488.5 1005.56 3487.46 1006.7 3473.46 1002.9 3461.45 996.155 3451.43 986.405 3445.56 980.047 3440.79 973.688 3437.11 967.33 3435.03 963.376 3433.48 960.236 3432.42 957.91 3421.94 966.361 3413.05 973.126 3405.76 978.205 3390.07 988.653 3378.87 995.225 3372.15 997.88 3369.88 999.082 3367.42 1000.09 3364.77 1000.9 3403.17 954.769 3422.64 931.391 3423.21 930.732 3421.13 922.94 3419.38 913.344 3417.97 902.004 3416.35 885.333 3415.56 870.175 3415.56 856.489L3415.4 855.752 3386.05 860.094 3386.05 842.105 3386.47 842.105 3414.84 838.132ZM2777 776.663 2808.76 782.227C2808.76 785.851 2806.55 798.645 2802.1 820.627L2853.02 820.627 2853.02 838.015C2853.02 838.093 2853.12 838.132 2853.3 838.132 2852.27 844.335 2851.13 850.131 2849.9 855.52L2858.97 855.52 2889.89 776.663 2922.24 785.716C2920.05 793.45 2917.47 800.487 2914.45 806.845 2909.24 816.751 2902.66 826.54 2894.72 836.193 2889.51 842.144 2882.95 848.677 2875.02 855.752L2939.68 856.489 2939.68 856.353C2939.68 855.965 2936.24 843.443 2929.32 818.805L2929.48 818.805C2939.2 824.369 2948.33 831.482 2956.84 840.186 2963.46 847.262 2968.57 853.95 2972.17 860.23 2976.88 869.321 2979.35 876.242 2979.55 880.991 2959.86 884.538 2949.32 886.419 2947.91 886.671L2947.91 886.555C2944.79 875.195 2943.24 869.283 2943.24 868.798 2942.94 868.798 2940.63 869.651 2936.28 871.337 2916.14 877.773 2892.73 880.991 2866.07 880.991L2860.96 880.991C2855.87 880.991 2851.83 880.913 2848.91 880.759L2848.91 858.66 2848.77 858.66C2846.4 867.596 2843.48 876.436 2839.98 885.217 2833.64 899.717 2826.08 914.449 2817.27 929.414 2817.09 929.414 2816.99 929.53 2816.99 929.782 2823.34 932.826 2828.9 935.888 2833.74 938.951 2836.76 940.638 2842.19 944.631 2850.04 950.911 2850.04 951.144 2850.7 951.822 2852.03 952.966L2852.03 891.265C2852.03 891.09 2852.21 891.013 2852.59 891.013L2889.19 891.013C2889.37 891.013 2889.47 891.09 2889.47 891.265L2889.47 895.84 2937.83 895.84 2937.83 891.381 2975 891.381 2975 985.435C2975 993.015 2972.35 997.842 2967.06 999.935 2962.91 1001.54 2959.49 1002.34 2956.84 1002.34 2955.91 1002.42 2953.64 1002.55 2950.04 1002.71 2936.32 1002.63 2926.44 1002.59 2920.39 1002.59 2906.02 1002.59 2889.67 1002.63 2871.32 1002.71 2866.68 1002.63 2860.26 1002.59 2852.03 1002.59L2852.03 966.962 2837.27 977.468C2836.24 976.577 2825.22 967.33 2804.23 949.69 2797.13 960.08 2788.06 971.886 2777 985.087 2772.27 990.223 2768.02 994.74 2764.24 998.598 2760.36 1002.22 2757.18 1004.99 2754.73 1006.93L2783.23 931.953 2762.11 914.197 2770.32 838.248 2759.98 838.248 2759.98 820.627 2772.31 820.627C2775.43 791.957 2777 777.303 2777 776.663ZM3172.59 776.547C3186.49 778.311 3197.17 779.765 3204.64 780.889 3204.64 784.107 3203.13 790.794 3200.09 800.933L3240.95 800.933C3241.13 800.933 3241.23 801.01 3241.23 801.185L3241.23 818.805 3193.43 818.805C3193.25 818.883 3192.2 820.899 3190.31 824.853 3185.77 833.693 3179.87 842.552 3172.59 851.41 3172.49 851.41 3172.45 851.449 3172.45 851.526L3208.18 851.526C3208.56 851.371 3209.59 848.948 3211.3 844.276 3228.8 847.669 3239.3 849.685 3242.8 850.325 3242.8 851.856 3241.43 855.869 3238.69 862.401 3234.89 871.086 3228.23 879.459 3218.68 887.504 3218.68 887.601 3217.45 888.512 3214.98 890.296L3214.98 909.971 3241.23 909.971 3241.23 927.359C3241.23 927.611 3241.13 927.728 3240.95 927.728L3214.98 927.728 3214.98 989.913C3214.98 997.88 3211.17 1003.19 3203.51 1005.85 3201.24 1006.56 3199.06 1006.93 3196.99 1006.93L3177.12 1006.93 3177.12 994.488 3168.47 994.488 3168.47 987.607 3185.06 987.607 3185.06 927.728 3154.43 927.728C3154.24 927.728 3154.14 927.611 3154.14 927.359L3154.14 910.087C3154.14 910.01 3154.24 909.971 3154.43 909.971L3185.06 909.971 3185.06 887.989 3194.86 887.989C3195.24 887.989 3196.51 884.771 3198.68 878.335L3202.08 869.399 3164.5 869.399 3164.5 859.629C3159.11 863.894 3154.89 866.744 3151.87 868.197 3151.69 868.197 3151.59 868.236 3151.59 868.314L3151.59 988.944C3151.59 993.538 3150.84 996.834 3149.32 998.85 3147.51 1001.58 3144.83 1003.79 3141.23 1005.48 3138.41 1006.29 3135.98 1006.7 3133.99 1006.7L3113.29 1006.7 3113.29 991.6C3113.29 991.348 3113.15 991.231 3112.88 991.231L3104.36 991.231 3104.36 984.602 3121.53 984.602 3121.53 944.631C3121.53 931.992 3121.47 914.158 3121.39 891.129 3127.99 889.133 3131.31 888.028 3131.31 887.873L3131.31 883.414 3111.03 883.414C3111.03 889.036 3110.13 900.434 3108.32 917.589 3106.25 932.632 3103.79 944.554 3100.94 953.315 3098.4 961.941 3095.18 969.792 3091.3 976.867 3088.28 982.179 3084.54 987.374 3080.11 992.453 3078.4 994.449 3074.99 997.357 3069.89 1001.14 3064.69 1004.2 3060.34 1006.29 3056.84 1007.42 3056.66 1007.57 3056.22 1007.65 3055.57 1007.65 3059.45 1002.9 3063.5 993.325 3067.76 978.922 3077.12 946.957 3081.8 909.409 3081.8 866.259L3081.8 827.024 3061.95 827.024 3061.95 820.259C3061.67 820.259 3056.42 822.101 3046.2 825.803 3046.02 825.9 3045.78 825.939 3045.49 825.939 3027.43 794.206 3018.4 778.35 3018.4 778.35L3018.4 778.233C3022.28 778.873 3026.44 779.804 3030.89 781.005 3034.57 782.304 3039.1 784.397 3044.49 787.286 3056.04 794.536 3063.74 801.863 3067.62 809.268L3113.43 809.268C3093.29 788.74 3082.85 778.078 3082.09 777.264 3084.54 776.876 3087.2 776.663 3090.03 776.663L3092.87 776.663C3104.13 776.663 3115.76 779.28 3127.77 784.514 3131.92 786.375 3136.74 789.457 3142.23 793.819 3143.26 794.691 3144.41 795.699 3145.63 796.823L3145.63 796.959C3145.63 797.036 3139.82 800.584 3128.19 807.581 3126.58 808.629 3125.78 809.191 3125.78 809.268L3159.11 809.268 3159.11 827.024 3111.58 827.024C3111.58 830.165 3111.5 843.036 3111.3 865.658L3121.53 865.658 3121.53 861.064 3151.17 861.064C3151.45 861.064 3151.59 861.199 3151.59 861.432L3151.59 867.228 3151.87 867.228Z" fill-rule="evenodd"/></g></svg>