<svg width="1300" height="650" xmlns="http://www.w3.org/2000/svg" xmlns:xlink="http://www.w3.org/1999/xlink" xml:space="preserve" overflow="hidden"><g transform="translate(-377 -379)"><path d="M419.155 871.202 419.155 946.91 443.383 946.91C453.652 946.91 461.422 941.33 466.691 930.158 469.412 923.629 470.784 916.97 470.784 910.181L470.784 907.801C470.784 897.097 467.708 887.733 461.556 879.721 456.373 874.037 450.539 871.202 444.044 871.202ZM1625.56 860.446C1622.92 860.446 1620.34 863.099 1617.79 868.406 1613.93 877.627 1611.99 887.355 1611.99 897.604 1611.99 917.62 1614.85 931.55 1620.56 939.366 1622.31 941.239 1623.81 942.163 1625.03 942.163L1625.96 942.163C1629.74 942.163 1633.38 938.066 1636.89 929.872 1639.7 921.392 1640.67 910.363 1639.79 896.772 1639.79 882.14 1636.84 870.929 1630.96 863.099 1629.38 861.33 1627.75 860.446 1626.09 860.446ZM1018.41 857.234C1010.32 857.234 1003.69 862.865 998.521 874.141 997.198 877.12 995.887 881.125 994.563 886.146 994.477 886.705 994.44 887.082 994.44 887.264L1043.17 887.264 1043.17 887.121C1043.17 884.52 1041.94 879.682 1039.48 872.594 1034.92 862.358 1027.88 857.234 1018.41 857.234ZM1511.11 852.759C1503.48 852.759 1498.12 861.747 1495.05 879.721 1494.34 885.313 1493.99 890.893 1493.99 896.486L1493.99 898.306C1493.99 914.967 1496.8 928.376 1502.42 938.534 1505.32 942.54 1508.39 944.543 1511.64 944.543 1518.4 944.543 1523.4 935.79 1526.65 918.284 1527.35 911.573 1527.7 905.057 1527.7 898.723L1527.7 898.163C1527.7 882.608 1525.56 870.044 1521.26 860.446 1518.18 855.322 1514.8 852.759 1511.11 852.759ZM567.057 852.759C559.41 852.759 554.055 861.747 550.991 879.721 550.281 885.313 549.938 890.893 549.938 896.486L549.938 898.306C549.938 914.967 552.744 928.376 558.356 938.534 561.261 942.54 564.337 944.543 567.584 944.543 574.337 944.543 579.349 935.79 582.596 918.284 583.295 911.573 583.65 905.057 583.65 898.723L583.65 898.163C583.65 882.608 581.493 870.044 577.192 860.446 574.128 855.322 570.746 852.759 567.057 852.759ZM1645.31 839.773 1676.8 839.773C1676.8 871.813 1676.71 916.372 1676.54 973.455 1676.54 979.88 1675.48 987.567 1673.38 996.502 1670.12 1007.49 1664.64 1015.65 1656.91 1020.95 1648.66 1026.26 1638.21 1028.91 1625.56 1028.91L1624.11 1028.91C1610.94 1028.91 1600.8 1024.63 1593.7 1016.06 1590.44 1012.24 1588.12 1008.52 1586.71 1004.89 1585.22 1002 1583.64 996.736 1581.97 989.101 1581.7 987.606 1581.58 986.305 1581.58 985.187 1582.1 985.187 1590.66 984.263 1607.25 982.39 1608.57 991.248 1609.93 997.386 1611.34 1000.83 1614.41 1007.45 1619.46 1010.76 1626.49 1010.76 1635.18 1010.76 1640.89 1003.07 1643.61 987.71 1644.66 982.677 1645.19 969.866 1645.19 949.29 1645.28 949.29 1645.31 948.224 1645.31 946.078L1645.31 945.934 1645.19 945.934C1644.14 948.458 1641.59 951.67 1637.54 955.572 1631.66 960.878 1625.52 963.532 1619.11 963.532 1611.21 963.532 1603.83 959.812 1596.98 952.36 1591.1 945.843 1586.49 936.115 1583.16 923.161 1581.22 914.044 1580.25 905.057 1580.25 896.213 1580.25 878.42 1585 863.385 1594.48 851.087 1600.89 843.731 1608.79 840.051 1618.18 840.051 1626 840.051 1635.04 843.079 1645.31 849.132ZM1510.58 832.928 1511.9 832.928C1524.81 832.928 1535.87 838.422 1545.09 849.41 1547.9 853.319 1550.27 857.325 1552.2 861.421 1557.47 872.698 1560.11 884.936 1560.11 898.163L1560.11 899.282C1560.11 915.852 1556.11 930.614 1548.12 943.568 1538.72 957.341 1526.61 964.234 1511.77 964.234L1510.84 964.234C1494.08 964.234 1480.78 955.858 1470.94 939.093 1464.45 926.712 1461.2 913.289 1461.2 898.866L1461.2 897.461C1461.2 880.423 1465.59 865.388 1474.36 852.343 1483.84 839.4 1495.92 832.928 1510.58 832.928ZM740.645 832.928 772.116 832.928 772.116 841.448 772.25 841.448C778.488 836.886 785.461 834.604 793.194 834.604 804.076 834.604 814.223 838.189 823.61 845.36 827.911 848.992 830.46 851.646 831.257 853.319 833.365 856.297 835.117 859.835 836.526 863.945 837.053 866.637 837.311 870.409 837.311 875.26L837.311 964.234 808.463 964.234 808.463 882.66C808.463 879.773 808.561 875.949 808.733 871.202 808.733 860.498 806.049 854.073 800.693 851.926 797.801 850.715 794.333 850.11 790.289 850.11L789.113 850.11C783.488 850.11 777.826 852.668 772.116 857.793L772.116 964.234 751.05 964.234C744.114 964.234 740.645 960.371 740.645 952.646 740.547 949.472 740.51 945.427 740.51 940.485L740.51 890.893C740.51 876.183 740.547 856.856 740.645 832.928ZM566.53 832.928 567.842 832.928C580.746 832.928 591.812 838.422 601.04 849.41 603.846 853.319 606.211 857.325 608.147 861.421 613.417 872.698 616.052 884.936 616.052 898.163L616.052 899.282C616.052 915.852 612.057 930.614 604.067 943.568 594.667 957.341 582.547 964.234 567.707 964.234L566.788 964.234C550.023 964.234 536.715 955.858 526.886 939.093 520.391 926.712 517.144 913.289 517.144 898.866L517.144 897.461C517.144 880.423 521.531 865.388 530.305 852.343 539.79 839.4 551.861 832.928 566.53 832.928ZM1351.62 832.787 1383.1 832.787 1383.1 853.046C1394.07 842.334 1408.91 836.979 1427.61 836.979 1433.15 836.979 1440.08 837.631 1448.42 838.934 1448.25 840.797 1446.97 848.201 1444.61 861.148 1441.89 860.68 1440.08 860.394 1439.2 860.303 1439.46 859.289 1439.59 858.261 1439.59 857.234 1432.84 855.933 1426.95 855.283 1421.95 855.283L1419.58 855.283C1405.35 855.283 1394.95 859.939 1388.37 869.251 1384.85 874.831 1383.1 881.958 1383.1 890.62L1383.1 964.234 1372.29 964.234C1363.07 964.234 1356.8 960.93 1353.47 954.323 1352.23 951.15 1351.62 947.664 1351.62 943.841ZM1012.21 832.787 1012.48 832.787C1031.27 832.787 1045.27 840.145 1054.49 854.853 1059.94 864.361 1062.66 875.351 1062.66 887.824 1062.66 893.975 1061.92 900.4 1060.42 907.099 1053.04 907.099 1047.3 907.099 1043.17 907.099L993.509 907.099 993.509 907.242C993.509 912.457 994.87 918.843 997.59 926.387 1002.52 936.713 1009.62 941.89 1018.94 941.89L1020.38 941.89C1030.74 941.89 1038.42 937.793 1043.43 929.599 1044.22 927.453 1045.63 923.681 1047.64 918.284 1047.82 918.284 1049.97 918.934 1054.1 920.235 1051.82 926.569 1050.68 929.963 1050.68 930.431L1060.03 935.595C1058.62 939.041 1056.68 942.631 1054.23 946.351 1048.43 953.712 1041.63 958.693 1033.82 961.308 1028.63 963.259 1023.55 964.234 1018.53 964.234L1015.9 964.234C1007.57 964.234 999.306 962.192 991.144 958.095 979.379 952.034 970.642 941.604 964.931 926.803 961.426 917.764 959.662 908.269 959.662 898.306L959.662 896.902C959.662 880.605 964.184 865.987 973.228 853.046 983.509 839.54 996.499 832.787 1012.21 832.787ZM898.817 832.787 898.952 832.787C914.405 832.787 927.395 839.54 937.934 853.046 942.236 859.184 945.091 865.895 946.5 873.153 947.456 877.627 947.946 881.49 947.946 884.754 936.096 885.405 929.245 885.73 927.395 885.73 927.395 885.821 927.358 885.873 927.26 885.873 926.476 880.748 925.471 876.56 924.233 873.296 920.459 863.242 915.275 858.209 908.694 858.209 903.866 858.209 899.258 860.498 894.871 865.05 888.192 873.153 884.859 883.727 884.859 896.772 884.859 909.986 888.241 920.937 894.994 929.599 899.295 934.346 904.136 936.713 909.491 936.713 915.716 936.713 920.545 932.812 923.976 924.982 925.471 920.976 926.206 917.62 926.206 914.928 926.206 914.928 926.304 914.785 926.476 914.512L948.73 921.353 948.73 921.496C948.73 924.566 947.505 929.495 945.042 936.297 943.559 940.03 941.402 943.841 938.596 947.755 929.466 958.745 917.653 964.234 903.167 964.234 887.003 964.234 873.842 957.341 863.658 943.568 860.399 939.093 857.592 933.592 855.227 927.076 851.796 917.295 850.092 907.385 850.092 897.318L850.092 896.486C850.092 878.42 854.921 862.917 864.577 849.97 873.621 838.515 885.03 832.787 898.817 832.787ZM630.929 832.787 662.411 832.787C662.497 837.537 662.546 841.309 662.546 844.103L662.546 881.542C662.546 891.595 662.583 904.823 662.669 921.21 662.669 926.608 663.416 931.732 664.911 936.583 666.406 939.835 668.33 941.929 670.708 942.865 672.374 943.698 674.654 944.127 677.558 944.127 680.72 944.127 684.09 943.802 687.693 943.138L687.693 832.787 719.175 832.787 719.175 943.424 727.079 943.424 727.079 946.91C727.079 947.014 726.994 947.053 726.81 947.053L722.999 947.053 722.999 963.818C722.999 964 722.901 964.091 722.729 964.091L698.097 964.091C694.323 964.091 691.553 963.116 689.801 961.165 683.661 963.207 677.509 964.234 671.37 964.234L670.315 964.234C655.733 964.234 644.716 958.745 637.252 947.755 635.5 944.218 633.919 940.355 632.51 936.154 631.983 932.994 631.591 929.547 631.321 925.827 631.149 910.077 631.064 897.37 631.064 887.681L631.064 849.41C631.064 845.406 631.015 839.865 630.929 832.787ZM419.155 788.228 419.155 851.646 438.113 851.646C440.491 851.646 443.162 850.948 446.152 849.551 451.238 847.037 455.233 841.868 458.137 834.045 459.633 829.203 460.368 824.545 460.368 820.075 460.368 809.46 457.341 800.891 451.287 794.373 447.427 790.275 442.292 788.228 435.883 788.228ZM380.038 768.53 442.991 768.53C457.476 768.53 469.547 773.419 479.203 783.198 488.345 793.628 492.904 805.921 492.904 820.075 492.904 833.951 488.345 846.151 479.203 856.674 479.118 856.674 478.64 857.142 477.757 858.066 487.071 863.385 494.093 872.555 498.835 885.587 501.372 893.325 502.646 901.142 502.646 909.062 502.646 924.605 498.174 938.248 489.215 949.992 485.711 953.998 482.806 956.743 480.527 958.225 472.537 963.818 464.02 966.614 454.976 966.614L448.517 966.614C441.054 966.614 431.263 966.705 419.155 966.887L419.155 967.303C416.165 967.407 413.922 967.447 412.427 967.447L382.795 967.447 382.795 953.478 377.795 953.478 377.795 947.612 387.538 947.612 387.538 798.284C387.624 797.912 390.663 796.748 396.631 794.792 398.028 794.326 398.739 794.001 398.739 793.815L398.739 788.786 380.038 788.786ZM1212.54 768.252C1252.22 768.344 1282.7 768.391 1303.95 768.391L1336.6 768.391C1336.96 768.391 1337.13 768.484 1337.13 768.67L1337.13 788.087 1336.74 788.228C1320.84 788.134 1308.81 788.087 1300.65 788.087L1249.16 788.087 1249.16 857.936C1269 858.027 1284.67 858.066 1296.18 858.066L1328.31 858.066 1328.31 877.913 1249.16 877.913 1249.16 967.447 1236.64 967.447C1232.43 967.447 1228.47 966.289 1224.78 963.961 1221.72 961.997 1219.47 958.784 1218.06 954.323L1217.67 950.968C1217.67 950.318 1217.72 949.992 1217.81 949.992 1217.72 935.647 1217.67 925.164 1217.67 918.557L1217.67 798.843C1217.76 798.563 1221.45 797.167 1228.74 794.653L1228.74 788.646 1212.54 788.646ZM599.986 559.973 599.986 578.971 686.774 578.971 686.774 559.973ZM599.986 520.161 599.986 539.579 686.774 539.579 686.774 529.381 695.732 525.609 695.732 520.161ZM924.233 514.015 959.012 514.015 959.012 544.468 988.117 544.468 988.117 564.862 959.012 564.862 959.012 616.548 959.135 616.548C965.642 616.548 976.696 616.595 992.333 616.687L992.333 637.082C967.836 636.988 948.203 636.943 933.461 636.943L890.913 636.943 890.913 616.687 890.913 616.408 892.102 616.548 924.233 616.548 924.233 564.862 895.128 564.862 895.128 544.328 924.233 544.328ZM566.788 494.599 599.986 494.599 599.986 499.627 686.774 499.627 686.774 494.599 719.959 494.599 719.959 628.84C719.959 635.824 716.847 641.133 710.609 644.765 708.244 645.882 704.996 646.441 700.867 646.441L679.139 646.441 679.139 628.561 671.1 628.561 671.1 620.878 686.774 620.878 686.774 599.505 599.986 599.505 599.986 646.441 566.788 646.441ZM844.945 449.059 844.945 524.492 851.538 524.492 851.538 462.609C853.732 461.119 857.764 458.558 863.658 454.926L863.658 449.059ZM815.448 449.059 815.448 524.492 822.299 524.492C822.47 524.492 822.556 524.398 822.556 524.212L822.556 449.059ZM1321.85 411.901 1321.85 475.042 1336.74 475.042 1336.74 425.451 1348.85 417.629 1348.85 411.901ZM1073.19 411.901 1073.19 475.042 1088.08 475.042 1088.08 425.451 1100.2 417.629 1100.2 411.901ZM819.799 381.449 847.715 381.449 847.715 428.246 851.538 428.246 851.538 423.216 876.293 423.216C876.379 423.216 876.428 423.263 876.428 423.357 876.428 432.204 876.477 439.839 876.562 446.266 876.477 474.296 876.428 494.272 876.428 506.192 876.428 519.417 876.428 527.473 876.428 530.359 876.428 538.088 874.014 542.558 869.185 543.769 865.938 544.514 862.776 544.886 859.7 544.886L847.715 544.886 847.715 589.866 858.119 588.191C857.065 563.978 856.538 550.661 856.538 548.239 859.087 549.263 863.131 552.616 868.658 558.297 875.68 566.678 880.508 576.317 883.143 587.213 885.692 597.736 886.967 607.655 886.967 616.967L886.697 617.106C884.16 617.2 875.116 617.805 859.565 618.922L859.443 618.643 858.916 602.999C848.205 612.125 835.865 618.689 821.906 622.694 816.723 624.65 809.394 626.326 799.909 627.723L794.897 628.561C791.392 610.588 789.64 600.996 789.64 599.785L819.799 594.757 819.799 544.886 790.559 544.886C790.289 544.886 790.167 544.839 790.167 544.747L790.167 423.357C790.167 423.263 790.289 423.216 790.559 423.216L815.313 423.216C815.399 423.216 815.448 423.263 815.448 423.357L815.448 428.246 819.799 428.246ZM1426.16 381.169 1460.67 381.169 1460.67 443.611 1460.93 443.611C1468.22 429.643 1471.86 422.518 1471.86 422.238 1472.13 422.238 1480.29 426.755 1496.36 435.788 1493.11 442.214 1488.94 448.78 1483.84 455.486 1478.15 462.562 1471.74 468.662 1464.62 473.785 1462.17 475.368 1460.84 476.346 1460.67 476.718L1460.67 496.135C1468.39 504.33 1474.19 512.012 1478.05 519.184 1482.26 526.168 1486.35 535.015 1490.3 545.725 1475.02 553.827 1467.25 557.878 1466.99 557.878L1460.93 544.049 1460.67 544.049 1460.67 622.554 1476.87 622.554 1476.87 605.513 1484.9 605.513 1484.9 617.386C1484.9 619.342 1484.86 620.645 1484.78 621.297 1484.86 622.415 1484.9 623.859 1484.9 625.628L1484.9 642.81C1484.9 642.996 1484.78 643.088 1484.51 643.088 1477.48 643.088 1463.96 643.088 1443.94 643.088 1439.12 643.088 1434.51 640.854 1430.11 636.384 1427.47 632.751 1426.16 629.259 1426.16 625.907ZM1384.54 381.169 1419.31 381.169 1419.31 518.485C1419.31 537.949 1416.98 554.898 1412.34 569.332 1409.43 578.179 1406.05 586.327 1402.19 593.779 1402.02 593.779 1400.66 596.152 1398.11 600.902 1394.68 606.303 1391.04 611.333 1387.18 615.989 1375.23 630.331 1361.94 639.829 1347.27 644.486 1358.25 628.096 1366.02 614.592 1370.59 603.975 1373.65 596.897 1376.55 587.958 1379.28 577.154 1381.03 569.426 1382.44 561.323 1383.49 552.849 1383.49 551.825 1383.53 550.706 1383.63 549.496L1383.49 549.496C1381.91 552.103 1378.09 556.294 1372.03 562.069L1351.62 546.004 1346.21 546.004 1346.21 588.191 1375.33 577.015 1375.33 577.154C1373.75 580.973 1370.67 586.188 1366.1 592.8 1363.21 596.805 1358.99 601.461 1353.47 606.769 1349.34 610.401 1345.87 613.242 1343.06 615.291 1326.56 627.304 1310.09 635.452 1293.66 639.737L1282.61 612.497 1282.73 612.497C1286.42 611.1 1288.31 610.401 1288.39 610.401L1288.39 512.618 1313.55 512.618 1313.55 600.622C1316.8 599.413 1318.43 598.761 1318.43 598.668L1318.43 495.577 1291.43 495.577 1291.43 386.058 1321.85 386.058 1321.85 391.228 1336.33 391.228C1336.6 391.228 1336.74 391.181 1336.74 391.088L1336.74 386.058 1366.9 386.058C1366.9 391.647 1366.93 398.445 1367.03 406.453 1366.93 433.367 1366.9 449.758 1366.9 455.625 1366.9 467.917 1366.9 475.787 1366.9 479.232 1366.9 487.241 1364.35 492.083 1359.25 493.76 1355.83 494.878 1351.48 495.436 1346.21 495.436L1346.21 525.33 1361.89 525.33 1361.89 533.571C1363.21 531.988 1370.76 522.909 1384.54 506.331L1384.54 491.385C1377.78 491.85 1373.83 492.083 1372.69 492.083 1372.51 492.177 1372.34 492.224 1372.17 492.224L1367.95 426.29 1368.07 426.29C1373.26 429.269 1378.09 434.019 1382.57 440.538L1384.41 443.891 1384.54 443.891ZM1177.5 381.169 1212.01 381.169 1212.01 443.611 1212.27 443.611C1219.56 429.643 1223.2 422.518 1223.2 422.238 1223.47 422.238 1231.63 426.755 1247.7 435.788 1244.45 442.214 1240.28 448.78 1235.2 455.486 1229.49 462.562 1223.08 468.662 1215.96 473.785 1213.51 475.368 1212.18 476.346 1212.01 476.718L1212.01 496.135C1219.74 504.33 1225.53 512.012 1229.4 519.184 1233.62 526.168 1237.7 535.015 1241.64 545.725 1226.36 553.827 1218.59 557.878 1218.33 557.878L1212.27 544.049 1212.01 544.049 1212.01 622.554 1228.21 622.554 1228.21 605.513 1236.24 605.513 1236.24 617.386C1236.24 619.342 1236.2 620.645 1236.12 621.297 1236.2 622.415 1236.24 623.859 1236.24 625.628L1236.24 642.81C1236.24 642.996 1236.12 643.088 1235.85 643.088 1228.82 643.088 1215.31 643.088 1195.28 643.088 1190.45 643.088 1185.85 640.854 1181.46 636.384 1178.82 632.751 1177.5 629.259 1177.5 625.907ZM1135.88 381.169 1170.65 381.169 1170.65 518.485C1170.65 537.949 1168.32 554.898 1163.68 569.332 1160.77 578.179 1157.39 586.327 1153.53 593.779 1153.36 593.779 1152 596.152 1149.45 600.902 1146.03 606.303 1142.38 611.333 1138.52 615.989 1126.58 630.331 1113.27 639.829 1098.62 644.486 1109.59 628.096 1117.36 614.592 1121.93 603.975 1125 596.897 1127.89 587.958 1130.62 577.154 1132.38 569.426 1133.78 561.323 1134.83 552.849 1134.83 551.825 1134.88 550.706 1134.97 549.496L1134.83 549.496C1133.25 552.103 1129.43 556.294 1123.37 562.069L1102.96 546.004 1097.56 546.004 1097.56 588.191 1126.67 577.015 1126.67 577.154C1125.09 580.973 1122.01 586.188 1117.44 592.8 1114.55 596.805 1110.33 601.461 1104.81 606.769 1100.68 610.401 1097.21 613.242 1094.4 615.291 1077.9 627.304 1061.42 635.452 1045 639.737L1033.95 612.497 1034.07 612.497C1037.76 611.1 1039.65 610.401 1039.75 610.401L1039.75 512.618 1064.89 512.618 1064.89 600.622C1068.14 599.413 1069.77 598.761 1069.77 598.668L1069.77 495.577 1042.77 495.577 1042.77 386.058 1073.19 386.058 1073.19 391.228 1087.69 391.228C1087.94 391.228 1088.08 391.181 1088.08 391.088L1088.08 386.058 1118.24 386.058C1118.24 391.647 1118.29 398.445 1118.37 406.453 1118.29 433.367 1118.24 449.758 1118.24 455.625 1118.24 467.917 1118.24 475.787 1118.24 479.232 1118.24 487.241 1115.69 492.083 1110.6 493.76 1107.17 494.878 1102.83 495.436 1097.56 495.436L1097.56 525.33 1113.24 525.33 1113.24 533.571C1114.55 531.988 1122.1 522.909 1135.88 506.331L1135.88 491.385C1129.12 491.85 1125.17 492.083 1124.03 492.083 1123.85 492.177 1123.68 492.224 1123.51 492.224L1119.29 426.29 1119.43 426.29C1124.6 429.269 1129.43 434.019 1133.91 440.538L1135.75 443.891 1135.88 443.891ZM925.692 380.471 960.189 380.471 960.189 420.004 990.752 420.004 990.752 440.538 960.189 440.538 960.189 484.261 979.024 484.261C982.983 484.261 988.338 484.354 995.09 484.541L995.09 505.075C976.561 504.981 962.162 504.936 951.892 504.936L891.182 504.936C890.999 504.936 890.913 504.795 890.913 504.516L890.913 484.121C898.989 484.215 905.312 484.261 909.883 484.261L925.692 484.261 925.692 440.258 895.128 440.258 895.128 419.863 925.692 419.863ZM626.848 379.913 660.034 379.913 660.034 400.167 730.499 400.167 730.499 420.702 660.034 420.702 660.034 434.951 722.202 434.951 722.202 455.065C722.202 455.251 722.153 455.345 722.067 455.345L660.034 455.345 660.034 469.315 745.388 469.315 745.388 489.708 541.641 489.708 541.641 469.315 626.848 469.315 626.848 455.345 564.949 455.345C564.864 455.345 564.815 455.251 564.815 455.065L564.815 434.951 626.848 434.951 626.848 420.702 556.383 420.702 556.383 400.167 626.848 400.167Z" fill="#203864" fill-rule="evenodd"/></g></svg>