<svg width="1060" height="499" xmlns="http://www.w3.org/2000/svg" xmlns:xlink="http://www.w3.org/1999/xlink" xml:space="preserve" overflow="hidden"><defs><clipPath id="clip0"><rect x="1591" y="637" width="1060" height="499"/></clipPath></defs><g clip-path="url(#clip0)" transform="translate(-1591 -637)"><path d="M1624.75 1014.74 1624.75 1072.95 1644.52 1072.95C1652.9 1072.95 1659.24 1068.66 1663.54 1060.07 1665.76 1055.05 1666.88 1049.93 1666.88 1044.71L1666.88 1042.88C1666.88 1034.65 1664.37 1027.45 1659.35 1021.29 1655.12 1016.92 1650.36 1014.74 1645.06 1014.74ZM2609.19 1006.47C2607.04 1006.47 2604.93 1008.51 2602.85 1012.59 2599.7 1019.68 2598.12 1027.16 2598.12 1035.04 2598.12 1050.43 2600.45 1061.14 2605.11 1067.15 2606.54 1068.59 2607.76 1069.3 2608.76 1069.3L2609.52 1069.3C2612.6 1069.3 2615.57 1066.15 2618.44 1059.85 2620.73 1053.33 2621.52 1044.85 2620.8 1034.4 2620.8 1023.15 2618.4 1014.53 2613.6 1008.51 2612.31 1007.15 2610.98 1006.47 2609.62 1006.47ZM2113.75 1004C2107.15 1004 2101.74 1008.33 2097.52 1017 2096.44 1019.29 2095.37 1022.37 2094.29 1026.23 2094.22 1026.66 2094.19 1026.95 2094.19 1027.09L2133.95 1027.09 2133.95 1026.98C2133.95 1024.98 2132.95 1021.26 2130.94 1015.81 2127.22 1007.94 2121.48 1004 2113.75 1004ZM2515.8 1000.56C2509.57 1000.56 2505.2 1007.47 2502.69 1021.29 2502.11 1025.59 2501.83 1029.88 2501.83 1034.18L2501.83 1035.58C2501.83 1048.39 2504.12 1058.7 2508.71 1066.51 2511.07 1069.59 2513.58 1071.13 2516.23 1071.13 2521.75 1071.13 2525.83 1064.4 2528.48 1050.94 2529.05 1045.78 2529.34 1040.77 2529.34 1035.9L2529.34 1035.47C2529.34 1023.51 2527.59 1013.85 2524.08 1006.47 2521.57 1002.53 2518.81 1000.56 2515.8 1000.56ZM1745.44 1000.56C1739.2 1000.56 1734.83 1007.47 1732.33 1021.29 1731.75 1025.59 1731.47 1029.88 1731.47 1034.18L1731.47 1035.58C1731.47 1048.39 1733.76 1058.7 1738.34 1066.51 1740.71 1069.59 1743.22 1071.13 1745.87 1071.13 1751.38 1071.13 1755.47 1064.4 1758.12 1050.94 1758.69 1045.78 1758.98 1040.77 1758.98 1035.9L1758.98 1035.47C1758.98 1023.51 1757.22 1013.85 1753.71 1006.47 1751.21 1002.53 1748.45 1000.56 1745.44 1000.56ZM2625.31 990.575 2651 990.575C2651 1015.21 2650.93 1049.47 2650.79 1093.36 2650.79 1098.3 2649.93 1104.21 2648.21 1111.08 2645.55 1119.53 2641.08 1125.8 2634.77 1129.88 2628.04 1133.96 2619.51 1136 2609.19 1136L2608.01 1136C2597.26 1136 2588.99 1132.71 2583.19 1126.12 2580.53 1123.18 2578.64 1120.32 2577.49 1117.53 2576.27 1115.31 2574.98 1111.26 2573.62 1105.39 2573.4 1104.24 2573.3 1103.24 2573.3 1102.38 2573.73 1102.38 2580.71 1101.67 2594.25 1100.23 2595.33 1107.04 2596.44 1111.76 2597.59 1114.41 2600.09 1119.5 2604.21 1122.04 2609.95 1122.04 2617.04 1122.04 2621.7 1116.13 2623.92 1104.32 2624.78 1100.45 2625.21 1090.6 2625.21 1074.78 2625.28 1074.78 2625.31 1073.96 2625.31 1072.31L2625.31 1072.2 2625.21 1072.2C2624.35 1074.14 2622.27 1076.61 2618.97 1079.61 2614.17 1083.69 2609.16 1085.73 2603.93 1085.73 2597.48 1085.73 2591.46 1082.87 2585.87 1077.14 2581.07 1072.13 2577.31 1064.65 2574.59 1054.69 2573.01 1047.68 2572.22 1040.77 2572.22 1033.97 2572.22 1020.29 2576.09 1008.73 2583.83 999.274 2589.06 993.618 2595.51 990.789 2603.17 990.789 2609.55 990.789 2616.93 993.117 2625.31 997.771ZM2515.37 985.312 2516.44 985.312C2526.98 985.312 2536 989.536 2543.53 997.985 2545.82 1000.99 2547.75 1004.07 2549.33 1007.22 2553.63 1015.89 2555.78 1025.3 2555.78 1035.47L2555.78 1036.33C2555.78 1049.07 2552.52 1060.42 2546 1070.38 2538.33 1080.97 2528.45 1086.27 2516.34 1086.27L2515.58 1086.27C2501.9 1086.27 2491.05 1079.83 2483.02 1066.94 2477.72 1057.42 2475.07 1047.1 2475.07 1036.01L2475.07 1034.93C2475.07 1021.83 2478.65 1010.27 2485.81 1000.24 2493.55 990.288 2503.4 985.312 2515.37 985.312ZM1887.09 985.312 1912.77 985.312 1912.77 991.863 1912.88 991.863C1917.97 988.355 1923.66 986.601 1929.97 986.601 1938.85 986.601 1947.13 989.357 1954.79 994.871 1958.3 997.663 1960.38 999.704 1961.03 1000.99 1962.75 1003.28 1964.18 1006 1965.33 1009.16 1965.76 1011.23 1965.97 1014.13 1965.97 1017.86L1965.97 1086.27 1942.43 1086.27 1942.43 1023.55C1942.43 1021.33 1942.51 1018.39 1942.65 1014.74 1942.65 1006.51 1940.46 1001.57 1936.09 999.919 1933.73 998.988 1930.9 998.523 1927.6 998.523L1926.64 998.523C1922.05 998.523 1917.43 1000.49 1912.77 1004.43L1912.77 1086.27 1895.58 1086.27C1889.92 1086.27 1887.09 1083.3 1887.09 1077.36 1887.01 1074.92 1886.98 1071.81 1886.98 1068.01L1886.98 1029.88C1886.98 1018.57 1887.01 1003.71 1887.09 985.312ZM1745.01 985.312 1746.08 985.312C1756.61 985.312 1765.64 989.536 1773.17 997.985 1775.46 1000.99 1777.39 1004.07 1778.97 1007.22 1783.27 1015.89 1785.42 1025.3 1785.42 1035.47L1785.42 1036.33C1785.42 1049.07 1782.16 1060.42 1775.64 1070.38 1767.97 1080.97 1758.08 1086.27 1745.97 1086.27L1745.22 1086.27C1731.54 1086.27 1720.68 1079.83 1712.66 1066.94 1707.36 1057.42 1704.71 1047.1 1704.71 1036.01L1704.71 1034.93C1704.71 1021.83 1708.29 1010.27 1715.45 1000.24 1723.19 990.288 1733.04 985.312 1745.01 985.312ZM2385.65 985.204 2411.34 985.204 2411.34 1000.78C2420.29 992.544 2432.4 988.427 2447.66 988.427 2452.18 988.427 2457.84 988.928 2464.64 989.93 2464.5 991.362 2463.46 997.055 2461.53 1007.01 2459.31 1006.65 2457.84 1006.43 2457.12 1006.36 2457.33 1005.58 2457.44 1004.79 2457.44 1004 2451.93 1003 2447.12 1002.5 2443.04 1002.5L2441.11 1002.5C2429.5 1002.5 2421.01 1006.08 2415.64 1013.24 2412.77 1017.53 2411.34 1023.01 2411.34 1029.67L2411.34 1086.27 2402.52 1086.27C2395 1086.27 2389.88 1083.73 2387.16 1078.65 2386.15 1076.21 2385.65 1073.53 2385.65 1070.59ZM2108.69 985.204 2108.91 985.204C2124.24 985.204 2135.67 990.861 2143.19 1002.17 2147.64 1009.48 2149.86 1017.93 2149.86 1027.52 2149.86 1032.25 2149.25 1037.19 2148.03 1042.34 2142.01 1042.34 2137.32 1042.34 2133.95 1042.34L2093.43 1042.34 2093.43 1042.45C2093.43 1046.46 2094.54 1051.37 2096.76 1057.17 2100.78 1065.11 2106.58 1069.09 2114.18 1069.09L2115.36 1069.09C2123.81 1069.09 2130.08 1065.94 2134.17 1059.64 2134.81 1057.99 2135.96 1055.09 2137.6 1050.94 2137.75 1050.94 2139.5 1051.44 2142.87 1052.44 2141.01 1057.31 2140.08 1059.92 2140.08 1060.28L2147.71 1064.25C2146.56 1066.9 2144.98 1069.66 2142.98 1072.52 2138.25 1078.18 2132.7 1082.01 2126.32 1084.02 2122.09 1085.52 2117.94 1086.27 2113.85 1086.27L2111.7 1086.27C2104.9 1086.27 2098.16 1084.7 2091.5 1081.55 2081.9 1076.89 2074.77 1068.87 2070.11 1057.49 2067.25 1050.54 2065.81 1043.24 2065.81 1035.58L2065.81 1034.5C2065.81 1021.97 2069.5 1010.73 2076.88 1000.78 2085.27 990.396 2095.87 985.204 2108.69 985.204ZM2016.16 985.204 2016.27 985.204C2028.88 985.204 2039.48 990.396 2048.08 1000.78 2051.59 1005.5 2053.92 1010.66 2055.07 1016.24 2055.85 1019.68 2056.25 1022.65 2056.25 1025.16 2046.58 1025.66 2040.99 1025.91 2039.48 1025.91 2039.48 1025.98 2039.45 1026.02 2039.37 1026.02 2038.73 1022.08 2037.91 1018.86 2036.9 1016.35 2033.82 1008.62 2029.59 1004.75 2024.22 1004.75 2020.28 1004.75 2016.52 1006.51 2012.94 1010.01 2007.49 1016.24 2004.77 1024.37 2004.77 1034.4 2004.77 1044.56 2007.53 1052.98 2013.04 1059.64 2016.55 1063.29 2020.5 1065.11 2024.87 1065.11 2029.95 1065.11 2033.89 1062.11 2036.69 1056.09 2037.91 1053.01 2038.51 1050.43 2038.51 1048.36 2038.51 1048.36 2038.59 1048.25 2038.73 1048.04L2056.89 1053.3 2056.89 1053.41C2056.89 1055.77 2055.89 1059.56 2053.88 1064.79 2052.67 1067.66 2050.91 1070.59 2048.62 1073.6 2041.17 1082.05 2031.53 1086.27 2019.71 1086.27 2006.52 1086.27 1995.78 1080.97 1987.47 1070.38 1984.81 1066.94 1982.52 1062.71 1980.59 1057.7 1977.79 1050.18 1976.4 1042.56 1976.4 1034.82L1976.4 1034.18C1976.4 1020.29 1980.34 1008.37 1988.22 998.415 1995.6 989.608 2004.91 985.204 2016.16 985.204ZM1797.56 985.204 1823.25 985.204C1823.32 988.856 1823.36 991.756 1823.36 993.904L1823.36 1022.69C1823.36 1030.42 1823.39 1040.59 1823.46 1053.19 1823.46 1057.34 1824.07 1061.28 1825.29 1065.01 1826.51 1067.51 1828.08 1069.12 1830.02 1069.84 1831.38 1070.48 1833.24 1070.81 1835.61 1070.81 1838.19 1070.81 1840.94 1070.56 1843.88 1070.05L1843.88 985.204 1869.57 985.204 1869.57 1070.27 1876.02 1070.27 1876.02 1072.95C1876.02 1073.03 1875.95 1073.06 1875.8 1073.06L1872.69 1073.06 1872.69 1085.95C1872.69 1086.09 1872.61 1086.16 1872.47 1086.16L1852.37 1086.16C1849.29 1086.16 1847.03 1085.41 1845.6 1083.91 1840.59 1085.48 1835.57 1086.27 1830.56 1086.27L1829.7 1086.27C1817.8 1086.27 1808.81 1082.05 1802.72 1073.6 1801.29 1070.88 1800 1067.91 1798.85 1064.68 1798.42 1062.25 1798.1 1059.6 1797.88 1056.74 1797.74 1044.63 1797.67 1034.86 1797.67 1027.41L1797.67 997.985C1797.67 994.906 1797.63 990.646 1797.56 985.204ZM1624.75 950.943 1624.75 999.704 1640.22 999.704C1642.16 999.704 1644.34 999.167 1646.78 998.093 1650.93 996.16 1654.19 992.186 1656.56 986.171 1657.78 982.448 1658.38 978.867 1658.38 975.43 1658.38 967.268 1655.91 960.68 1650.97 955.668 1647.82 952.517 1643.63 950.943 1638.4 950.943ZM1592.83 935.798 1644.2 935.798C1656.02 935.798 1665.87 939.557 1673.75 947.076 1681.21 955.095 1684.93 964.547 1684.93 975.43 1684.93 986.099 1681.21 995.479 1673.75 1003.57 1673.68 1003.57 1673.29 1003.93 1672.57 1004.64 1680.17 1008.73 1685.9 1015.78 1689.77 1025.8 1691.84 1031.75 1692.88 1037.76 1692.88 1043.85 1692.88 1055.8 1689.23 1066.29 1681.92 1075.32 1679.06 1078.4 1676.69 1080.51 1674.83 1081.65 1668.31 1085.95 1661.36 1088.1 1653.98 1088.1L1648.71 1088.1C1642.62 1088.1 1634.63 1088.17 1624.75 1088.31L1624.75 1088.63C1622.31 1088.71 1620.48 1088.74 1619.26 1088.74L1595.08 1088.74 1595.08 1078 1591 1078 1591 1073.49 1598.95 1073.49 1598.95 958.675C1599.02 958.389 1601.5 957.494 1606.37 955.99 1607.51 955.632 1608.09 955.382 1608.09 955.239L1608.09 951.372 1592.83 951.372ZM2272.16 935.584C2304.54 935.655 2329.41 935.691 2346.75 935.691L2373.4 935.691C2373.69 935.691 2373.83 935.763 2373.83 935.906L2373.83 950.835 2373.51 950.943C2360.54 950.871 2350.72 950.835 2344.06 950.835L2302.04 950.835 2302.04 1004.54C2318.23 1004.61 2331.02 1004.64 2340.41 1004.64L2366.63 1004.64 2366.63 1019.9 2302.04 1019.9 2302.04 1088.74 2291.83 1088.74C2288.39 1088.74 2285.16 1087.85 2282.15 1086.06 2279.65 1084.55 2277.82 1082.08 2276.67 1078.65L2276.35 1076.07C2276.35 1075.57 2276.39 1075.32 2276.46 1075.32 2276.39 1064.29 2276.35 1056.23 2276.35 1051.15L2276.35 959.105C2276.42 958.89 2279.43 957.816 2285.38 955.883L2285.38 951.265 2272.16 951.265ZM1772.31 775.444 1772.31 790.051 1843.13 790.051 1843.13 775.444ZM1772.31 744.833 1772.31 759.763 1843.13 759.763 1843.13 751.922 1850.44 749.022 1850.44 744.833ZM2036.9 740.108 2065.28 740.108 2065.28 763.522 2089.03 763.522 2089.03 779.203 2065.28 779.203 2065.28 818.943 2065.38 818.943C2070.69 818.943 2079.71 818.979 2092.47 819.05L2092.47 834.731C2072.48 834.659 2056.46 834.624 2044.43 834.624L2009.71 834.624 2009.71 819.05 2009.71 818.835 2010.68 818.943 2036.9 818.943 2036.9 779.203 2013.15 779.203 2013.15 763.415 2036.9 763.415ZM1745.22 725.179 1772.31 725.179 1772.31 729.045 1843.13 729.045 1843.13 725.179 1870.21 725.179 1870.21 828.394C1870.21 833.764 1867.67 837.846 1862.58 840.638 1860.65 841.497 1858 841.927 1854.63 841.927L1836.9 841.927 1836.9 828.179 1830.34 828.179 1830.34 822.272 1843.13 822.272 1843.13 805.839 1772.31 805.839 1772.31 841.927 1745.22 841.927ZM1972.2 690.165 1972.2 748.163 1977.58 748.163 1977.58 700.583C1979.37 699.437 1982.66 697.468 1987.47 694.676L1987.47 690.165ZM1948.13 690.165 1948.13 748.163 1953.72 748.163C1953.86 748.163 1953.93 748.091 1953.93 747.948L1953.93 690.165ZM2361.36 661.595 2361.36 710.142 2373.51 710.142 2373.51 672.013 2383.39 665.999 2383.39 661.595ZM2158.45 661.595 2158.45 710.142 2170.6 710.142 2170.6 672.013 2180.49 665.999 2180.49 661.595ZM1951.68 638.181 1974.46 638.181 1974.46 674.162 1977.58 674.162 1977.58 670.295 1997.78 670.295C1997.85 670.295 1997.89 670.331 1997.89 670.403 1997.89 677.205 1997.93 683.076 1998 688.017 1997.93 709.569 1997.89 724.928 1997.89 734.093 1997.89 744.261 1997.89 750.455 1997.89 752.674 1997.89 758.617 1995.92 762.054 1991.98 762.985 1989.33 763.558 1986.75 763.844 1984.24 763.844L1974.46 763.844 1974.46 798.428 1982.95 797.14C1982.09 778.523 1981.66 768.284 1981.66 766.422 1983.74 767.209 1987.04 769.787 1991.55 774.155 1997.28 780.599 2001.22 788.01 2003.37 796.388 2005.45 804.479 2006.49 812.105 2006.49 819.265L2006.27 819.372C2004.2 819.444 1996.82 819.909 1984.13 820.768L1984.03 820.554 1983.6 808.525C1974.86 815.542 1964.79 820.589 1953.4 823.668 1949.17 825.172 1943.19 826.461 1935.45 827.535L1931.36 828.179C1928.5 814.36 1927.07 806.985 1927.07 806.054L1951.68 802.188 1951.68 763.844 1927.82 763.844C1927.6 763.844 1927.5 763.808 1927.5 763.737L1927.5 670.403C1927.5 670.331 1927.6 670.295 1927.82 670.295L1948.02 670.295C1948.09 670.295 1948.13 670.331 1948.13 670.403L1948.13 674.162 1951.68 674.162ZM2446.48 637.966 2474.64 637.966 2474.64 685.976 2474.85 685.976C2480.8 675.236 2483.77 669.758 2483.77 669.543 2483.99 669.543 2490.65 673.016 2503.76 679.961 2501.11 684.902 2497.71 689.95 2493.55 695.106 2488.9 700.547 2483.67 705.237 2477.86 709.176 2475.86 710.393 2474.78 711.145 2474.64 711.431L2474.64 726.36C2480.94 732.661 2485.67 738.568 2488.82 744.082 2492.26 749.452 2495.59 756.254 2498.82 764.489 2486.35 770.718 2480.01 773.833 2479.8 773.833L2474.85 763.2 2474.64 763.2 2474.64 823.561 2487.86 823.561 2487.86 810.458 2494.41 810.458 2494.41 819.587C2494.41 821.091 2494.38 822.093 2494.31 822.594 2494.38 823.454 2494.41 824.564 2494.41 825.924L2494.41 839.135C2494.41 839.278 2494.31 839.349 2494.09 839.349 2488.36 839.349 2477.32 839.349 2460.99 839.349 2457.05 839.349 2453.29 837.631 2449.7 834.194 2447.55 831.401 2446.48 828.716 2446.48 826.139ZM2412.52 637.966 2440.89 637.966 2440.89 743.545C2440.89 758.51 2438.99 771.542 2435.2 782.64 2432.83 789.442 2430.07 795.707 2426.92 801.436 2426.78 801.436 2425.67 803.261 2423.59 806.913 2420.79 811.066 2417.82 814.933 2414.67 818.513 2404.92 829.54 2394.07 836.843 2382.1 840.424 2391.06 827.822 2397.4 817.439 2401.13 809.276 2403.63 803.834 2406 796.961 2408.22 788.654 2409.65 782.712 2410.8 776.482 2411.66 769.966 2411.66 769.179 2411.69 768.319 2411.77 767.388L2411.66 767.388C2410.37 769.393 2407.25 772.615 2402.31 777.055L2385.65 764.703 2381.24 764.703 2381.24 797.14 2405 788.547 2405 788.654C2403.71 791.59 2401.2 795.6 2397.47 800.684 2395.11 803.763 2391.67 807.343 2387.16 811.424 2383.79 814.217 2380.96 816.401 2378.67 817.976 2365.2 827.213 2351.76 833.478 2338.36 836.772L2329.34 815.828 2329.44 815.828C2332.45 814.754 2333.99 814.217 2334.06 814.217L2334.06 739.034 2354.59 739.034 2354.59 806.698C2357.24 805.768 2358.57 805.267 2358.57 805.195L2358.57 725.931 2336.54 725.931 2336.54 641.725 2361.36 641.725 2361.36 645.7 2373.18 645.7C2373.4 645.7 2373.51 645.664 2373.51 645.592L2373.51 641.725 2398.12 641.725C2398.12 646.022 2398.15 651.249 2398.23 657.406 2398.15 678.1 2398.12 690.702 2398.12 695.213 2398.12 704.664 2398.12 710.715 2398.12 713.364 2398.12 719.522 2396.04 723.245 2391.88 724.534 2389.09 725.394 2385.54 725.823 2381.24 725.823L2381.24 748.808 2394.03 748.808 2394.03 755.144C2395.11 753.927 2401.27 746.946 2412.52 734.2L2412.52 722.708C2407 723.066 2403.78 723.245 2402.85 723.245 2402.7 723.317 2402.56 723.353 2402.42 723.353L2398.98 672.658 2399.08 672.658C2403.31 674.949 2407.25 678.601 2410.91 683.613L2412.41 686.191 2412.52 686.191ZM2243.57 637.966 2271.73 637.966 2271.73 685.976 2271.94 685.976C2277.89 675.236 2280.86 669.758 2280.86 669.543 2281.08 669.543 2287.74 673.016 2300.85 679.961 2298.2 684.902 2294.8 689.95 2290.65 695.106 2285.99 700.547 2280.76 705.237 2274.95 709.176 2272.95 710.393 2271.87 711.145 2271.73 711.431L2271.73 726.36C2278.04 732.661 2282.76 738.568 2285.92 744.082 2289.36 749.452 2292.69 756.254 2295.91 764.489 2283.44 770.718 2277.1 773.833 2276.89 773.833L2271.94 763.2 2271.73 763.2 2271.73 823.561 2284.95 823.561 2284.95 810.458 2291.5 810.458 2291.5 819.587C2291.5 821.091 2291.47 822.093 2291.4 822.594 2291.47 823.454 2291.5 824.564 2291.5 825.924L2291.5 839.135C2291.5 839.278 2291.4 839.349 2291.18 839.349 2285.45 839.349 2274.42 839.349 2258.08 839.349 2254.14 839.349 2250.38 837.631 2246.8 834.194 2244.65 831.401 2243.57 828.716 2243.57 826.139ZM2209.61 637.966 2237.98 637.966 2237.98 743.545C2237.98 758.51 2236.08 771.542 2232.29 782.64 2229.92 789.442 2227.16 795.707 2224.01 801.436 2223.87 801.436 2222.76 803.261 2220.68 806.913 2217.89 811.066 2214.91 814.933 2211.76 818.513 2202.02 829.54 2191.16 836.843 2179.2 840.424 2188.15 827.822 2194.49 817.439 2198.22 809.276 2200.73 803.834 2203.09 796.961 2205.31 788.654 2206.75 782.712 2207.89 776.482 2208.75 769.966 2208.75 769.179 2208.79 768.319 2208.86 767.388L2208.75 767.388C2207.46 769.393 2204.34 772.615 2199.4 777.055L2182.74 764.703 2178.34 764.703 2178.34 797.14 2202.09 788.547 2202.09 788.654C2200.8 791.59 2198.29 795.6 2194.56 800.684 2192.2 803.763 2188.76 807.343 2184.25 811.424 2180.88 814.217 2178.05 816.401 2175.76 817.976 2162.29 827.213 2148.85 833.478 2135.45 836.772L2126.43 815.828 2126.53 815.828C2129.54 814.754 2131.08 814.217 2131.16 814.217L2131.16 739.034 2151.68 739.034 2151.68 806.698C2154.33 805.768 2155.66 805.267 2155.66 805.195L2155.66 725.931 2133.63 725.931 2133.63 641.725 2158.45 641.725 2158.45 645.7 2170.28 645.7C2170.49 645.7 2170.6 645.664 2170.6 645.592L2170.6 641.725 2195.21 641.725C2195.21 646.022 2195.25 651.249 2195.32 657.406 2195.25 678.1 2195.21 690.702 2195.21 695.213 2195.21 704.664 2195.21 710.715 2195.21 713.364 2195.21 719.522 2193.13 723.245 2188.98 724.534 2186.18 725.394 2182.64 725.823 2178.34 725.823L2178.34 748.808 2191.13 748.808 2191.13 755.144C2192.2 753.927 2198.36 746.946 2209.61 734.2L2209.61 722.708C2204.09 723.066 2200.87 723.245 2199.94 723.245 2199.79 723.317 2199.65 723.353 2199.51 723.353L2196.07 672.658 2196.18 672.658C2200.4 674.949 2204.34 678.601 2208 683.613L2209.5 686.191 2209.61 686.191ZM2038.09 637.429 2066.24 637.429 2066.24 667.825 2091.18 667.825 2091.18 683.613 2066.24 683.613 2066.24 717.231 2081.61 717.231C2084.84 717.231 2089.21 717.302 2094.72 717.446L2094.72 733.234C2079.6 733.162 2067.85 733.127 2059.47 733.127L2009.93 733.127C2009.78 733.127 2009.71 733.019 2009.71 732.804L2009.71 717.123C2016.3 717.195 2021.46 717.231 2025.19 717.231L2038.09 717.231 2038.09 683.398 2013.15 683.398 2013.15 667.717 2038.09 667.717ZM1794.23 637 1821.31 637 1821.31 652.573 1878.81 652.573 1878.81 668.362 1821.31 668.362 1821.31 679.317 1872.04 679.317 1872.04 694.783C1872.04 694.926 1872 694.998 1871.93 694.998L1821.31 694.998 1821.31 705.739 1890.96 705.739 1890.96 721.419 1724.7 721.419 1724.7 705.739 1794.23 705.739 1794.23 694.998 1743.72 694.998C1743.65 694.998 1743.61 694.926 1743.61 694.783L1743.61 679.317 1794.23 679.317 1794.23 668.362 1736.73 668.362 1736.73 652.573 1794.23 652.573Z" fill="#203864" fill-rule="evenodd"/></g></svg>