<svg width="1595" height="821" xmlns="http://www.w3.org/2000/svg" xmlns:xlink="http://www.w3.org/1999/xlink" xml:space="preserve" overflow="hidden"><g transform="translate(-559 -626)"><path d="M581.742 781.591C577.208 715.423 641.143 643.856 711.004 655.719 857.407 675.931 991.62 645.701 1141.88 655.719 1292.14 665.738 1354.17 663.893 1559.81 655.719 1765.46 647.546 1912.1 650.341 2003.62 655.719 2077.66 654.322 2135.31 711.229 2132.88 781.591 2131.21 836.285 2142.05 936.49 2132.88 1043.43 2123.71 1150.35 2129.68 1226.33 2132.88 1285.12 2132.78 1351.83 2072.43 1409.16 2003.62 1410.99 1822.67 1431.2 1725.83 1397.2 1585.67 1410.99 1445.53 1424.77 1238.75 1400.41 1128.96 1410.99 1019.16 1421.57 918.299 1399.59 711.004 1410.99 648.998 1417.26 566.768 1350 581.742 1285.12 592.72 1194.1 568.359 1111.52 581.742 1023.28 595.126 935.053 583.611 890.649 581.742 781.591Z" fill="#B4C7E7" fill-rule="evenodd"/><path d="M581.481 781.119C584.583 700.559 646.526 657.022 710.696 655.059 848.36 643.431 1003.58 644.092 1154.34 655.059 1305.1 666.026 1421.46 657.936 1572.12 655.059 1722.81 652.181 1843.83 638.394 2002.84 655.059 2070.59 654.32 2145.36 713.684 2132.06 781.119 2121.38 894.696 2133.05 952.583 2132.06 1038.3 2131.06 1124.03 2128.84 1195.41 2132.06 1285.4 2134.82 1349.86 2077.65 1409.87 2002.84 1411.46 1897.38 1393.08 1674.32 1389.33 1546.28 1411.46 1418.26 1433.59 1238.65 1429.56 1141.42 1411.46 1044.17 1393.36 849.393 1431.66 710.696 1411.46 648.454 1412.41 581.898 1352.89 581.481 1285.4 589.632 1204.26 576.71 1157.24 581.481 1043.35 586.252 929.443 575.478 891.624 581.481 781.119Z" stroke="#8FAADC" stroke-width="39.9963" stroke-miterlimit="8" fill="#8FAADC" fill-rule="evenodd"/><path d="M1827.45 1188.56C1819.22 1188.56 1812.44 1193.41 1807.17 1203.12 1805.82 1205.69 1804.46 1209.14 1803.13 1213.48 1803.03 1213.96 1802.99 1214.29 1802.99 1214.45L1852.72 1214.45 1852.72 1214.33C1852.72 1212.08 1851.47 1207.9 1848.97 1201.8 1844.29 1192.97 1837.13 1188.56 1827.45 1188.56ZM1560.42 1184.69C1552.63 1184.69 1547.16 1192.44 1544.02 1207.94 1543.3 1212.76 1542.94 1217.57 1542.94 1222.39L1542.94 1223.96C1542.94 1238.33 1545.82 1249.89 1551.55 1258.65 1554.51 1262.1 1557.64 1263.83 1560.96 1263.83 1567.86 1263.83 1572.97 1256.28 1576.29 1241.19 1577 1235.4 1577.36 1229.79 1577.36 1224.33L1577.36 1223.85C1577.36 1210.43 1575.15 1199.59 1570.76 1191.32 1567.64 1186.91 1564.18 1184.69 1560.42 1184.69ZM1027.15 1184.69C1019.36 1184.69 1013.89 1192.44 1010.77 1207.94 1010.05 1212.76 1009.7 1217.57 1009.7 1222.39L1009.7 1223.96C1009.7 1238.33 1012.56 1249.89 1018.29 1258.65 1021.25 1262.1 1024.39 1263.83 1027.69 1263.83 1034.59 1263.83 1039.7 1256.28 1043.02 1241.19 1043.74 1235.4 1044.1 1229.79 1044.1 1224.33L1044.1 1223.85C1044.1 1210.43 1041.89 1199.59 1037.51 1191.32 1034.37 1186.91 1030.91 1184.69 1027.15 1184.69ZM1707.59 1183.97C1692.79 1183.97 1680.92 1189.32 1671.97 1200 1666.41 1207.63 1663.64 1215.73 1663.64 1224.33 1663.64 1235.96 1668.55 1245.73 1678.42 1253.6 1678.59 1253.6 1679.41 1254.16 1680.84 1255.29 1688.89 1259.85 1697.62 1262.14 1707.03 1262.14L1707.59 1262.14C1709.91 1262.14 1712.28 1261.99 1714.7 1261.66L1714.7 1184.32C1712.99 1184.09 1710.63 1183.97 1707.59 1183.97ZM1165.71 1183.97C1150.94 1183.97 1139.07 1189.32 1130.1 1200 1124.55 1207.63 1121.77 1215.73 1121.77 1224.33 1121.77 1235.96 1126.7 1245.73 1136.56 1253.6 1136.74 1253.6 1137.53 1254.16 1138.97 1255.29 1147.04 1259.85 1155.77 1262.14 1165.17 1262.14L1165.71 1262.14C1168.04 1262.14 1170.42 1261.99 1172.83 1261.66L1172.83 1184.32C1171.14 1184.09 1168.75 1183.97 1165.71 1183.97ZM1559.88 1167.58 1561.24 1167.58C1574.4 1167.58 1585.69 1172.32 1595.1 1181.8 1597.96 1185.18 1600.39 1188.64 1602.36 1192.17 1607.73 1201.88 1610.41 1212.45 1610.41 1223.85L1610.41 1224.8C1610.41 1239.09 1606.33 1251.83 1598.18 1262.98 1588.6 1274.86 1576.23 1280.81 1561.1 1280.81L1560.14 1280.81C1543.04 1280.81 1529.46 1273.58 1519.44 1259.13 1512.8 1248.45 1509.5 1236.9 1509.5 1224.45L1509.5 1223.24C1509.5 1208.54 1513.97 1195.57 1522.92 1184.32 1532.6 1173.18 1544.91 1167.58 1559.88 1167.58ZM1026.62 1167.58 1027.97 1167.58C1041.13 1167.58 1052.43 1172.32 1061.83 1181.8 1064.7 1185.18 1067.12 1188.64 1069.09 1192.17 1074.46 1201.88 1077.14 1212.45 1077.14 1223.85L1077.14 1224.8C1077.14 1239.09 1073.07 1251.83 1064.92 1262.98 1055.33 1274.86 1042.96 1280.81 1027.83 1280.81L1026.9 1280.81C1009.77 1280.81 996.214 1273.58 986.172 1259.13 979.531 1248.45 976.23 1236.9 976.23 1224.45L976.23 1223.24C976.23 1208.54 980.704 1195.57 989.672 1184.32 999.336 1173.18 1011.66 1167.58 1026.62 1167.58ZM1821.13 1167.47 1821.41 1167.47C1840.57 1167.47 1854.87 1173.82 1864.28 1186.5 1869.82 1194.7 1872.61 1204.17 1872.61 1214.93 1872.61 1220.23 1871.85 1225.77 1870.32 1231.56 1862.81 1231.56 1856.92 1231.56 1852.72 1231.56L1802.06 1231.56 1802.06 1231.67C1802.06 1236.16 1803.45 1241.67 1806.21 1248.18 1811.24 1257.09 1818.5 1261.54 1827.99 1261.54L1829.48 1261.54C1840.04 1261.54 1847.87 1258.01 1852.98 1250.94 1853.8 1249.09 1855.23 1245.85 1857.3 1241.19 1857.48 1241.19 1859.66 1241.75 1863.88 1242.88 1861.55 1248.34 1860.38 1251.27 1860.38 1251.66L1869.92 1256.12C1868.49 1259.09 1866.52 1262.18 1864 1265.39 1858.09 1271.74 1851.15 1276.03 1843.18 1278.28 1837.89 1279.97 1832.7 1280.81 1827.59 1280.81L1824.91 1280.81C1816.39 1280.81 1807.96 1279.04 1799.63 1275.51 1787.62 1270.3 1778.71 1261.31 1772.89 1248.53 1769.31 1240.74 1767.52 1232.55 1767.52 1223.96L1767.52 1222.76C1767.52 1208.7 1772.13 1196.09 1781.36 1184.93 1791.84 1173.29 1805.1 1167.47 1821.13 1167.47ZM1714.7 1112.18 1746.82 1112.18 1746.82 1262.14 1757.58 1262.14 1757.58 1267.56 1752.07 1267.56 1752.07 1283.58 1732.44 1283.58C1723.22 1283.58 1717.65 1281.02 1715.78 1275.87 1715.5 1274.11 1715.24 1273.23 1714.96 1273.23 1709.14 1275.56 1701.76 1276.71 1692.79 1276.71L1691.46 1276.71C1673.7 1276.71 1658.93 1271.74 1647.1 1261.77 1640.65 1255.75 1636.22 1249.54 1633.79 1243.11 1631.19 1236.94 1629.9 1230.66 1629.9 1224.33L1629.9 1222.99C1629.9 1210.64 1634.47 1199.18 1643.62 1188.67 1655.71 1176.38 1671.65 1170.24 1691.46 1170.24 1698.98 1170.24 1706.73 1171.12 1714.7 1172.89ZM1172.83 1112.18 1204.96 1112.18 1204.96 1262.14 1215.7 1262.14 1215.7 1267.56 1210.19 1267.56 1210.19 1283.58 1190.59 1283.58C1181.34 1283.58 1175.79 1281.02 1173.9 1275.87 1173.64 1274.11 1173.37 1273.23 1173.11 1273.23 1167.28 1275.56 1159.88 1276.71 1150.94 1276.71L1149.58 1276.71C1131.85 1276.71 1117.07 1271.74 1105.24 1261.77 1098.78 1255.75 1094.34 1249.54 1091.94 1243.11 1089.33 1236.94 1088.04 1230.66 1088.04 1224.33L1088.04 1222.99C1088.04 1210.64 1092.61 1199.18 1101.74 1188.67 1113.83 1176.38 1129.78 1170.24 1149.58 1170.24 1157.12 1170.24 1164.86 1171.12 1172.83 1172.89ZM914.27 1111.94C920.533 1112.35 925.703 1113.15 929.719 1114.35 941.372 1117.81 950.161 1123.15 956.067 1130.37 961.973 1137.6 964.935 1145.95 964.935 1155.43L964.935 1156.4 943.838 1157.23C942.585 1149.85 941.193 1144.59 939.662 1141.46 937.077 1136.47 933.299 1133.11 928.387 1131.34 924.251 1129.81 919.459 1129.05 914.011 1129.05 897.785 1129.05 885.377 1138.16 876.767 1156.4 871.756 1168.11 869.25 1180.96 869.25 1194.93 869.25 1213.96 873.645 1230.74 882.414 1245.29 891.74 1259.25 903.651 1266.24 918.167 1266.24 924.609 1266.24 929.422 1264.11 932.543 1259.85 933 1259.06 933.219 1258.42 933.219 1257.93L933.219 1225.28C931.788 1225.36 930.575 1225.4 929.6 1225.4L911.843 1225.4 911.843 1232.64 905.54 1232.64 905.122 1232.51C905.302 1230.91 905.401 1229.79 905.401 1229.15L905.401 1208.31 957.14 1208.31C960.819 1208.31 963.464 1210.15 965.075 1213.84 965.154 1214.56 965.214 1215.32 965.214 1216.14L965.214 1258.16C961.793 1265.72 955.351 1271.89 945.846 1276.71 942.367 1278.57 938.508 1280.01 934.293 1281.06 927.851 1282.75 922.064 1283.58 916.954 1283.58 894.464 1283.58 875.613 1275.23 860.382 1258.53 855.908 1253.07 852.269 1247.66 849.485 1242.28 842.227 1227.65 838.608 1212.15 838.608 1195.78 838.608 1175.37 844.116 1157.15 855.133 1141.09 857.916 1137.33 861.635 1133.27 866.288 1128.92 872.213 1124.43 876.469 1121.61 879.053 1120.49 890.09 1114.8 901.822 1111.94 914.27 1111.94ZM1414.07 1111.83C1424.73 1180.07 1430.3 1216.06 1430.73 1219.75L1430.87 1219.75C1442.78 1153.17 1449.23 1117.21 1450.22 1111.83L1490.01 1111.83C1490.01 1111.83 1490.01 1111.98 1490.01 1112.31 1490.01 1113.03 1492.02 1153.46 1496.05 1233.6 1497.21 1256.49 1497.84 1269.45 1497.92 1272.5 1497.92 1277.97 1495.52 1281.51 1490.66 1283.1 1489.15 1283.43 1487.48 1283.58 1485.69 1283.58L1468.23 1283.58 1462.59 1160.01 1462.45 1160.01C1462.37 1160.96 1454.93 1202.15 1440.14 1283.58L1418.22 1283.58C1412.78 1283.58 1409 1280.98 1406.95 1275.76 1404.98 1270.13 1403.99 1266.16 1403.99 1263.83 1399.16 1231.56 1394.4 1199.43 1389.75 1167.47L1389.61 1167.47C1389.61 1168.92 1387.82 1207.63 1384.24 1283.58L1363.26 1283.58C1363.26 1282.79 1365.11 1241.27 1368.77 1159.04L1371.06 1112.06 1371.2 1112.06C1375.59 1112.06 1389.87 1111.98 1414.07 1111.83ZM1195.56 958.13 1195.56 988.834 1271.22 988.834C1271.04 987.63 1270.94 986.795 1270.94 986.309L1270.94 958.13ZM1195.56 909.83 1195.56 940.418 1270.94 940.418 1270.94 920.667C1278.73 916.647 1282.95 914.452 1283.57 914.044L1283.57 909.83ZM1487.72 892.973 1487.72 910.665 1538.39 910.665 1538.39 892.973ZM1645.76 865.143 1738.63 865.143 1738.63 882.854 1710.39 882.854 1710.39 949.818 1710.53 949.818 1745.74 940.418C1732.76 962.266 1711.92 977.725 1683.25 986.795 1676.63 988.892 1669.05 990.562 1660.54 991.864 1654.18 992.738 1650.38 993.184 1649.13 993.184L1649.13 993.068C1643.48 977.007 1640.65 968.889 1640.65 968.733L1674.38 959.703C1675.81 959.373 1676.53 959.101 1676.53 958.848L1676.53 882.854 1645.88 882.854C1645.8 882.854 1645.76 882.757 1645.76 882.602ZM1487.72 857.549 1487.72 875.261 1538.39 875.261 1538.39 866.833C1538.65 866.58 1542.54 864.618 1550.08 860.928 1551.15 860.365 1551.69 859.996 1551.69 859.841L1551.69 857.549ZM1791.7 783.478C1795.02 783.711 1799.99 785.284 1806.63 788.178 1817.55 793.868 1825.34 802.064 1830.02 812.745 1830.99 814.668 1831.84 816.959 1832.56 819.601 1831.84 819.601 1821.76 821.465 1802.32 825.155ZM1193.95 781.186 1227.67 781.186 1227.67 806.239 1267.86 806.239 1267.86 823.951 1227.67 823.951 1227.67 849.956 1235.07 849.956C1239.01 847.237 1263.07 829.68 1307.23 797.325L1307.37 797.325C1307.91 797.733 1311.27 800.627 1317.45 806.006 1323.61 811.308 1326.97 814.318 1327.51 815.037 1325.46 818.319 1319 824.553 1308.16 833.7 1300.19 839.876 1292.81 845.314 1285.99 849.956L1333.83 849.956 1333.83 867.667 1258.57 867.667C1244.06 876.426 1229.92 884.564 1216.12 892.118L1270.94 892.118 1270.94 887.904C1270.94 887.749 1271.08 887.671 1271.34 887.671L1304.68 887.671C1304.76 889.438 1304.8 890.467 1304.8 890.798 1304.8 910.471 1304.76 941.427 1304.68 983.668 1304.76 987.358 1304.8 989.611 1304.8 990.407 1304.8 998.35 1301.62 1003.19 1295.26 1004.86 1292.04 1005.98 1283.27 1006.55 1268.93 1006.55L1161.67 1006.55 1161.67 918.142 1161.55 918.142C1151.33 922.318 1142.11 925.6 1133.85 928.008 1131.27 928.824 1128.67 929.465 1126.06 929.95L1211.01 867.667 1125.94 867.667 1125.94 849.956 1193.95 849.956 1193.95 823.951 1142.6 823.951 1142.6 806.239 1193.81 806.239C1193.89 806.239 1193.95 806.2 1193.95 806.123ZM1467.28 780.701 1502.1 780.701C1502.18 780.701 1502.24 780.74 1502.24 780.817L1502.24 795.519 1523.99 795.519 1523.99 780.817C1523.99 780.74 1524.09 780.701 1524.27 780.701L1558.95 780.701C1559.13 780.701 1559.21 780.74 1559.21 780.817L1559.21 795.519 1581.38 795.519C1581.74 795.519 1581.92 795.596 1581.92 795.752L1581.92 813.231 1559.21 813.231 1559.21 825.99C1559.21 826.146 1559.13 826.243 1558.95 826.243L1524.27 826.243C1524.09 826.243 1523.99 826.146 1523.99 825.99L1523.99 813.231 1502.24 813.231 1502.24 825.99C1502.24 826.146 1502.18 826.243 1502.1 826.243L1467.28 826.243C1467.1 826.243 1467.02 826.146 1467.02 825.99L1467.02 813.231 1444.31 813.231 1444.31 795.752C1444.31 795.596 1444.43 795.519 1444.71 795.519L1467.02 795.519 1467.02 780.817C1467.02 780.74 1467.1 780.701 1467.28 780.701ZM1397.8 780.701 1431.55 780.701 1431.55 823.582 1450.5 823.582 1450.5 841.294 1431.55 841.294 1431.55 853.452 1452.51 876.096 1452.65 876.096 1452.65 835.021 1487.72 835.021 1487.72 839.837 1538.39 839.837 1538.39 835.273 1573.58 835.273 1573.58 912.238C1573.58 919.541 1570.58 924.24 1564.6 926.338 1560.56 927.697 1555.09 928.377 1548.19 928.377L1533.54 928.377 1533.54 931.756C1533.54 933.271 1533.5 935.796 1533.42 939.33L1581.66 939.33 1581.66 957.042 1536.36 957.042C1537.35 957.936 1550.88 968.015 1576.94 987.281L1587.56 995.224 1568.49 1013.89C1563.03 1011.58 1557.38 1008.35 1551.55 1004.25 1546.54 1000.72 1542.58 997.554 1539.72 994.738 1534.61 989.611 1530.14 984.154 1526.28 978.366 1525.03 976.036 1524.31 974.832 1524.13 974.754 1516.26 986.95 1501.56 996.234 1480.05 1002.56 1469.67 1005.71 1456.22 1008.47 1439.74 1010.88 1439.38 1010.88 1438.93 1010.97 1438.39 1011.13 1444.04 1007.75 1449.72 1004.29 1455.47 1000.76 1460.48 997.554 1466.39 993.223 1473.21 987.766 1473.21 987.591 1474.68 986.232 1477.64 983.668 1484.72 976.754 1489.41 971.103 1491.74 966.675 1493.73 963.781 1495.24 960.577 1496.31 957.042L1444.71 957.042C1444.43 957.042 1444.31 957.003 1444.31 956.926L1444.31 939.699C1444.31 939.467 1444.43 939.33 1444.71 939.33L1498.46 939.33 1498.46 928.377 1452.65 928.377 1452.65 894.177 1438.53 903.324 1438.39 903.324 1431.55 894.643 1431.55 1010.53 1397.94 1010.53C1397.84 1010.53 1397.8 1010.41 1397.8 1010.16L1397.8 936.32 1397.54 936.32C1391.62 953.508 1385.4 966.966 1378.85 976.676 1376.63 980.211 1373.98 983.455 1370.92 986.426L1370.92 986.309C1382.13 897.575 1387.82 852.655 1388 851.529 1388.08 851.121 1388.58 847.722 1389.47 841.294L1374.16 841.294C1373.88 841.294 1373.74 841.177 1373.74 840.925L1373.74 823.582 1397.8 823.582ZM912.659 780.701 946.383 780.701C946.383 781.982 946.383 782.915 946.383 783.478 946.383 801.306 946.443 825.388 946.522 855.743 948.59 854.384 970.185 837.992 1011.31 806.608 1024.75 796.412 1032.05 790.858 1033.2 789.984 1033.74 790.295 1041.89 796.607 1057.66 808.88 1055.43 811.619 1049.82 816.63 1040.87 823.951 1029.12 832.535 1018.07 839.41 1007.67 844.537 995.836 850.247 984.243 854.83 972.869 858.268 965.79 860.598 958.751 862.366 951.772 863.57 948.172 864.055 946.383 864.424 946.383 864.657L946.383 872.969 1075.95 872.969 1075.95 890.914 969.648 890.914 1055.79 975.958C1066.63 986.562 1072.27 992.174 1072.71 992.816 1057.3 1003.83 1049.43 1009.36 1049.07 1009.44 1044.85 1006.7 1039.16 1002.14 1032.01 995.709 1018.46 982.542 1008.3 971.666 1001.48 963.063 989.493 948.283 979.889 934.028 972.73 920.298 968.793 913.248 965.035 904.373 961.436 893.691 960.998 891.846 960.68 890.914 960.501 890.914L946.383 890.914 946.383 957.159C946.383 964.713 946.383 976.152 946.383 991.495L962.509 991.495 962.509 998C962.509 998.156 962.47 998.234 962.39 998.234L954.595 998.234 954.595 1010.64 930.137 1010.64C923.675 1010.64 918.525 1007.96 914.667 1002.56 913.335 1000.16 912.659 997.748 912.659 995.34L912.659 890.914 867.898 890.914 867.898 872.969 912.659 872.969ZM1749.24 780.584 1778.53 780.584 1778.53 826.243 1838.61 826.243 1838.61 843.586C1838.61 843.819 1838.53 843.935 1838.35 843.935L1778.53 843.935 1778.53 856.345C1778.53 883.806 1783.6 912.355 1793.73 941.991 1799.09 955.644 1804.64 966.326 1810.39 974.035 1812.54 977.085 1815.68 980.406 1819.79 984.018 1822.94 986.271 1825.44 987.844 1827.31 988.718L1827.59 988.718C1827.95 988.232 1830.91 984.872 1836.46 978.599L1837.27 977.512C1841.75 980.017 1843.97 981.299 1843.97 981.376 1843.97 981.376 1835.96 991.126 1819.93 1010.64 1805.96 1006.8 1794.04 998.564 1784.18 985.96 1778.36 978.25 1773.07 968.811 1768.31 957.644 1764.73 949.857 1761.12 938.223 1757.44 922.706 1752.25 897.828 1749.64 875.3 1749.64 855.141L1749.64 843.935 1630.57 843.935 1630.57 826.243 1749.24 826.243Z" fill-rule="evenodd"/></g></svg>