<svg width="1351" height="695" xmlns="http://www.w3.org/2000/svg" xmlns:xlink="http://www.w3.org/1999/xlink" xml:space="preserve" overflow="hidden"><g transform="translate(-2851 -1457)"><path d="M2869.71 1588.81C2865.86 1532.73 2920.04 1472.08 2979.24 1482.13 3103.29 1499.25 3217.01 1473.64 3344.34 1482.13 3471.66 1490.61 3524.21 1489.05 3698.47 1482.13 3872.72 1475.2 3996.97 1477.57 4074.52 1482.13 4137.26 1480.95 4186.1 1529.18 4184.04 1588.81 4182.63 1635.15 4191.82 1720.07 4184.04 1810.69 4176.28 1901.32 4181.33 1965.69 4184.04 2015.52 4183.96 2072.06 4132.82 2120.65 4074.52 2122.19 3921.18 2139.31 3839.14 2110.51 3720.37 2122.19 3601.63 2133.88 3426.41 2113.23 3333.38 2122.19 3240.35 2131.16 3154.88 2112.53 2979.24 2122.19 2926.69 2127.51 2857.02 2070.52 2869.71 2015.52 2879.01 1938.38 2858.37 1868.4 2869.71 1793.63 2881.05 1718.85 2871.29 1681.22 2869.71 1588.81Z" fill="#A9D18E" fill-rule="evenodd"/><path d="M2869.79 1588.61C2872.42 1520.44 2924.88 1483.6 2979.22 1481.94 3095.8 1472.11 3227.24 1472.67 3354.91 1481.94 3482.58 1491.21 3581.12 1484.37 3708.72 1481.94 3836.32 1479.51 3938.81 1467.83 4073.47 1481.94 4130.83 1481.32 4194.16 1531.55 4182.89 1588.61 4173.86 1684.7 4183.74 1733.69 4182.89 1806.23 4182.05 1878.77 4180.17 1939.16 4182.89 2015.31 4185.24 2069.85 4136.82 2120.64 4073.47 2121.97 3984.16 2106.44 3795.26 2103.25 3686.83 2121.97 3578.41 2140.71 3426.31 2137.29 3343.97 2121.97 3261.62 2106.66 3096.68 2139.06 2979.22 2121.97 2926.51 2122.78 2870.15 2072.42 2869.79 2015.31 2876.7 1946.66 2865.75 1906.86 2869.79 1810.5 2873.84 1714.13 2864.71 1682.12 2869.79 1588.61Z" stroke="#A9D18E" stroke-width="33.8762" stroke-miterlimit="8" fill="none" fill-rule="evenodd"/><path d="M3570.59 1913.44 3593.38 1913.44 3593.47 2003.61 3570.68 2003.61ZM3490.96 1911.73 3513.75 1911.73C3513.81 1914.97 3513.84 1917.55 3513.84 1919.45L3513.84 1945.02C3513.84 1951.9 3513.88 1960.92 3513.94 1972.12 3513.94 1975.81 3514.48 1979.31 3515.56 1982.62 3516.64 1984.84 3518.04 1986.27 3519.76 1986.91 3520.96 1987.48 3522.62 1987.77 3524.72 1987.77 3527.01 1987.77 3529.45 1987.54 3532.06 1987.1L3532.06 1911.73 3554.85 1911.73 3554.85 1987.29 3560.57 1987.29 3560.57 1989.68C3560.57 1989.74 3560.51 1989.78 3560.38 1989.78L3557.62 1989.78 3557.62 2001.22C3557.62 2001.35 3557.55 2001.41 3557.43 2001.41L3539.59 2001.41C3536.86 2001.41 3534.86 2000.75 3533.58 1999.4 3529.14 2000.81 3524.68 2001.5 3520.23 2001.5L3519.47 2001.5C3508.92 2001.5 3500.94 1997.75 3495.53 1990.25 3494.26 1987.83 3493.12 1985.2 3492.1 1982.33 3491.72 1980.16 3491.43 1977.82 3491.24 1975.27 3491.12 1964.52 3491.05 1955.84 3491.05 1949.22L3491.05 1923.08C3491.05 1920.34 3491.02 1916.56 3490.96 1911.73ZM3621.61 1885.11 3643.82 1885.11C3643.96 1885.11 3644.02 1885.24 3644.02 1885.49L3644.02 1915.74 3671.86 1915.74 3671.86 1929.09C3671.86 1929.29 3671.8 1929.38 3671.68 1929.38L3644.02 1929.38 3644.02 1974.7C3644.14 1982.08 3646.4 1986.94 3650.79 1989.29 3652.12 1989.86 3653.36 1990.16 3654.51 1990.16 3657.94 1990.16 3660.9 1988.25 3663.38 1984.43 3664.33 1981.89 3664.8 1979.75 3664.8 1978.04L3664.71 1977.94 3661.95 1977.94 3661.95 1973.74 3679.68 1973.74C3679.75 1974.31 3679.78 1975.02 3679.78 1975.84L3679.78 1976.99C3679.78 1982.01 3678.16 1987.13 3674.91 1992.34 3669.33 1999.34 3661.89 2002.85 3652.6 2002.85 3643.76 2002.85 3635.98 1999.76 3629.24 1993.59 3624.15 1988.31 3621.61 1982.01 3621.61 1974.7L3621.61 1929.38 3601.96 1929.38 3601.96 1915.74 3621.61 1915.74ZM3431.26 1879.29C3424.26 1879.29 3418.48 1885.81 3413.9 1898.85 3410.79 1909.66 3409.23 1921.33 3409.23 1933.87 3409.23 1948.94 3411.42 1961.82 3415.81 1972.5 3420 1981.85 3425.19 1986.53 3431.35 1986.53L3433.64 1986.53C3435.87 1986.53 3438.19 1985.86 3440.6 1984.52 3436.22 1979.69 3432.59 1975.52 3429.73 1972.03 3427.95 1969.04 3426.39 1965.8 3425.06 1962.29L3443.56 1951.6 3443.75 1951.6C3445.59 1955.68 3447.85 1959.81 3450.52 1964.01 3451.41 1965.35 3451.86 1966.02 3451.86 1966.02 3454.65 1956.54 3456.05 1946.42 3456.05 1935.67L3456.05 1933.96C3456.05 1918.32 3453.61 1904.67 3448.71 1893.03 3444.51 1883.87 3438.7 1879.29 3431.26 1879.29ZM3570.3 1867.17 3593.95 1867.17 3593.95 1890.55 3570.3 1890.55ZM3430.4 1865.84 3434.02 1865.84C3443.56 1865.84 3452.14 1869.68 3459.77 1877.38 3463.59 1881.64 3466.23 1885.36 3467.69 1888.55 3469.91 1892.1 3471.98 1897.06 3473.89 1903.43 3476.62 1912.84 3477.99 1922.67 3477.99 1932.91 3477.99 1950.97 3474.01 1966.75 3466.07 1980.23 3470.33 1982.9 3474.71 1985.1 3479.23 1986.81L3483.42 1988.34C3482.98 1989.36 3480.05 1994.48 3474.65 2003.7 3474.65 2003.76 3474.62 2003.8 3474.55 2003.8 3466.48 2001.25 3460.03 1998.65 3455.2 1995.97L3452.62 1994.35C3446.64 1998.11 3439.55 1999.98 3431.35 1999.98 3417.81 1999.98 3406.81 1993.15 3398.36 1979.47 3396.07 1975.58 3393.88 1970.53 3391.78 1964.3 3388.73 1954.18 3387.2 1943.98 3387.2 1933.67L3387.2 1932.14C3387.2 1916.12 3390.54 1901.62 3397.21 1888.64 3399.25 1884.82 3401.92 1881.01 3405.22 1877.19 3412.92 1869.62 3421.31 1865.84 3430.4 1865.84ZM3444.42 1688.28 3471.22 1709.94 3471.31 1709.94 3479.04 1692.86 3479.13 1692.86C3480.28 1693.18 3486.95 1695.79 3499.16 1700.68 3497.76 1703.67 3495.85 1706.66 3493.44 1709.65 3489.94 1713.47 3487.11 1715.95 3484.95 1717.09 3484.95 1717.16 3484.03 1717.73 3482.18 1718.81L3503.64 1736.18C3497.54 1742.98 3492.9 1748.1 3489.72 1751.54 3487.36 1750.26 3482.53 1746.42 3475.22 1739.99 3466.77 1731.41 3461.11 1724.92 3458.25 1720.53 3455.07 1716.27 3452.21 1711.62 3449.66 1706.6 3448.27 1703.48 3446.93 1699.83 3445.66 1695.63 3444.83 1691.69 3444.42 1689.24 3444.42 1688.28ZM3438.31 1655.46 3438.31 1673.21 3470.17 1673.21 3470.17 1655.46ZM3360.12 1647.64 3400.55 1647.64 3400.55 1719.48C3400.55 1720.88 3400.68 1726.1 3400.93 1735.13L3400.93 1737.13C3400.93 1747.75 3399.22 1757.42 3395.78 1766.14L3506.12 1766.14 3506.12 1780.06 3395.59 1780.06 3395.59 1766.71 3395.5 1766.71C3393.84 1770.97 3391.46 1775.17 3388.34 1779.3 3386.69 1781.59 3384.85 1783.66 3382.81 1785.5 3372.39 1778.63 3365.71 1774.31 3362.79 1772.53L3362.79 1772.43C3366.85 1768.55 3369.49 1764.89 3370.7 1761.46 3372.54 1757.33 3373.94 1750.65 3374.9 1741.42 3375.41 1735.45 3375.66 1727.69 3375.66 1718.14L3375.66 1672.16C3380.62 1668.72 3383.26 1666.97 3383.58 1666.91L3383.58 1661.66 3359.92 1661.66 3359.92 1647.83C3359.92 1647.7 3359.99 1647.64 3360.12 1647.64ZM3438.31 1623.98 3438.31 1641.53 3470.17 1641.53 3470.17 1631.9C3474.49 1628.91 3476.78 1627.41 3477.03 1627.41L3477.03 1623.98ZM3414 1606.52 3421.53 1606.52C3425.41 1606.52 3430.88 1606.52 3437.93 1606.52L3438.12 1606.61 3438.12 1609.95 3470.17 1609.95 3470.17 1606.61C3470.17 1606.55 3470.26 1606.52 3470.45 1606.52L3494.1 1606.52C3494.23 1606.52 3494.29 1606.55 3494.29 1606.61L3494.29 1672.73C3494.29 1678.77 3492.83 1682.72 3489.91 1684.56 3487.36 1686.34 3483.14 1687.23 3477.22 1687.23L3438.31 1687.23C3438.19 1689.59 3438.12 1691.24 3438.12 1692.19L3438.12 1744.29 3451.38 1744.29 3451.38 1749.53 3443.75 1749.53 3443.75 1759.27C3443.75 1759.52 3443.69 1759.65 3443.56 1759.65L3428.11 1759.65C3421.69 1759.65 3417.37 1757.14 3415.14 1752.11 3414.38 1750.71 3414 1748.77 3414 1746.29ZM3359.92 1602.89C3363.23 1602.89 3367.84 1604.23 3373.75 1606.9 3376.93 1608.43 3380.21 1610.56 3383.58 1613.29 3387.26 1616.66 3389.58 1619.14 3390.54 1620.73 3393.08 1624.23 3394.99 1627.57 3396.26 1630.75 3397.72 1634.31 3398.45 1636.41 3398.45 1637.05 3385.23 1641.25 3378.46 1643.34 3378.14 1643.34 3377.95 1642.58 3374.93 1635.87 3369.08 1623.21 3363.36 1610.62 3360.31 1603.85 3359.92 1602.89ZM3604.25 1602.8 3629.33 1602.8 3629.33 1680.55 3650.5 1680.55 3650.5 1618.44 3674.53 1618.44 3674.53 1683.7C3674.53 1688.73 3672.12 1692.16 3667.29 1694.01 3665.89 1694.45 3664.52 1694.67 3663.19 1694.67L3629.33 1694.67 3629.33 1763.65 3657.08 1763.65 3657.08 1701.54 3680.92 1701.54 3680.92 1766.71C3680.92 1771.86 3678.6 1775.33 3673.96 1777.11 3672.76 1777.55 3671.58 1777.77 3670.43 1777.77L3552.66 1777.77 3552.66 1701.54 3577.83 1701.54 3577.83 1763.65 3604.25 1763.65 3604.25 1694.67 3562.96 1694.67 3562.96 1694.01 3558.19 1694.01 3558.19 1618.44 3583.27 1618.44 3583.27 1680.36C3583.27 1680.49 3583.3 1680.55 3583.37 1680.55L3604.25 1680.55Z" fill-rule="evenodd"/></g></svg>