<svg width="4398" height="2260" xmlns="http://www.w3.org/2000/svg" xmlns:xlink="http://www.w3.org/1999/xlink" xml:space="preserve" overflow="hidden"><g transform="translate(-68 -723)"><path d="M127.62 1155.56C115.095 972.831 291.494 775.231 484.226 807.958 888.118 863.737 1258.38 780.311 1672.95 807.958 2087.49 835.608 2258.59 830.528 2825.95 807.958 3393.27 785.391 3797.82 793.093 4050.31 807.958 4254.58 804.108 4413.62 961.279 4406.92 1155.56 4402.31 1306.58 4432.22 1583.28 4406.92 1878.57 4381.65 2173.88 4398.09 2383.61 4406.92 2545.99 4406.64 2730.21 4240.15 2888.57 4050.31 2893.59 3551.07 2949.35 3283.94 2855.5 2897.26 2893.59 2510.64 2931.67 1940.17 2864.38 1637.28 2893.59 1334.39 2922.79 1056.1 2862.09 484.226 2893.59 313.152 2910.91 86.2932 2725.19 127.62 2545.99 157.885 2294.64 90.6798 2066.6 127.62 1822.97 164.533 1579.32 132.752 1456.7 127.62 1155.56Z" fill="#C5E0B4" fill-rule="evenodd"/><path d="M128.366 1149.44C136.945 927.467 307.818 807.501 484.843 802.105 864.604 770.096 1292.81 771.914 1708.71 802.105 2124.58 832.295 2445.61 810.014 2861.26 802.105 3276.94 794.196 3610.79 756.148 4049.48 802.105 4236.33 800.075 4442.62 963.641 4405.93 1149.44 4376.49 1462.31 4408.69 1621.81 4405.93 1858 4403.2 2094.19 4397.05 2290.83 4405.93 2538.78 4413.57 2716.38 4255.83 2881.74 4049.48 2886.09 3758.55 2835.5 3143.17 2825.13 2789.95 2886.09 2436.78 2947.09 1941.29 2935.97 1673.06 2886.09 1404.78 2836.25 867.473 2941.74 484.843 2886.09 313.142 2888.72 129.524 2724.74 128.366 2538.78 150.876 2315.25 115.206 2185.67 128.366 1871.9 141.552 1558.12 111.814 1453.92 128.366 1149.44Z" stroke="#A9D18E" stroke-width="110.335" stroke-miterlimit="8" fill="none" fill-rule="evenodd"/><path d="M2791.19 2319.31C2779.95 2323.44 2770.66 2327.45 2763.31 2331.35 2756.2 2335.25 2747.6 2341.68 2737.51 2350.63 2737.74 2350.86 2735.44 2353.84 2730.62 2359.58 2721.68 2373.12 2718.12 2385.62 2719.96 2397.1L2720.3 2398.47C2722.37 2410.87 2729.94 2420.27 2743.01 2426.7 2753.56 2431.06 2765.95 2432.32 2780.18 2430.49 2786.14 2429.8 2792.1 2428.77 2798.07 2427.39 2797.15 2423.72 2796.23 2419.13 2795.32 2413.62L2795.32 2413.28C2793.25 2400.2 2791.88 2368.87 2791.19 2319.31ZM3500.38 2238.42C3479.27 2238.42 3461.95 2252.3 3448.42 2280.07 3444.98 2287.41 3441.54 2297.28 3438.1 2309.67 3437.87 2311.04 3437.75 2311.96 3437.75 2312.42L3565.07 2312.42 3565.07 2312.08C3565.07 2305.65 3561.86 2293.72 3555.44 2276.28 3543.51 2251.04 3525.16 2238.42 3500.38 2238.42ZM1427.43 2238.42C1406.33 2238.42 1389.01 2252.3 1375.47 2280.07 1372.03 2287.41 1368.59 2297.28 1365.15 2309.67 1364.92 2311.04 1364.81 2311.96 1364.81 2312.42L1492.13 2312.42 1492.13 2312.08C1492.13 2305.65 1488.91 2293.72 1482.49 2276.28 1470.56 2251.04 1452.21 2238.42 1427.43 2238.42ZM2951.91 2178.52 3034.16 2178.52 3034.16 2193.67 3034.5 2193.67C3044.13 2186.55 3056.29 2183 3070.98 2183L3073.04 2183C3096.67 2183 3118.92 2190.11 3139.8 2204.34 3147.83 2210.99 3153.68 2216.73 3157.35 2221.55 3157.35 2216.96 3159.18 2211.57 3162.85 2205.37 3172.26 2190.45 3187.86 2183 3209.65 2183L3211.72 2183C3236.72 2183 3259.89 2190.91 3281.23 2206.75 3301.18 2223.73 3311.16 2244.04 3311.16 2267.67L3311.16 2502.08 3235.8 2502.08 3235.8 2296.24C3235.8 2258.61 3229.84 2235.89 3217.91 2228.09 3212.17 2223.27 3205.06 2220.86 3196.57 2220.86L3193.82 2220.86C3181.43 2220.86 3172.72 2227.17 3167.67 2239.79 3171.34 2249.2 3173.18 2258.84 3173.18 2268.71L3173.18 2502.08 3097.47 2502.08 3097.47 2296.93C3097.47 2264.8 3093.46 2243.69 3085.43 2233.6 3078.32 2225.11 3069.25 2220.86 3058.24 2220.86L3055.49 2220.86C3047.46 2220.86 3040.69 2223.61 3035.19 2229.12 3034.5 2229.81 3034.16 2230.73 3034.16 2231.88L3034.16 2502.08 2979.1 2502.08C2966.94 2502.08 2958.8 2497.72 2954.67 2489 2953.29 2486.48 2952.37 2482.69 2951.91 2477.64 2951.68 2447.35 2951.57 2425.9 2951.57 2413.28 2951.57 2359.58 2951.68 2281.33 2951.91 2178.52ZM3484.21 2178.18 3484.9 2178.18C3533.99 2178.18 3570.58 2196.31 3594.67 2232.56 3608.89 2255.97 3616 2283.05 3616 2313.8 3616 2328.94 3614.05 2344.78 3610.15 2361.3 3590.88 2361.3 3575.85 2361.3 3565.07 2361.3L3435.34 2361.3 3435.34 2361.64C3435.34 2374.49 3438.9 2390.21 3446.01 2408.8 3458.86 2434.27 3477.44 2447.01 3501.76 2447.01L3505.54 2447.01C3532.61 2447.01 3552.68 2436.91 3565.76 2416.72 3567.82 2411.44 3571.5 2402.15 3576.77 2388.84 3577.23 2388.84 3582.85 2390.44 3593.63 2393.66 3587.67 2409.26 3584.69 2417.64 3584.69 2418.78L3609.12 2431.52C3605.45 2440.01 3600.4 2448.84 3593.98 2458.02 3578.84 2476.15 3561.06 2488.43 3540.64 2494.85 3527.11 2499.67 3513.8 2502.08 3500.72 2502.08L3493.84 2502.08C3472.05 2502.08 3450.48 2497.03 3429.15 2486.94 3398.41 2472.02 3375.58 2446.32 3360.67 2409.83 3351.5 2387.57 3346.91 2364.17 3346.91 2339.61L3346.91 2336.17C3346.91 2296.01 3358.72 2259.99 3382.35 2228.09 3409.19 2194.81 3443.14 2178.18 3484.21 2178.18ZM1411.26 2178.18 1411.95 2178.18C1461.04 2178.18 1497.63 2196.31 1521.72 2232.56 1535.94 2255.97 1543.05 2283.05 1543.05 2313.8 1543.05 2328.94 1541.1 2344.78 1537.2 2361.3 1517.93 2361.3 1502.91 2361.3 1492.13 2361.3L1362.4 2361.3 1362.4 2361.64C1362.4 2374.49 1365.95 2390.21 1373.06 2408.8 1385.91 2434.27 1404.49 2447.01 1428.81 2447.01L1432.59 2447.01C1459.66 2447.01 1479.74 2436.91 1492.81 2416.72 1494.88 2411.44 1498.55 2402.15 1503.83 2388.84 1504.28 2388.84 1509.9 2390.44 1520.69 2393.66 1514.72 2409.26 1511.74 2417.64 1511.74 2418.78L1536.17 2431.52C1532.5 2440.01 1527.45 2448.84 1521.03 2458.02 1505.89 2476.15 1488.11 2488.43 1467.69 2494.85 1454.16 2499.67 1440.85 2502.08 1427.78 2502.08L1420.9 2502.08C1399.1 2502.08 1377.54 2497.03 1356.2 2486.94 1325.46 2472.02 1302.64 2446.32 1287.73 2409.83 1278.55 2387.57 1273.96 2364.17 1273.96 2339.61L1273.96 2336.17C1273.96 2296.01 1285.78 2259.99 1309.4 2228.09 1336.24 2194.81 1370.2 2178.18 1411.26 2178.18ZM1576.48 2175.77 1644.96 2175.77C1645.42 2175.77 1646.33 2181.05 1647.71 2191.6 1648.17 2191.6 1658.38 2253.9 1678.34 2378.51L1679.02 2378.51C1704.49 2247.02 1717.79 2179.44 1718.94 2175.77L1781.57 2175.77C1794.19 2307.26 1800.61 2375.3 1800.84 2379.89L1801.53 2379.89C1801.99 2376.22 1813.11 2308.18 1834.91 2175.77L1882.05 2175.77 1828.37 2502.08 1762.64 2502.08C1752.09 2502.08 1745.67 2495.54 1743.37 2482.46 1735.8 2389.07 1731.9 2339.96 1731.67 2335.14L1731.33 2335.14C1730.64 2338.81 1720.78 2394.46 1701.74 2502.08L1649.09 2502.08C1638.31 2502.08 1631.65 2494.4 1629.13 2479.02 1627.52 2469.84 1609.97 2368.76 1576.48 2175.77ZM2724.97 2171.86C2772.04 2172.11 2808.22 2181.68 2833.51 2200.55 2854.62 2214.32 2866.66 2232.33 2869.64 2254.59 2870.56 2278.46 2871.71 2315.52 2873.08 2365.77 2873.31 2377.71 2874.12 2388.72 2875.49 2398.82 2879.16 2426.59 2888.8 2444.37 2904.4 2452.17 2906 2450.8 2912.31 2446.32 2923.32 2438.75L2933.99 2450.8C2881 2490.04 2854.16 2509.66 2853.47 2509.66 2838.33 2500.71 2827.89 2493.36 2822.16 2487.63L2818.37 2483.5C2796.35 2492.9 2775.13 2498.99 2754.71 2501.74 2714.34 2507.25 2682.56 2498.64 2659.39 2475.92 2647.92 2463.76 2641.16 2449.99 2639.09 2434.62L2638.75 2432.9C2634.39 2400.54 2648.04 2368.18 2679.7 2335.83 2693.46 2323.9 2705.62 2314.6 2716.17 2307.95 2726.72 2301.29 2741.64 2293.83 2760.91 2285.57 2776.28 2280.07 2785.34 2277.2 2788.09 2276.97 2786.02 2269.39 2782.13 2262.62 2776.39 2256.66 2762.86 2245.19 2742.9 2237.73 2716.52 2234.28L2713.76 2234.97C2699.77 2234.51 2682.91 2237.61 2663.18 2244.27L2665.59 2266.64C2665.82 2267.33 2665.59 2267.67 2664.9 2267.67L2648.38 2270.08C2647.92 2270.08 2647.69 2269.74 2647.69 2269.05L2633.24 2183.69C2657.1 2179.1 2679.58 2175.42 2700.69 2172.67L2704.13 2172.33C2711.3 2171.98 2718.24 2171.83 2724.97 2171.86ZM2464.63 2019.49C2480.69 2020.64 2493.88 2022.94 2504.21 2026.38 2534.03 2036.25 2556.51 2051.51 2571.65 2072.16 2586.79 2092.81 2594.36 2116.68 2594.36 2143.76L2594.36 2146.51 2540.34 2148.92C2537.13 2127.81 2533.57 2112.78 2529.67 2103.83 2523.02 2089.6 2513.38 2079.96 2500.76 2074.91 2490.21 2070.55 2477.94 2068.37 2463.94 2068.37 2422.42 2068.37 2390.65 2094.42 2368.63 2146.51 2355.78 2180.01 2349.36 2216.73 2349.36 2256.66 2349.36 2311.04 2360.6 2359 2383.08 2400.54 2406.94 2440.47 2437.45 2460.43 2474.61 2460.43 2491.13 2460.43 2503.4 2454.35 2511.43 2442.19 2512.58 2439.9 2513.15 2438.06 2513.15 2436.68L2513.15 2343.4C2509.48 2343.63 2506.39 2343.74 2503.86 2343.74L2458.44 2343.74 2458.44 2364.4 2442.27 2364.4 2441.23 2364.05C2441.69 2359.46 2441.92 2356.25 2441.92 2354.42L2441.92 2294.87 2574.4 2294.87C2583.81 2294.87 2590.58 2300.14 2594.71 2310.7 2594.94 2312.77 2595.05 2314.95 2595.05 2317.24L2595.05 2437.37C2586.33 2458.94 2569.82 2476.61 2545.5 2490.38 2536.55 2495.66 2526.69 2499.79 2515.91 2502.77 2499.39 2507.59 2484.59 2510 2471.52 2510 2413.93 2510 2365.64 2486.13 2326.65 2438.4 2315.18 2422.8 2305.88 2407.31 2298.77 2391.93 2280.19 2350.17 2270.9 2305.88 2270.9 2259.07 2270.9 2200.78 2285.01 2148.69 2313.23 2102.79 2320.34 2092.01 2329.86 2080.42 2341.79 2068.03 2356.93 2055.18 2367.82 2047.15 2374.48 2043.93 2402.69 2027.64 2432.75 2019.49 2464.63 2019.49ZM913 2019.15 1005.57 2019.15C1006.25 2019.15 1008.89 2025 1013.48 2036.71L1127.04 2315.18C1142.41 2351.2 1151.81 2374.04 1155.25 2383.67L1155.94 2383.67 1155.94 2019.15 1237.15 2019.15C1238.07 2019.15 1238.53 2019.38 1238.53 2019.84L1238.53 2510 1156.28 2510C1155.6 2510 1152.27 2502.54 1146.31 2487.63 1141.26 2475.46 1093.89 2360.38 1004.19 2142.38 998.454 2127.92 995.586 2120.46 995.586 2120.01L994.898 2120.01 994.898 2510 948.787 2510C932.5 2510 921.029 2501.97 914.377 2485.91 913.459 2482 913 2478.22 913 2474.55ZM1342.75 1477.84 1343.09 1477.84C1391.73 1485.88 1417.08 1490.24 1419.14 1490.92 1418.91 1491.15 1418.8 1491.5 1418.8 1491.96 1416.73 1520.87 1404.23 1554.95 1381.29 1594.19 1374.18 1604.74 1366.84 1614.96 1359.27 1624.82 1351.93 1634 1341.03 1645.36 1326.58 1658.9 1322.68 1662.34 1318.43 1665.55 1313.84 1668.54L1313.84 1668.19ZM2054.42 1348.07 2054.76 1348.07C2068.3 1391.22 2075.06 1442.96 2075.06 1503.32 2075.06 1567.34 2068.07 1631.02 2054.07 1694.35 2051.32 1705.14 2049.03 1713.06 2047.19 1718.1L1960.48 1698.48C1963.46 1686.32 1993.85 1572.85 2051.67 1358.06 2053.5 1351.86 2054.42 1348.53 2054.42 1348.07ZM1961.16 1217.27 1961.85 1217.27C1982.73 1220.03 2004.18 1229.09 2026.2 1244.47 2040.88 1255.48 2052.7 1266.38 2061.64 1277.17 2077.01 1295.98 2086.08 1312.62 2088.83 1327.08 2048.45 1344.52 2027.81 1353.24 2026.89 1353.24 1983.07 1263.28 1961.16 1217.96 1961.16 1217.27ZM1353.76 1203.16C1366.84 1203.16 1383.58 1208.21 1404 1218.31 1412.03 1222.21 1422.12 1229.55 1434.28 1240.34 1448.73 1254.56 1458.6 1269.02 1463.88 1283.71L1465.6 1289.56C1448.16 1294.84 1439.21 1297.48 1438.76 1297.48L1438.76 1297.82 1475.92 1297.82C1476.61 1297.82 1480.16 1288.3 1486.59 1269.25 1487.5 1267.41 1495.3 1245.38 1509.99 1203.16L1582.94 1225.53C1575.6 1249.17 1561.37 1269.13 1540.27 1285.43 1528.34 1293.46 1521.8 1297.48 1520.65 1297.48L1520.65 1297.82 1599.11 1297.82 1599.11 1348.76 1509.99 1348.76 1509.99 1404.87 1578.46 1404.87 1578.46 1455.81 1509.99 1455.81 1509.99 1676.11C1509.99 1690.34 1503.56 1702.16 1490.72 1711.56 1483.15 1716.15 1475 1718.45 1466.28 1718.45L1404.69 1718.45 1404.69 1682.65 1384.39 1682.65C1383.7 1682.65 1383.35 1682.54 1383.35 1682.31L1383.35 1663.72 1423.27 1663.72 1423.27 1455.81 1342.4 1455.81 1342.4 1404.87 1423.27 1404.87 1423.27 1348.76 1321.07 1348.76 1321.07 1297.82 1387.14 1297.82C1364.89 1234.94 1353.76 1203.39 1353.76 1203.16ZM2788.45 1089.23C2789.14 1089.23 2814.61 1094.5 2864.85 1105.06 2865.08 1105.06 2865.19 1105.29 2865.19 1105.75 2865.19 1115.84 2860.72 1141.32 2851.77 1182.16 2834.56 1245.73 2813.69 1309.41 2789.14 1373.2 2780.88 1394.54 2772.74 1415.43 2764.71 1435.85 2827.8 1537.28 2859.34 1588.22 2859.34 1588.68L2793.27 1628.26 2792.93 1628.26C2772.51 1602.33 2754.27 1575.49 2738.21 1547.72L2725.83 1526.03 2725.14 1526.03C2681.55 1622.18 2645.99 1684.14 2618.46 1711.91 2613.88 1715.81 2611.12 1717.76 2610.21 1717.76L2610.21 1717.42 2687.29 1444.8C2669.16 1400.74 2655.86 1351.4 2647.37 1296.79 2645.31 1274.53 2644.04 1256.4 2643.58 1242.4L2644.27 1242.4C2644.27 1242.63 2658.5 1265.69 2686.94 1311.59 2704.15 1338.9 2712.98 1352.78 2713.44 1353.24L2762.99 1178.03 2627.76 1178.03 2627.76 1127.43 2777.79 1127.43ZM3014.53 1077.87 3015.22 1077.87C3032.2 1080.85 3048.94 1088.42 3065.46 1100.58 3080.14 1112.98 3088.29 1120.78 3089.89 1123.99 3098.15 1133.86 3104.34 1143.61 3108.47 1153.25 3111.69 1158.76 3115.13 1167.94 3118.8 1180.79 3068.1 1191.57 3042.41 1196.96 3041.72 1196.96L3041.72 1196.62C3027.27 1134.2 3018.2 1094.62 3014.53 1077.87ZM1820.72 1063.07 1820.72 1064.1C1833.33 1097.6 1841.71 1120.09 1845.83 1131.56 1817.39 1143.5 1785.39 1149.46 1749.83 1149.46 1734 1149.46 1715.99 1147.97 1695.8 1144.99L1695.8 1145.33C1695.8 1206.6 1695.8 1253.76 1695.8 1286.8 1695.8 1289.1 1695.69 1293.92 1695.46 1301.26L1853.41 1301.26 1853.41 1351.86 1819.68 1351.86 1819.68 1719.14C1819.68 1719.37 1819.22 1719.48 1818.31 1719.48L1732.62 1719.48 1732.62 1351.86 1695.46 1351.86C1695.46 1436.77 1693.51 1489.78 1689.61 1510.89 1685.48 1542.1 1681.12 1565.73 1676.53 1581.8 1668.5 1609.1 1659.67 1630.33 1650.04 1645.48 1643.84 1656.95 1633.86 1669.69 1620.1 1683.68 1606.11 1696.3 1594.29 1704.91 1584.66 1709.5 1575.94 1713.86 1567.57 1717.19 1559.54 1719.48 1563.9 1714.2 1567.91 1706.29 1571.58 1695.73 1578.69 1678.52 1585.23 1652.02 1591.2 1616.22L1538.55 1626.2C1523.86 1533.26 1515.95 1483.81 1514.8 1477.84L1515.15 1477.84C1524.09 1480.6 1536.37 1488.4 1551.97 1501.25 1566.88 1515.71 1578.12 1528.33 1585.69 1539.11 1590.74 1546.46 1595.09 1554.14 1598.77 1562.18L1599.11 1562.18C1606.22 1504.35 1609.78 1455.01 1609.78 1414.16L1609.78 1107.12C1609.78 1103.22 1609.78 1096.91 1609.78 1088.19L1696.15 1088.19 1696.15 1099.9 1696.84 1099.9ZM2907.52 1061.34 2989.07 1061.34C2991.36 1160.71 2992.51 1214.63 2992.51 1223.13L2993.2 1223.13 3142.89 1198 3142.89 1248.25 2994.57 1273.38C2995.72 1349.8 2997.44 1393.74 2999.74 1405.21L3000.08 1405.21C3000.54 1403.38 3024.86 1368.61 3073.03 1300.92 3116.16 1323.18 3138.41 1334.88 3139.79 1336.03 3134.05 1351.63 3125.45 1368.96 3113.98 1388 3101.82 1408.43 3086.11 1431.14 3066.84 1456.16 3053.07 1473.37 3039.54 1489.55 3026.23 1504.69 3022.1 1508.82 3020.04 1511.12 3020.04 1511.58 3029.21 1540.72 3039.19 1564.81 3049.98 1583.86 3067.41 1614.61 3088.63 1636.3 3113.64 1648.92 3129.24 1626.89 3137.49 1615.41 3138.41 1614.5L3155.27 1625.51C3113.06 1683.34 3090.7 1713.86 3088.17 1717.07 3054.22 1706.29 3025.09 1687.01 3000.77 1659.24 2986.55 1641.12 2974.96 1622.99 2966.01 1604.86 2960.97 1593.61 2957.18 1584.66 2954.66 1578.01 2929.19 1602.1 2907.63 1621.38 2889.97 1635.84 2851.88 1665.67 2824.7 1684.37 2808.41 1691.94 2802.91 1695.39 2796.94 1698.26 2790.52 1700.55 2883.66 1569.06 2930.91 1502.4 2932.29 1500.56 2927.24 1478.3 2923 1450.99 2919.56 1418.64 2915.66 1371.14 2913.71 1327.88 2913.71 1288.87L2913.37 1286.8 2842.13 1299.2 2842.13 1247.91 2843.17 1247.91 2911.99 1236.55ZM1418.45 1061.34C1449.19 1061.34 1478.79 1068.34 1507.23 1082.34 1516.18 1086.7 1526.16 1094.16 1537.17 1104.72 1538.55 1106.09 1540.5 1108.16 1543.02 1110.91L1501.73 1146.37 1586.72 1146.37 1586.72 1197.31 1341.37 1197.31 1341.37 1146.37 1463.88 1146.37 1385.07 1065.82C1394.94 1062.84 1406.07 1061.34 1418.45 1061.34ZM2335.21 1061C2368.93 1066.05 2394.86 1070.18 2412.98 1073.39 2412.98 1082.57 2409.31 1101.62 2401.97 1130.53L2501.07 1130.53C2501.53 1130.53 2501.76 1130.76 2501.76 1131.22L2501.76 1181.48 2385.79 1181.48C2385.34 1181.7 2382.81 1187.44 2378.22 1198.69 2367.21 1223.93 2352.87 1249.17 2335.21 1274.41 2334.98 1274.41 2334.87 1274.53 2334.87 1274.76L2421.58 1274.76C2422.5 1274.3 2425.02 1267.41 2429.15 1254.1 2471.59 1263.74 2497.06 1269.48 2505.54 1271.31 2505.54 1275.68 2502.22 1287.15 2495.56 1305.74 2486.39 1330.52 2470.22 1354.39 2447.04 1377.33 2447.04 1377.56 2444.06 1380.2 2438.1 1385.25L2438.1 1441.36 2501.76 1441.36 2501.76 1490.92C2501.76 1491.61 2501.53 1491.96 2501.07 1491.96L2438.1 1491.96 2438.1 1669.23C2438.1 1691.94 2428.81 1707.09 2410.23 1714.66 2404.72 1716.73 2399.44 1717.76 2394.4 1717.76L2346.22 1717.76 2346.22 1682.31 2325.23 1682.31 2325.23 1662.69 2365.49 1662.69 2365.49 1491.96 2291.16 1491.96C2290.71 1491.96 2290.48 1491.61 2290.48 1490.92L2290.48 1441.7C2290.48 1441.47 2290.71 1441.36 2291.16 1441.36L2365.49 1441.36 2365.49 1378.71 2389.23 1378.71C2390.15 1378.71 2393.25 1369.53 2398.53 1351.17L2406.78 1325.7 2315.6 1325.7 2315.6 1297.82C2302.52 1309.98 2292.31 1318.13 2284.97 1322.26 2284.51 1322.26 2284.28 1322.37 2284.28 1322.6L2284.28 1666.47C2284.28 1679.55 2282.45 1688.96 2278.78 1694.7 2274.42 1702.5 2267.88 1708.81 2259.16 1713.63 2252.28 1715.92 2246.43 1717.07 2241.61 1717.07L2191.37 1717.07 2191.37 1674.05C2191.37 1673.36 2191.03 1673.01 2190.34 1673.01L2169.69 1673.01 2169.69 1654.08 2211.33 1654.08 2211.33 1540.15C2211.33 1504.12 2211.22 1453.29 2210.99 1387.66 2227.05 1381.92 2235.07 1378.82 2235.07 1378.37L2235.07 1365.63 2185.87 1365.63C2185.87 1381.69 2183.69 1414.16 2179.33 1463.04 2174.28 1505.95 2168.32 1539.92 2161.44 1564.93 2155.24 1589.48 2147.44 1611.86 2138.04 1632.05 2130.7 1647.2 2121.63 1662 2110.85 1676.45 2106.72 1682.19 2098.46 1690.45 2086.08 1701.24 2073.46 1709.96 2062.91 1715.92 2054.42 1719.14 2053.96 1719.6 2052.93 1719.83 2051.32 1719.83 2060.73 1706.29 2070.59 1678.98 2080.91 1637.9 2103.63 1546.8 2114.98 1439.75 2114.98 1316.75L2114.98 1204.88 2066.81 1204.88 2066.81 1185.61C2066.12 1185.61 2053.39 1190.88 2028.61 1201.44 2028.15 1201.67 2027.58 1201.78 2026.89 1201.78 1983.07 1111.37 1961.16 1066.16 1961.16 1066.16L1961.16 1065.82C1970.57 1067.65 1980.66 1070.29 1991.45 1073.74 2000.39 1077.41 2011.4 1083.37 2024.48 1091.64 2052.47 1112.29 2071.16 1133.17 2080.57 1154.28L2191.72 1154.28C2142.85 1095.77 2117.5 1065.36 2115.67 1063.07 2121.63 1061.92 2128.06 1061.34 2134.94 1061.34L2141.82 1061.34C2169.12 1061.34 2197.34 1068.8 2226.47 1083.72 2236.57 1089 2248.27 1097.83 2261.57 1110.22 2264.09 1112.75 2266.85 1115.62 2269.83 1118.83L2269.83 1119.17C2269.83 1119.4 2255.72 1129.5 2227.5 1149.46 2223.6 1152.45 2221.65 1154.05 2221.65 1154.28L2302.52 1154.28 2302.52 1204.88 2187.24 1204.88C2187.24 1213.83 2187.01 1250.55 2186.56 1315.03L2211.33 1315.03 2211.33 1301.95 2283.25 1301.95C2283.94 1301.95 2284.28 1302.29 2284.28 1302.98L2284.28 1319.5 2284.97 1319.5Z" fill-rule="evenodd"/></g></svg>